<?xml version="1.0" encoding="UTF-8" standalone="no"?>
<!DOCTYPE svg PUBLIC "-//W3C//DTD SVG 1.1//EN"
 "http://www.w3.org/Graphics/SVG/1.1/DTD/svg11.dtd">
<!-- Generated by graphviz version 2.44.0 (0)
 -->
<!-- Title: common_spulse_tb Pages: 1 -->
<svg width="202pt" height="143pt"
 viewBox="0.00 0.00 202.23 143.00" xmlns="http://www.w3.org/2000/svg" xmlns:xlink="http://www.w3.org/1999/xlink">
<g id="graph0" class="graph" transform="scale(1 1) rotate(0) translate(4 139)">
<title>common_spulse_tb</title>
<polygon fill="white" stroke="transparent" points="-4,4 -4,-139 198.23,-139 198.23,4 -4,4"/>
<!-- Node1 -->
<g id="node1" class="node">
<title>Node1</title>
<g id="a_node1"><a xlink:title=" ">
<polygon fill="#bfbfbf" stroke="black" points="45.5,-0.5 45.5,-20.5 148.18,-20.5 148.18,-0.5 45.5,-0.5"/>
<text text-anchor="middle" x="96.84" y="-7.5" font-family="Helvetica,sans-Serif" font-size="10.00">common_spulse_tb</text>
</a>
</g>
</g>
<!-- Node2 -->
<g id="node2" class="node">
<title>Node2</title>
<g id="a_node2"><a xlink:href="../../dc/db3/classcommon__areset.html" target="_top" xlink:title=" ">
<polygon fill="white" stroke="black" points="0,-57.5 0,-77.5 87.68,-77.5 87.68,-57.5 0,-57.5"/>
<text text-anchor="middle" x="43.84" y="-64.5" font-family="Helvetica,sans-Serif" font-size="10.00">common_areset</text>
</a>
</g>
</g>
<!-- Node2&#45;&gt;Node1 -->
<g id="edge1" class="edge">
<title>Node2&#45;&gt;Node1</title>
<path fill="none" stroke="midnightblue" d="M59.73,-50.01C68.94,-40.45 80.21,-28.76 87.9,-20.78"/>
<polygon fill="midnightblue" stroke="midnightblue" points="57.01,-47.79 52.59,-57.42 62.05,-52.65 57.01,-47.79"/>
</g>
<!-- Node3 -->
<g id="node3" class="node">
<title>Node3</title>
<g id="a_node3"><a xlink:href="../../db/d85/classcommon__async.html" target="_top" xlink:title=" ">
<polygon fill="white" stroke="black" points="0.83,-114.5 0.83,-134.5 86.85,-134.5 86.85,-114.5 0.83,-114.5"/>
<text text-anchor="middle" x="43.84" y="-121.5" font-family="Helvetica,sans-Serif" font-size="10.00">common_async</text>
</a>
</g>
</g>
<!-- Node3&#45;&gt;Node2 -->
<g id="edge2" class="edge">
<title>Node3&#45;&gt;Node2</title>
<path fill="none" stroke="midnightblue" d="M43.84,-104.38C43.84,-95.37 43.84,-85.04 43.84,-77.78"/>
<polygon fill="midnightblue" stroke="midnightblue" points="40.34,-104.42 43.84,-114.42 47.34,-104.42 40.34,-104.42"/>
</g>
<!-- Node4 -->
<g id="node4" class="node">
<title>Node4</title>
<g id="a_node4"><a xlink:href="../../d7/d95/classcommon__spulse.html" target="_top" xlink:title=" ">
<polygon fill="white" stroke="black" points="105.44,-57.5 105.44,-77.5 194.23,-77.5 194.23,-57.5 105.44,-57.5"/>
<text text-anchor="middle" x="149.84" y="-64.5" font-family="Helvetica,sans-Serif" font-size="10.00">common_spulse</text>
</a>
</g>
</g>
<!-- Node4&#45;&gt;Node1 -->
<g id="edge3" class="edge">
<title>Node4&#45;&gt;Node1</title>
<path fill="none" stroke="midnightblue" d="M133.95,-50.01C124.74,-40.45 113.47,-28.76 105.78,-20.78"/>
<polygon fill="midnightblue" stroke="midnightblue" points="131.63,-52.65 141.09,-57.42 136.67,-47.79 131.63,-52.65"/>
</g>
<!-- Node5 -->
<g id="node5" class="node">
<title>Node5</title>
<g id="a_node5"><a xlink:href="../../d4/d0e/classcommon__switch.html" target="_top" xlink:title=" ">
<polygon fill="white" stroke="black" points="106,-114.5 106,-134.5 193.67,-134.5 193.67,-114.5 106,-114.5"/>
<text text-anchor="middle" x="149.84" y="-121.5" font-family="Helvetica,sans-Serif" font-size="10.00">common_switch</text>
</a>
</g>
</g>
<!-- Node5&#45;&gt;Node4 -->
<g id="edge4" class="edge">
<title>Node5&#45;&gt;Node4</title>
<path fill="none" stroke="midnightblue" d="M149.84,-104.38C149.84,-95.37 149.84,-85.04 149.84,-77.78"/>
<polygon fill="midnightblue" stroke="midnightblue" points="146.34,-104.42 149.84,-114.42 153.34,-104.42 146.34,-104.42"/>
</g>
</g>
</svg>
