<?xml version="1.0" encoding="UTF-8" standalone="no"?>
<!DOCTYPE svg PUBLIC "-//W3C//DTD SVG 1.1//EN"
 "http://www.w3.org/Graphics/SVG/1.1/DTD/svg11.dtd">
<!-- Generated by graphviz version 2.44.0 (0)
 -->
<!-- Title: rTwoBFStage Pages: 1 -->
<svg width="394pt" height="143pt"
 viewBox="0.00 0.00 393.67 143.00" xmlns="http://www.w3.org/2000/svg" xmlns:xlink="http://www.w3.org/1999/xlink">
<g id="graph0" class="graph" transform="scale(1 1) rotate(0) translate(4 139)">
<title>rTwoBFStage</title>
<polygon fill="white" stroke="transparent" points="-4,4 -4,-139 389.67,-139 389.67,4 -4,4"/>
<!-- Node1 -->
<g id="node1" class="node">
<title>Node1</title>
<g id="a_node1"><a xlink:title=" ">
<polygon fill="#bfbfbf" stroke="black" points="157.44,-0.5 157.44,-20.5 234.56,-20.5 234.56,-0.5 157.44,-0.5"/>
<text text-anchor="middle" x="196" y="-7.5" font-family="Helvetica,sans-Serif" font-size="10.00">rTwoBFStage</text>
</a>
</g>
</g>
<!-- Node2 -->
<g id="node2" class="node">
<title>Node2</title>
<g id="a_node2"><a xlink:href="../../dc/d77/classrTwoBF.html" target="_top" xlink:title="digraph rTwoBF { 	rankdir=&quot;LR&quot;; &#160;node [shape=box, fontname=Helvetica, fontsize=12,...">
<polygon fill="white" stroke="black" points="16.4,-57.5 16.4,-77.5 79.61,-77.5 79.61,-57.5 16.4,-57.5"/>
<text text-anchor="middle" x="48" y="-64.5" font-family="Helvetica,sans-Serif" font-size="10.00">rTwoBF(2)</text>
</a>
</g>
</g>
<!-- Node2&#45;&gt;Node1 -->
<g id="edge1" class="edge">
<title>Node2&#45;&gt;Node1</title>
<path fill="none" stroke="midnightblue" d="M82,-53.87C109.34,-43.71 147.09,-29.68 171.53,-20.6"/>
<polygon fill="midnightblue" stroke="midnightblue" points="80.6,-50.65 72.44,-57.42 83.04,-57.22 80.6,-50.65"/>
</g>
<!-- Node3 -->
<g id="node3" class="node">
<title>Node3</title>
<g id="a_node3"><a xlink:href="../../d6/ddb/classcommon__delay.html" target="_top" xlink:title=" ">
<polygon fill="white" stroke="black" points="0,-114.5 0,-134.5 96.01,-134.5 96.01,-114.5 0,-114.5"/>
<text text-anchor="middle" x="48" y="-121.5" font-family="Helvetica,sans-Serif" font-size="10.00">common_delay(2)</text>
</a>
</g>
</g>
<!-- Node3&#45;&gt;Node2 -->
<g id="edge2" class="edge">
<title>Node3&#45;&gt;Node2</title>
<path fill="none" stroke="midnightblue" d="M48,-104.38C48,-95.37 48,-85.04 48,-77.78"/>
<polygon fill="midnightblue" stroke="midnightblue" points="44.5,-104.42 48,-114.42 51.5,-104.42 44.5,-104.42"/>
</g>
<!-- Node4 -->
<g id="node4" class="node">
<title>Node4</title>
<g id="a_node4"><a xlink:href="../../d5/dd7/classcommon__bit__delay.html" target="_top" xlink:title=" ">
<polygon fill="white" stroke="black" points="97.94,-57.5 97.94,-77.5 210.06,-77.5 210.06,-57.5 97.94,-57.5"/>
<text text-anchor="middle" x="154" y="-64.5" font-family="Helvetica,sans-Serif" font-size="10.00">common_bit_delay(2)</text>
</a>
</g>
</g>
<!-- Node4&#45;&gt;Node1 -->
<g id="edge3" class="edge">
<title>Node4&#45;&gt;Node1</title>
<path fill="none" stroke="midnightblue" d="M167.03,-49.44C174.25,-39.98 182.95,-28.6 188.92,-20.78"/>
<polygon fill="midnightblue" stroke="midnightblue" points="164.23,-47.35 160.94,-57.42 169.79,-51.59 164.23,-47.35"/>
</g>
<!-- Node5 -->
<g id="node5" class="node">
<title>Node5</title>
<g id="a_node5"><a xlink:href="../../d3/d5d/classcommon__pipeline.html" target="_top" xlink:title=" ">
<polygon fill="white" stroke="black" points="234.83,-114.5 234.83,-134.5 329.18,-134.5 329.18,-114.5 234.83,-114.5"/>
<text text-anchor="middle" x="282" y="-121.5" font-family="Helvetica,sans-Serif" font-size="10.00">common_pipeline</text>
</a>
</g>
</g>
<!-- Node5&#45;&gt;Node1 -->
<g id="edge4" class="edge">
<title>Node5&#45;&gt;Node1</title>
<path fill="none" stroke="midnightblue" d="M268.65,-106.11C250.19,-82.07 217.52,-39.52 203.14,-20.79"/>
<polygon fill="midnightblue" stroke="midnightblue" points="266.1,-108.53 274.97,-114.33 271.65,-104.27 266.1,-108.53"/>
</g>
<!-- Node6 -->
<g id="node6" class="node">
<title>Node6</title>
<g id="a_node6"><a xlink:href="../../d5/dc5/classcommon__pipeline__sl.html" target="_top" xlink:title=" ">
<polygon fill="white" stroke="black" points="266.33,-57.5 266.33,-77.5 385.67,-77.5 385.67,-57.5 266.33,-57.5"/>
<text text-anchor="middle" x="326" y="-64.5" font-family="Helvetica,sans-Serif" font-size="10.00">common_pipeline_sl(2)</text>
</a>
</g>
</g>
<!-- Node5&#45;&gt;Node6 -->
<g id="edge6" class="edge">
<title>Node5&#45;&gt;Node6</title>
<path fill="none" stroke="midnightblue" d="M295.65,-106.44C303.22,-96.98 312.33,-85.6 318.58,-77.78"/>
<polygon fill="midnightblue" stroke="midnightblue" points="292.78,-104.42 289.27,-114.42 298.25,-108.8 292.78,-104.42"/>
</g>
<!-- Node6&#45;&gt;Node1 -->
<g id="edge5" class="edge">
<title>Node6&#45;&gt;Node1</title>
<path fill="none" stroke="midnightblue" d="M295.19,-53.46C271.26,-43.34 238.68,-29.56 217.5,-20.6"/>
<polygon fill="midnightblue" stroke="midnightblue" points="293.96,-56.74 304.54,-57.42 296.69,-50.3 293.96,-56.74"/>
</g>
</g>
</svg>
