<?xml version="1.0" encoding="UTF-8" standalone="no"?>
<!DOCTYPE svg PUBLIC "-//W3C//DTD SVG 1.1//EN"
 "http://www.w3.org/Graphics/SVG/1.1/DTD/svg11.dtd">
<!-- Generated by graphviz version 2.44.0 (0)
 -->
<!-- Title: common_switch Pages: 1 -->
<svg width="223pt" height="143pt"
 viewBox="0.00 0.00 223.13 143.00" xmlns="http://www.w3.org/2000/svg" xmlns:xlink="http://www.w3.org/1999/xlink">
<g id="graph0" class="graph" transform="scale(1 1) rotate(0) translate(4 139)">
<title>common_switch</title>
<polygon fill="white" stroke="transparent" points="-4,4 -4,-139 219.13,-139 219.13,4 -4,4"/>
<!-- Node1 -->
<g id="node1" class="node">
<title>Node1</title>
<g id="a_node1"><a xlink:title=" ">
<polygon fill="#bfbfbf" stroke="black" points="63.51,-114.5 63.51,-134.5 151.18,-134.5 151.18,-114.5 63.51,-114.5"/>
<text text-anchor="middle" x="107.34" y="-121.5" font-family="Helvetica,sans-Serif" font-size="10.00">common_switch</text>
</a>
</g>
</g>
<!-- Node2 -->
<g id="node2" class="node">
<title>Node2</title>
<g id="a_node2"><a xlink:href="../../d7/d95/classcommon__spulse.html" target="_top" xlink:title=" ">
<polygon fill="white" stroke="black" points="6.95,-57.5 6.95,-77.5 95.74,-77.5 95.74,-57.5 6.95,-57.5"/>
<text text-anchor="middle" x="51.34" y="-64.5" font-family="Helvetica,sans-Serif" font-size="10.00">common_spulse</text>
</a>
</g>
</g>
<!-- Node1&#45;&gt;Node2 -->
<g id="edge1" class="edge">
<title>Node1&#45;&gt;Node2</title>
<path fill="none" stroke="midnightblue" d="M90.85,-107.3C81.06,-97.68 68.99,-85.83 60.79,-77.78"/>
<polygon fill="midnightblue" stroke="midnightblue" points="88.51,-109.91 98.1,-114.42 93.41,-104.91 88.51,-109.91"/>
</g>
<!-- Node4 -->
<g id="node4" class="node">
<title>Node4</title>
<g id="a_node4"><a xlink:href="../../d6/d3d/classcommon__switch__tb.html" target="_top" xlink:title=" ">
<polygon fill="white" stroke="black" points="113.56,-57.5 113.56,-77.5 215.13,-77.5 215.13,-57.5 113.56,-57.5"/>
<text text-anchor="middle" x="164.34" y="-64.5" font-family="Helvetica,sans-Serif" font-size="10.00">common_switch_tb</text>
</a>
</g>
</g>
<!-- Node1&#45;&gt;Node4 -->
<g id="edge3" class="edge">
<title>Node1&#45;&gt;Node4</title>
<path fill="none" stroke="midnightblue" d="M124.13,-107.3C134.1,-97.68 146.38,-85.83 154.73,-77.78"/>
<polygon fill="midnightblue" stroke="midnightblue" points="121.52,-104.96 116.76,-114.42 126.38,-109.99 121.52,-104.96"/>
</g>
<!-- Node3 -->
<g id="node3" class="node">
<title>Node3</title>
<g id="a_node3"><a xlink:href="../../d9/d17/classcommon__spulse__tb.html" target="_top" xlink:title=" ">
<polygon fill="white" stroke="black" points="0,-0.5 0,-20.5 102.69,-20.5 102.69,-0.5 0,-0.5"/>
<text text-anchor="middle" x="51.34" y="-7.5" font-family="Helvetica,sans-Serif" font-size="10.00">common_spulse_tb</text>
</a>
</g>
</g>
<!-- Node2&#45;&gt;Node3 -->
<g id="edge2" class="edge">
<title>Node2&#45;&gt;Node3</title>
<path fill="none" stroke="midnightblue" d="M51.34,-47.38C51.34,-38.37 51.34,-28.04 51.34,-20.78"/>
<polygon fill="midnightblue" stroke="midnightblue" points="47.84,-47.42 51.34,-57.42 54.84,-47.42 47.84,-47.42"/>
</g>
</g>
</svg>
