<?xml version="1.0" encoding="UTF-8" standalone="no"?>
<!DOCTYPE svg PUBLIC "-//W3C//DTD SVG 1.1//EN"
 "http://www.w3.org/Graphics/SVG/1.1/DTD/svg11.dtd">
<!-- Generated by graphviz version 2.44.0 (0)
 -->
<!-- Title: rTwoWMul Pages: 1 -->
<svg width="252pt" height="314pt"
 viewBox="0.00 0.00 251.95 314.00" xmlns="http://www.w3.org/2000/svg" xmlns:xlink="http://www.w3.org/1999/xlink">
<g id="graph0" class="graph" transform="scale(1 1) rotate(0) translate(4 310)">
<title>rTwoWMul</title>
<polygon fill="white" stroke="transparent" points="-4,4 -4,-310 247.95,-310 247.95,4 -4,4"/>
<!-- Node1 -->
<g id="node1" class="node">
<title>Node1</title>
<g id="a_node1"><a xlink:title=" ">
<polygon fill="#bfbfbf" stroke="black" points="86.4,-171.5 86.4,-191.5 150.16,-191.5 150.16,-171.5 86.4,-171.5"/>
<text text-anchor="middle" x="118.28" y="-178.5" font-family="Helvetica,sans-Serif" font-size="10.00">rTwoWMul</text>
</a>
</g>
</g>
<!-- Node5 -->
<g id="node5" class="node">
<title>Node5</title>
<g id="a_node5"><a xlink:href="../../d3/da3/classrTwoSDFStage.html" target="_top" xlink:title=" ">
<polygon fill="white" stroke="black" points="76.11,-114.5 76.11,-134.5 160.45,-134.5 160.45,-114.5 76.11,-114.5"/>
<text text-anchor="middle" x="118.28" y="-121.5" font-family="Helvetica,sans-Serif" font-size="10.00">rTwoSDFStage</text>
</a>
</g>
</g>
<!-- Node1&#45;&gt;Node5 -->
<g id="edge4" class="edge">
<title>Node1&#45;&gt;Node5</title>
<path fill="none" stroke="midnightblue" d="M118.28,-161.38C118.28,-152.37 118.28,-142.04 118.28,-134.78"/>
<polygon fill="midnightblue" stroke="midnightblue" points="114.78,-161.42 118.28,-171.42 121.78,-161.42 114.78,-161.42"/>
</g>
<!-- Node2 -->
<g id="node2" class="node">
<title>Node2</title>
<g id="a_node2"><a xlink:href="../../d3/d5d/classcommon__pipeline.html" target="_top" xlink:title=" ">
<polygon fill="white" stroke="black" points="0,-228.5 0,-248.5 106.56,-248.5 106.56,-228.5 0,-228.5"/>
<text text-anchor="middle" x="53.28" y="-235.5" font-family="Helvetica,sans-Serif" font-size="10.00">common_pipeline(2)</text>
</a>
</g>
</g>
<!-- Node2&#45;&gt;Node1 -->
<g id="edge1" class="edge">
<title>Node2&#45;&gt;Node1</title>
<path fill="none" stroke="midnightblue" d="M71.76,-221.87C83.24,-212.15 97.61,-199.99 107.31,-191.78"/>
<polygon fill="midnightblue" stroke="midnightblue" points="69.39,-219.29 64.01,-228.42 73.91,-224.63 69.39,-219.29"/>
</g>
<!-- Node3 -->
<g id="node3" class="node">
<title>Node3</title>
<g id="a_node3"><a xlink:href="../../d5/dc5/classcommon__pipeline__sl.html" target="_top" xlink:title=" ">
<polygon fill="white" stroke="black" points="124.61,-228.5 124.61,-248.5 243.95,-248.5 243.95,-228.5 124.61,-228.5"/>
<text text-anchor="middle" x="184.28" y="-235.5" font-family="Helvetica,sans-Serif" font-size="10.00">common_pipeline_sl(2)</text>
</a>
</g>
</g>
<!-- Node3&#45;&gt;Node1 -->
<g id="edge2" class="edge">
<title>Node3&#45;&gt;Node1</title>
<path fill="none" stroke="midnightblue" d="M165.52,-221.87C153.87,-212.15 139.27,-199.99 129.42,-191.78"/>
<polygon fill="midnightblue" stroke="midnightblue" points="163.46,-224.7 173.38,-228.42 167.94,-219.33 163.46,-224.7"/>
</g>
<!-- Node4 -->
<g id="node4" class="node">
<title>Node4</title>
<g id="a_node4"><a xlink:href="../../d3/d5d/classcommon__pipeline.html" target="_top" xlink:title=" ">
<polygon fill="white" stroke="black" points="137.11,-285.5 137.11,-305.5 231.45,-305.5 231.45,-285.5 137.11,-285.5"/>
<text text-anchor="middle" x="184.28" y="-292.5" font-family="Helvetica,sans-Serif" font-size="10.00">common_pipeline</text>
</a>
</g>
</g>
<!-- Node4&#45;&gt;Node3 -->
<g id="edge3" class="edge">
<title>Node4&#45;&gt;Node3</title>
<path fill="none" stroke="midnightblue" d="M184.28,-275.38C184.28,-266.37 184.28,-256.04 184.28,-248.78"/>
<polygon fill="midnightblue" stroke="midnightblue" points="180.78,-275.42 184.28,-285.42 187.78,-275.42 180.78,-275.42"/>
</g>
<!-- Node6 -->
<g id="node6" class="node">
<title>Node6</title>
<g id="a_node6"><a xlink:href="../../da/d05/classrTwoSDF.html" target="_top" xlink:title=" ">
<polygon fill="white" stroke="black" points="89.17,-57.5 89.17,-77.5 147.39,-77.5 147.39,-57.5 89.17,-57.5"/>
<text text-anchor="middle" x="118.28" y="-64.5" font-family="Helvetica,sans-Serif" font-size="10.00">rTwoSDF</text>
</a>
</g>
</g>
<!-- Node5&#45;&gt;Node6 -->
<g id="edge5" class="edge">
<title>Node5&#45;&gt;Node6</title>
<path fill="none" stroke="midnightblue" d="M118.28,-104.38C118.28,-95.37 118.28,-85.04 118.28,-77.78"/>
<polygon fill="midnightblue" stroke="midnightblue" points="114.78,-104.42 118.28,-114.42 121.78,-104.42 114.78,-104.42"/>
</g>
<!-- Node7 -->
<g id="node7" class="node">
<title>Node7</title>
<g id="a_node7"><a xlink:href="../../d0/d99/classtb__rTwoSDF.html" target="_top" xlink:title=" ">
<polygon fill="white" stroke="black" points="82.23,-0.5 82.23,-20.5 154.34,-20.5 154.34,-0.5 82.23,-0.5"/>
<text text-anchor="middle" x="118.28" y="-7.5" font-family="Helvetica,sans-Serif" font-size="10.00">tb_rTwoSDF</text>
</a>
</g>
</g>
<!-- Node6&#45;&gt;Node7 -->
<g id="edge6" class="edge">
<title>Node6&#45;&gt;Node7</title>
<path fill="none" stroke="midnightblue" d="M118.28,-47.38C118.28,-38.37 118.28,-28.04 118.28,-20.78"/>
<polygon fill="midnightblue" stroke="midnightblue" points="114.78,-47.42 118.28,-57.42 121.78,-47.42 114.78,-47.42"/>
</g>
</g>
</svg>
