<?xml version="1.0" encoding="UTF-8" standalone="no"?>
<!DOCTYPE svg PUBLIC "-//W3C//DTD SVG 1.1//EN"
 "http://www.w3.org/Graphics/SVG/1.1/DTD/svg11.dtd">
<!-- Generated by graphviz version 2.44.0 (0)
 -->
<!-- Title: common_areset Pages: 1 -->
<svg width="111pt" height="143pt"
 viewBox="0.00 0.00 110.69 143.00" xmlns="http://www.w3.org/2000/svg" xmlns:xlink="http://www.w3.org/1999/xlink">
<g id="graph0" class="graph" transform="scale(1 1) rotate(0) translate(4 139)">
<title>common_areset</title>
<polygon fill="white" stroke="transparent" points="-4,4 -4,-139 106.69,-139 106.69,4 -4,4"/>
<!-- Node1 -->
<g id="node1" class="node">
<title>Node1</title>
<g id="a_node1"><a xlink:title=" ">
<polygon fill="#bfbfbf" stroke="black" points="7.5,-57.5 7.5,-77.5 95.18,-77.5 95.18,-57.5 7.5,-57.5"/>
<text text-anchor="middle" x="51.34" y="-64.5" font-family="Helvetica,sans-Serif" font-size="10.00">common_areset</text>
</a>
</g>
</g>
<!-- Node3 -->
<g id="node3" class="node">
<title>Node3</title>
<g id="a_node3"><a xlink:href="../../d9/d17/classcommon__spulse__tb.html" target="_top" xlink:title=" ">
<polygon fill="white" stroke="black" points="0,-0.5 0,-20.5 102.69,-20.5 102.69,-0.5 0,-0.5"/>
<text text-anchor="middle" x="51.34" y="-7.5" font-family="Helvetica,sans-Serif" font-size="10.00">common_spulse_tb</text>
</a>
</g>
</g>
<!-- Node1&#45;&gt;Node3 -->
<g id="edge2" class="edge">
<title>Node1&#45;&gt;Node3</title>
<path fill="none" stroke="midnightblue" d="M51.34,-47.38C51.34,-38.37 51.34,-28.04 51.34,-20.78"/>
<polygon fill="midnightblue" stroke="midnightblue" points="47.84,-47.42 51.34,-57.42 54.84,-47.42 47.84,-47.42"/>
</g>
<!-- Node2 -->
<g id="node2" class="node">
<title>Node2</title>
<g id="a_node2"><a xlink:href="../../db/d85/classcommon__async.html" target="_top" xlink:title=" ">
<polygon fill="white" stroke="black" points="8.34,-114.5 8.34,-134.5 94.35,-134.5 94.35,-114.5 8.34,-114.5"/>
<text text-anchor="middle" x="51.34" y="-121.5" font-family="Helvetica,sans-Serif" font-size="10.00">common_async</text>
</a>
</g>
</g>
<!-- Node2&#45;&gt;Node1 -->
<g id="edge1" class="edge">
<title>Node2&#45;&gt;Node1</title>
<path fill="none" stroke="midnightblue" d="M51.34,-104.38C51.34,-95.37 51.34,-85.04 51.34,-77.78"/>
<polygon fill="midnightblue" stroke="midnightblue" points="47.84,-104.42 51.34,-114.42 54.84,-104.42 47.84,-104.42"/>
</g>
</g>
</svg>
