<?xml version="1.0" encoding="UTF-8" standalone="no"?>
<!DOCTYPE svg PUBLIC "-//W3C//DTD SVG 1.1//EN"
 "http://www.w3.org/Graphics/SVG/1.1/DTD/svg11.dtd">
<!-- Generated by graphviz version 2.44.0 (0)
 -->
<!-- Title: common_pipeline Pages: 1 -->
<!--zoomable 206 -->
<svg id="main" version="1.1" xmlns="http://www.w3.org/2000/svg" xmlns:xlink="http://www.w3.org/1999/xlink" xml:space="preserve" onload="init(evt)">
<style type="text/css"><![CDATA[
.edge:hover path { stroke: red; }
.edge:hover polygon { stroke: red; fill: red; }
]]></style>
<script type="text/javascript"><![CDATA[
var edges = document.getElementsByTagName('g');
if (edges && edges.length) {
  for (var i=0;i<edges.length;i++) {
    if (edges[i].id.substr(0,4)=='edge') {
      edges[i].setAttribute('class','edge');
    }
  }
}
]]></script>
        <defs>
                <circle id="rim" cx="0" cy="0" r="7"/>
                <circle id="rim2" cx="0" cy="0" r="3.5"/>
                <g id="zoomPlus">
                        <use xlink:href="#rim" fill="#404040">
                                <set attributeName="fill" to="#808080" begin="zoomplus.mouseover" end="zoomplus.mouseout"/>
                        </use>
                        <path d="M-4,0h8M0,-4v8" fill="none" stroke="white" stroke-width="1.5" pointer-events="none"/>
                </g>
                <g id="zoomMin">
                        <use xlink:href="#rim" fill="#404040">
                                <set attributeName="fill" to="#808080" begin="zoomminus.mouseover" end="zoomminus.mouseout"/>
                        </use>
                        <path d="M-4,0h8" fill="none" stroke="white" stroke-width="1.5" pointer-events="none"/>
                </g>
                <g id="dirArrow">
                        <path fill="none" stroke="white" stroke-width="1.5" d="M0,-3.0v7 M-2.5,-0.5L0,-3.0L2.5,-0.5"/>
                </g>
               <g id="resetDef">
                       <use xlink:href="#rim2" fill="#404040">
                               <set attributeName="fill" to="#808080" begin="reset.mouseover" end="reset.mouseout"/>
                       </use>
               </g>
        </defs>

<script type="text/javascript">
var viewWidth = 727;
var viewHeight = 206;
var sectionId = 'dynsection-0';
</script>
<script xlink:href="../../svgpan.js"/>
<svg id="graph" class="graph">
<g id="viewport">
<title>common_pipeline</title>
<polygon fill="white" stroke="transparent" points="-4,4 -4,-201.54 723.37,-201.54 723.37,4 -4,4"/>
<!-- Node1 -->
<g id="node1" class="node">
<title>Node1</title>
<g id="a_node1"><a xlink:title=" ">
<polygon fill="#bfbfbf" stroke="black" points="0,-80.04 0,-100.04 94.35,-100.04 94.35,-80.04 0,-80.04"/>
<text text-anchor="middle" x="47.17" y="-87.04" font-family="Helvetica,sans-Serif" font-size="10.00">common_pipeline</text>
</a>
</g>
</g>
<!-- Node2 -->
<g id="node2" class="node">
<title>Node2</title>
<g id="a_node2"><a xlink:href="../../de/d7e/classcommon__add__sub.html" target="_top" xlink:title="digraph common_add_sub { 	rankdir=&quot;LR&quot;; &#160;node [shape=box, fontname=Helvetica, fontsize=12,...">
<polygon fill="white" stroke="black" points="134.78,-177.04 134.78,-197.04 233.03,-197.04 233.03,-177.04 134.78,-177.04"/>
<text text-anchor="middle" x="183.91" y="-184.04" font-family="Helvetica,sans-Serif" font-size="10.00">common_add_sub</text>
</a>
</g>
</g>
<!-- Node1&#45;&gt;Node2 -->
<g id="edge1" class="edge">
<title>Node1&#45;&gt;Node2</title>
<path fill="none" stroke="midnightblue" d="M65.51,-107.8C81.39,-123.41 106.05,-146.07 130.35,-162.04 138.96,-167.71 149.05,-172.83 158.08,-176.94"/>
<polygon fill="midnightblue" stroke="midnightblue" points="67.61,-104.94 58.06,-100.35 62.66,-109.9 67.61,-104.94"/>
</g>
<!-- Node3 -->
<g id="node3" class="node">
<title>Node3</title>
<g id="a_node3"><a xlink:href="../../dc/df9/classcommon__add__sub__tb.html" target="_top" xlink:title=" ">
<polygon fill="white" stroke="black" points="279.01,-158.04 279.01,-178.04 391.16,-178.04 391.16,-158.04 279.01,-158.04"/>
<text text-anchor="middle" x="335.09" y="-165.04" font-family="Helvetica,sans-Serif" font-size="10.00">common_add_sub_tb</text>
</a>
</g>
</g>
<!-- Node1&#45;&gt;Node3 -->
<g id="edge3" class="edge">
<title>Node1&#45;&gt;Node3</title>
<path fill="none" stroke="midnightblue" d="M93.54,-102.82C105.5,-106.17 118.41,-109.76 130.35,-113.04 188.28,-128.97 255.6,-147.06 296.51,-158.01"/>
<polygon fill="midnightblue" stroke="midnightblue" points="94.32,-99.41 83.75,-100.08 92.43,-106.15 94.32,-99.41"/>
</g>
<!-- Node4 -->
<g id="node4" class="node">
<title>Node4</title>
<g id="a_node4"><a xlink:href="../../d5/dc5/classcommon__pipeline__sl.html" target="_top" xlink:title=" ">
<polygon fill="white" stroke="black" points="130.35,-61.04 130.35,-81.04 237.47,-81.04 237.47,-61.04 130.35,-61.04"/>
<text text-anchor="middle" x="183.91" y="-68.04" font-family="Helvetica,sans-Serif" font-size="10.00">common_pipeline_sl</text>
</a>
</g>
</g>
<!-- Node1&#45;&gt;Node4 -->
<g id="edge4" class="edge">
<title>Node1&#45;&gt;Node4</title>
<path fill="none" stroke="midnightblue" d="M104.63,-82.08C113.03,-80.9 121.65,-79.68 129.97,-78.51"/>
<polygon fill="midnightblue" stroke="midnightblue" points="103.95,-78.64 94.54,-83.51 104.93,-85.57 103.95,-78.64"/>
</g>
<!-- Node5 -->
<g id="node5" class="node">
<title>Node5</title>
<g id="a_node5"><a xlink:href="../../dd/d43/classcommon__select__symbol.html" target="_top" xlink:title=" ">
<polygon fill="white" stroke="black" points="273.47,-100.04 273.47,-120.04 396.7,-120.04 396.7,-100.04 273.47,-100.04"/>
<text text-anchor="middle" x="335.09" y="-107.04" font-family="Helvetica,sans-Serif" font-size="10.00">common_select_symbol</text>
</a>
</g>
</g>
<!-- Node1&#45;&gt;Node5 -->
<g id="edge11" class="edge">
<title>Node1&#45;&gt;Node5</title>
<path fill="none" stroke="midnightblue" d="M104.48,-93.98C153.21,-97.39 223.5,-102.31 273.45,-105.8"/>
<polygon fill="midnightblue" stroke="midnightblue" points="104.65,-90.49 94.43,-93.28 104.16,-97.47 104.65,-90.49"/>
</g>
<!-- Node6 -->
<g id="node6" class="node">
<title>Node6</title>
<g id="a_node6"><a xlink:href="../../dd/dc9/classrTwoBFStage.html" target="_top" xlink:title=" ">
<polygon fill="white" stroke="black" points="296.53,-22.04 296.53,-42.04 373.65,-42.04 373.65,-22.04 296.53,-22.04"/>
<text text-anchor="middle" x="335.09" y="-29.04" font-family="Helvetica,sans-Serif" font-size="10.00">rTwoBFStage</text>
</a>
</g>
</g>
<!-- Node1&#45;&gt;Node6 -->
<g id="edge12" class="edge">
<title>Node1&#45;&gt;Node6</title>
<path fill="none" stroke="midnightblue" d="M74.57,-75.07C90.27,-66.88 110.88,-57.34 130.35,-52.04 186.76,-36.7 254.8,-32.82 296.23,-32"/>
<polygon fill="midnightblue" stroke="midnightblue" points="72.63,-72.14 65.47,-79.95 75.94,-78.31 72.63,-72.14"/>
</g>
<!-- Node7 -->
<g id="node7" class="node">
<title>Node7</title>
<g id="a_node7"><a xlink:href="../../d3/da3/classrTwoSDFStage.html" target="_top" xlink:title=" ">
<polygon fill="white" stroke="black" points="432.71,-22.04 432.71,-42.04 517.04,-42.04 517.04,-22.04 432.71,-22.04"/>
<text text-anchor="middle" x="474.87" y="-29.04" font-family="Helvetica,sans-Serif" font-size="10.00">rTwoSDFStage</text>
</a>
</g>
</g>
<!-- Node1&#45;&gt;Node7 -->
<g id="edge13" class="edge">
<title>Node1&#45;&gt;Node7</title>
<path fill="none" stroke="midnightblue" d="M66.63,-72.61C82.31,-58.9 106.07,-40.57 130.35,-31.04 240.8,12.29 278.92,1.24 396.7,-13.04 411.36,-14.82 427.25,-18.43 440.77,-22.03"/>
<polygon fill="midnightblue" stroke="midnightblue" points="63.89,-70.37 58.8,-79.67 68.57,-75.57 63.89,-70.37"/>
</g>
<!-- Node2&#45;&gt;Node3 -->
<g id="edge2" class="edge">
<title>Node2&#45;&gt;Node3</title>
<path fill="none" stroke="midnightblue" d="M243.43,-179.59C255.11,-178.1 267.35,-176.54 278.91,-175.07"/>
<polygon fill="midnightblue" stroke="midnightblue" points="242.82,-176.14 233.34,-180.88 243.7,-183.08 242.82,-176.14"/>
</g>
<!-- Node4&#45;&gt;Node5 -->
<g id="edge5" class="edge">
<title>Node4&#45;&gt;Node5</title>
<path fill="none" stroke="midnightblue" d="M233.03,-83.62C253.35,-88.94 276.68,-95.04 295.8,-100.03"/>
<polygon fill="midnightblue" stroke="midnightblue" points="233.89,-80.23 223.33,-81.09 232.11,-87 233.89,-80.23"/>
</g>
<!-- Node4&#45;&gt;Node6 -->
<g id="edge6" class="edge">
<title>Node4&#45;&gt;Node6</title>
<path fill="none" stroke="midnightblue" d="M233.1,-58.44C253.59,-53.09 277.12,-46.94 296.32,-41.92"/>
<polygon fill="midnightblue" stroke="midnightblue" points="232.11,-55.08 223.33,-61 233.89,-61.86 232.11,-55.08"/>
</g>
<!-- Node4&#45;&gt;Node7 -->
<g id="edge10" class="edge">
<title>Node4&#45;&gt;Node7</title>
<path fill="none" stroke="midnightblue" d="M248.03,-68.1C290.33,-65.46 347.14,-60.63 396.7,-52.04 411.02,-49.56 426.58,-45.75 439.95,-42.12"/>
<polygon fill="midnightblue" stroke="midnightblue" points="247.65,-64.61 237.88,-68.71 248.07,-71.6 247.65,-64.61"/>
</g>
<!-- Node6&#45;&gt;Node7 -->
<g id="edge7" class="edge">
<title>Node6&#45;&gt;Node7</title>
<path fill="none" stroke="midnightblue" d="M383.85,-32.04C399.65,-32.04 417.1,-32.04 432.39,-32.04"/>
<polygon fill="midnightblue" stroke="midnightblue" points="383.74,-28.54 373.74,-32.04 383.74,-35.54 383.74,-28.54"/>
</g>
<!-- Node8 -->
<g id="node8" class="node">
<title>Node8</title>
<g id="a_node8"><a xlink:href="../../da/d05/classrTwoSDF.html" target="_top" xlink:title=" ">
<polygon fill="white" stroke="black" points="553.04,-22.04 553.04,-42.04 611.26,-42.04 611.26,-22.04 553.04,-22.04"/>
<text text-anchor="middle" x="582.15" y="-29.04" font-family="Helvetica,sans-Serif" font-size="10.00">rTwoSDF</text>
</a>
</g>
</g>
<!-- Node7&#45;&gt;Node8 -->
<g id="edge8" class="edge">
<title>Node7&#45;&gt;Node8</title>
<path fill="none" stroke="midnightblue" d="M527.43,-32.04C536.22,-32.04 545.05,-32.04 552.95,-32.04"/>
<polygon fill="midnightblue" stroke="midnightblue" points="527.18,-28.54 517.18,-32.04 527.18,-35.54 527.18,-28.54"/>
</g>
<!-- Node9 -->
<g id="node9" class="node">
<title>Node9</title>
<g id="a_node9"><a xlink:href="../../d0/d99/classtb__rTwoSDF.html" target="_top" xlink:title=" ">
<polygon fill="white" stroke="black" points="647.26,-22.04 647.26,-42.04 719.37,-42.04 719.37,-22.04 647.26,-22.04"/>
<text text-anchor="middle" x="683.31" y="-29.04" font-family="Helvetica,sans-Serif" font-size="10.00">tb_rTwoSDF</text>
</a>
</g>
</g>
<!-- Node8&#45;&gt;Node9 -->
<g id="edge9" class="edge">
<title>Node8&#45;&gt;Node9</title>
<path fill="none" stroke="midnightblue" d="M621.31,-32.04C629.76,-32.04 638.68,-32.04 647.01,-32.04"/>
<polygon fill="midnightblue" stroke="midnightblue" points="621.3,-28.54 611.3,-32.04 621.3,-35.54 621.3,-28.54"/>
</g>
</g>
</svg>
        <g id="navigator" transform="translate(0 0)" fill="#404254">
                <rect fill="#f2f5e9" fill-opacity="0.5" stroke="#606060" stroke-width=".5" x="0" y="0" width="60" height="60"/>
                <use id="zoomplus" xlink:href="#zoomPlus" x="17" y="9" onmousedown="handleZoom(evt,'in')"/>
                <use id="zoomminus" xlink:href="#zoomMin" x="42" y="9" onmousedown="handleZoom(evt,'out')"/>
                <use id="reset" xlink:href="#resetDef" x="30" y="36" onmousedown="handleReset()"/>
                <g id="arrowUp" xlink:href="#dirArrow" transform="translate(30 24)" onmousedown="handlePan(0,-1)">
                  <use xlink:href="#rim" fill="#404040">
                        <set attributeName="fill" to="#808080" begin="arrowUp.mouseover" end="arrowUp.mouseout"/>
                  </use>
                  <path fill="none" stroke="white" stroke-width="1.5" d="M0,-3.0v7 M-2.5,-0.5L0,-3.0L2.5,-0.5"/>
                </g>
                <g id="arrowRight" xlink:href="#dirArrow" transform="rotate(90) translate(36 -43)" onmousedown="handlePan(1,0)">
                  <use xlink:href="#rim" fill="#404040">
                        <set attributeName="fill" to="#808080" begin="arrowRight.mouseover" end="arrowRight.mouseout"/>
                  </use>
                  <path fill="none" stroke="white" stroke-width="1.5" d="M0,-3.0v7 M-2.5,-0.5L0,-3.0L2.5,-0.5"/>
                </g>
                <g id="arrowDown" xlink:href="#dirArrow" transform="rotate(180) translate(-30 -48)" onmousedown="handlePan(0,1)">
                  <use xlink:href="#rim" fill="#404040">
                        <set attributeName="fill" to="#808080" begin="arrowDown.mouseover" end="arrowDown.mouseout"/>
                  </use>
                  <path fill="none" stroke="white" stroke-width="1.5" d="M0,-3.0v7 M-2.5,-0.5L0,-3.0L2.5,-0.5"/>
                </g>
                <g id="arrowLeft" xlink:href="#dirArrow" transform="rotate(270) translate(-36 17)" onmousedown="handlePan(-1,0)">
                  <use xlink:href="#rim" fill="#404040">
                        <set attributeName="fill" to="#808080" begin="arrowLeft.mouseover" end="arrowLeft.mouseout"/>
                  </use>
                  <path fill="none" stroke="white" stroke-width="1.5" d="M0,-3.0v7 M-2.5,-0.5L0,-3.0L2.5,-0.5"/>
                </g>
        </g>
        <svg viewBox="0 0 15 15" width="100%" height="30px" preserveAspectRatio="xMaxYMin meet">
         <g id="arrow_out" transform="scale(0.3 0.3)">
          <a xlink:href="classcommon__pipeline__inherit__graph_org.svg" target="_base">
           <rect id="button" ry="5" rx="5" y="6" x="6" height="38" width="38"
                fill="#f2f5e9" fill-opacity="0.5" stroke="#606060" stroke-width="1.0"/>
           <path id="arrow"
             d="M 11.500037,31.436501 C 11.940474,20.09759 22.043105,11.32322 32.158766,21.979434 L 37.068811,17.246167 C 37.068811,17.246167 37.088388,32 37.088388,32 L 22.160133,31.978069 C 22.160133,31.978069 26.997745,27.140456 26.997745,27.140456 C 18.528582,18.264221 13.291696,25.230495 11.500037,31.436501 z"
             style="fill:#404040;"/>
          </a>
         </g>
        </svg>
</svg>
