<?xml version="1.0" encoding="UTF-8" standalone="no"?>
<!DOCTYPE svg PUBLIC "-//W3C//DTD SVG 1.1//EN"
 "http://www.w3.org/Graphics/SVG/1.1/DTD/svg11.dtd">
<!-- Generated by graphviz version 2.44.0 (0)
 -->
<!-- Title: common_add_sub Pages: 1 -->
<svg width="120pt" height="143pt"
 viewBox="0.00 0.00 120.14 143.00" xmlns="http://www.w3.org/2000/svg" xmlns:xlink="http://www.w3.org/1999/xlink">
<g id="graph0" class="graph" transform="scale(1 1) rotate(0) translate(4 139)">
<title>common_add_sub</title>
<polygon fill="white" stroke="transparent" points="-4,4 -4,-139 116.14,-139 116.14,4 -4,4"/>
<!-- Node1 -->
<g id="node1" class="node">
<title>Node1</title>
<g id="a_node1"><a xlink:title="digraph common_add_sub { 	rankdir=&quot;LR&quot;; &#160;node [shape=box, fontname=Helvetica, fontsize=12,...">
<polygon fill="#bfbfbf" stroke="black" points="6.95,-57.5 6.95,-77.5 105.2,-77.5 105.2,-57.5 6.95,-57.5"/>
<text text-anchor="middle" x="56.07" y="-64.5" font-family="Helvetica,sans-Serif" font-size="10.00">common_add_sub</text>
</a>
</g>
</g>
<!-- Node3 -->
<g id="node3" class="node">
<title>Node3</title>
<g id="a_node3"><a xlink:href="../../dc/df9/classcommon__add__sub__tb.html" target="_top" xlink:title=" ">
<polygon fill="white" stroke="black" points="0,-0.5 0,-20.5 112.14,-20.5 112.14,-0.5 0,-0.5"/>
<text text-anchor="middle" x="56.07" y="-7.5" font-family="Helvetica,sans-Serif" font-size="10.00">common_add_sub_tb</text>
</a>
</g>
</g>
<!-- Node1&#45;&gt;Node3 -->
<g id="edge2" class="edge">
<title>Node1&#45;&gt;Node3</title>
<path fill="none" stroke="midnightblue" d="M56.07,-47.38C56.07,-38.37 56.07,-28.04 56.07,-20.78"/>
<polygon fill="midnightblue" stroke="midnightblue" points="52.57,-47.42 56.07,-57.42 59.57,-47.42 52.57,-47.42"/>
</g>
<!-- Node2 -->
<g id="node2" class="node">
<title>Node2</title>
<g id="a_node2"><a xlink:href="../../d3/d5d/classcommon__pipeline.html" target="_top" xlink:title=" ">
<polygon fill="white" stroke="black" points="8.9,-114.5 8.9,-134.5 103.25,-134.5 103.25,-114.5 8.9,-114.5"/>
<text text-anchor="middle" x="56.07" y="-121.5" font-family="Helvetica,sans-Serif" font-size="10.00">common_pipeline</text>
</a>
</g>
</g>
<!-- Node2&#45;&gt;Node1 -->
<g id="edge1" class="edge">
<title>Node2&#45;&gt;Node1</title>
<path fill="none" stroke="midnightblue" d="M56.07,-104.38C56.07,-95.37 56.07,-85.04 56.07,-77.78"/>
<polygon fill="midnightblue" stroke="midnightblue" points="52.57,-104.42 56.07,-114.42 59.57,-104.42 52.57,-104.42"/>
</g>
</g>
</svg>
