<?xml version="1.0" encoding="UTF-8" standalone="no"?>
<!DOCTYPE svg PUBLIC "-//W3C//DTD SVG 1.1//EN"
 "http://www.w3.org/Graphics/SVG/1.1/DTD/svg11.dtd">
<!-- Generated by graphviz version 2.44.0 (0)
 -->
<!-- Title: rTwoOrder Pages: 1 -->
<svg width="169pt" height="200pt"
 viewBox="0.00 0.00 168.89 200.00" xmlns="http://www.w3.org/2000/svg" xmlns:xlink="http://www.w3.org/1999/xlink">
<g id="graph0" class="graph" transform="scale(1 1) rotate(0) translate(4 196)">
<title>rTwoOrder</title>
<polygon fill="white" stroke="transparent" points="-4,4 -4,-196 164.89,-196 164.89,4 -4,4"/>
<!-- Node1 -->
<g id="node1" class="node">
<title>Node1</title>
<g id="a_node1"><a xlink:title=" ">
<polygon fill="#bfbfbf" stroke="black" points="47.17,-114.5 47.17,-134.5 110.94,-134.5 110.94,-114.5 47.17,-114.5"/>
<text text-anchor="middle" x="79.06" y="-121.5" font-family="Helvetica,sans-Serif" font-size="10.00">rTwoOrder</text>
</a>
</g>
</g>
<!-- Node3 -->
<g id="node3" class="node">
<title>Node3</title>
<g id="a_node3"><a xlink:href="../../da/d05/classrTwoSDF.html" target="_top" xlink:title=" ">
<polygon fill="white" stroke="black" points="6.95,-57.5 6.95,-77.5 65.16,-77.5 65.16,-57.5 6.95,-57.5"/>
<text text-anchor="middle" x="36.06" y="-64.5" font-family="Helvetica,sans-Serif" font-size="10.00">rTwoSDF</text>
</a>
</g>
</g>
<!-- Node1&#45;&gt;Node3 -->
<g id="edge2" class="edge">
<title>Node1&#45;&gt;Node3</title>
<path fill="none" stroke="midnightblue" d="M65.71,-106.44C58.32,-96.98 49.42,-85.6 43.31,-77.78"/>
<polygon fill="midnightblue" stroke="midnightblue" points="63.04,-108.7 71.95,-114.42 68.55,-104.38 63.04,-108.7"/>
</g>
<!-- Node5 -->
<g id="node5" class="node">
<title>Node5</title>
<g id="a_node5"><a xlink:href="../../d1/da5/classtb__rTwoOrder.html" target="_top" xlink:title=" ">
<polygon fill="white" stroke="black" points="83.22,-57.5 83.22,-77.5 160.89,-77.5 160.89,-57.5 83.22,-57.5"/>
<text text-anchor="middle" x="122.06" y="-64.5" font-family="Helvetica,sans-Serif" font-size="10.00">tb_rTwoOrder</text>
</a>
</g>
</g>
<!-- Node1&#45;&gt;Node5 -->
<g id="edge4" class="edge">
<title>Node1&#45;&gt;Node5</title>
<path fill="none" stroke="midnightblue" d="M92.4,-106.44C99.79,-96.98 108.69,-85.6 114.8,-77.78"/>
<polygon fill="midnightblue" stroke="midnightblue" points="89.56,-104.38 86.16,-114.42 95.07,-108.7 89.56,-104.38"/>
</g>
<!-- Node2 -->
<g id="node2" class="node">
<title>Node2</title>
<g id="a_node2"><a xlink:href="../../d1/dc3/classcommon__counter.html" target="_top" xlink:title=" ">
<polygon fill="white" stroke="black" points="26.33,-171.5 26.33,-191.5 131.78,-191.5 131.78,-171.5 26.33,-171.5"/>
<text text-anchor="middle" x="79.06" y="-178.5" font-family="Helvetica,sans-Serif" font-size="10.00">common_counter(2)</text>
</a>
</g>
</g>
<!-- Node2&#45;&gt;Node1 -->
<g id="edge1" class="edge">
<title>Node2&#45;&gt;Node1</title>
<path fill="none" stroke="midnightblue" d="M79.06,-161.38C79.06,-152.37 79.06,-142.04 79.06,-134.78"/>
<polygon fill="midnightblue" stroke="midnightblue" points="75.56,-161.42 79.06,-171.42 82.56,-161.42 75.56,-161.42"/>
</g>
<!-- Node4 -->
<g id="node4" class="node">
<title>Node4</title>
<g id="a_node4"><a xlink:href="../../d0/d99/classtb__rTwoSDF.html" target="_top" xlink:title=" ">
<polygon fill="white" stroke="black" points="0,-0.5 0,-20.5 72.11,-20.5 72.11,-0.5 0,-0.5"/>
<text text-anchor="middle" x="36.06" y="-7.5" font-family="Helvetica,sans-Serif" font-size="10.00">tb_rTwoSDF</text>
</a>
</g>
</g>
<!-- Node3&#45;&gt;Node4 -->
<g id="edge3" class="edge">
<title>Node3&#45;&gt;Node4</title>
<path fill="none" stroke="midnightblue" d="M36.06,-47.38C36.06,-38.37 36.06,-28.04 36.06,-20.78"/>
<polygon fill="midnightblue" stroke="midnightblue" points="32.56,-47.42 36.06,-57.42 39.56,-47.42 32.56,-47.42"/>
</g>
</g>
</svg>
