<?xml version="1.0" encoding="UTF-8" standalone="no"?>
<!DOCTYPE svg PUBLIC "-//W3C//DTD SVG 1.1//EN"
 "http://www.w3.org/Graphics/SVG/1.1/DTD/svg11.dtd">
<!-- Generated by graphviz version 2.44.0 (0)
 -->
<!-- Title: rTwoBF Pages: 1 -->
<svg width="104pt" height="314pt"
 viewBox="0.00 0.00 104.01 314.00" xmlns="http://www.w3.org/2000/svg" xmlns:xlink="http://www.w3.org/1999/xlink">
<g id="graph0" class="graph" transform="scale(1 1) rotate(0) translate(4 310)">
<title>rTwoBF</title>
<polygon fill="white" stroke="transparent" points="-4,4 -4,-310 100.01,-310 100.01,4 -4,4"/>
<!-- Node1 -->
<g id="node1" class="node">
<title>Node1</title>
<g id="a_node1"><a xlink:title="digraph rTwoBF { 	rankdir=&quot;LR&quot;; &#160;node [shape=box, fontname=Helvetica, fontsize=12,...">
<polygon fill="#bfbfbf" stroke="black" points="22.51,-228.5 22.51,-248.5 73.5,-248.5 73.5,-228.5 22.51,-228.5"/>
<text text-anchor="middle" x="48" y="-235.5" font-family="Helvetica,sans-Serif" font-size="10.00">rTwoBF</text>
</a>
</g>
</g>
<!-- Node3 -->
<g id="node3" class="node">
<title>Node3</title>
<g id="a_node3"><a xlink:href="../../dd/dc9/classrTwoBFStage.html" target="_top" xlink:title=" ">
<polygon fill="white" stroke="black" points="9.44,-171.5 9.44,-191.5 86.56,-191.5 86.56,-171.5 9.44,-171.5"/>
<text text-anchor="middle" x="48" y="-178.5" font-family="Helvetica,sans-Serif" font-size="10.00">rTwoBFStage</text>
</a>
</g>
</g>
<!-- Node1&#45;&gt;Node3 -->
<g id="edge2" class="edge">
<title>Node1&#45;&gt;Node3</title>
<path fill="none" stroke="midnightblue" d="M48,-218.38C48,-209.37 48,-199.04 48,-191.78"/>
<polygon fill="midnightblue" stroke="midnightblue" points="44.5,-218.42 48,-228.42 51.5,-218.42 44.5,-218.42"/>
</g>
<!-- Node2 -->
<g id="node2" class="node">
<title>Node2</title>
<g id="a_node2"><a xlink:href="../../d6/ddb/classcommon__delay.html" target="_top" xlink:title=" ">
<polygon fill="white" stroke="black" points="0,-285.5 0,-305.5 96.01,-305.5 96.01,-285.5 0,-285.5"/>
<text text-anchor="middle" x="48" y="-292.5" font-family="Helvetica,sans-Serif" font-size="10.00">common_delay(2)</text>
</a>
</g>
</g>
<!-- Node2&#45;&gt;Node1 -->
<g id="edge1" class="edge">
<title>Node2&#45;&gt;Node1</title>
<path fill="none" stroke="midnightblue" d="M48,-275.38C48,-266.37 48,-256.04 48,-248.78"/>
<polygon fill="midnightblue" stroke="midnightblue" points="44.5,-275.42 48,-285.42 51.5,-275.42 44.5,-275.42"/>
</g>
<!-- Node4 -->
<g id="node4" class="node">
<title>Node4</title>
<g id="a_node4"><a xlink:href="../../d3/da3/classrTwoSDFStage.html" target="_top" xlink:title=" ">
<polygon fill="white" stroke="black" points="5.83,-114.5 5.83,-134.5 90.17,-134.5 90.17,-114.5 5.83,-114.5"/>
<text text-anchor="middle" x="48" y="-121.5" font-family="Helvetica,sans-Serif" font-size="10.00">rTwoSDFStage</text>
</a>
</g>
</g>
<!-- Node3&#45;&gt;Node4 -->
<g id="edge3" class="edge">
<title>Node3&#45;&gt;Node4</title>
<path fill="none" stroke="midnightblue" d="M48,-161.38C48,-152.37 48,-142.04 48,-134.78"/>
<polygon fill="midnightblue" stroke="midnightblue" points="44.5,-161.42 48,-171.42 51.5,-161.42 44.5,-161.42"/>
</g>
<!-- Node5 -->
<g id="node5" class="node">
<title>Node5</title>
<g id="a_node5"><a xlink:href="../../da/d05/classrTwoSDF.html" target="_top" xlink:title=" ">
<polygon fill="white" stroke="black" points="18.9,-57.5 18.9,-77.5 77.11,-77.5 77.11,-57.5 18.9,-57.5"/>
<text text-anchor="middle" x="48" y="-64.5" font-family="Helvetica,sans-Serif" font-size="10.00">rTwoSDF</text>
</a>
</g>
</g>
<!-- Node4&#45;&gt;Node5 -->
<g id="edge4" class="edge">
<title>Node4&#45;&gt;Node5</title>
<path fill="none" stroke="midnightblue" d="M48,-104.38C48,-95.37 48,-85.04 48,-77.78"/>
<polygon fill="midnightblue" stroke="midnightblue" points="44.5,-104.42 48,-114.42 51.5,-104.42 44.5,-104.42"/>
</g>
<!-- Node6 -->
<g id="node6" class="node">
<title>Node6</title>
<g id="a_node6"><a xlink:href="../../d0/d99/classtb__rTwoSDF.html" target="_top" xlink:title=" ">
<polygon fill="white" stroke="black" points="11.95,-0.5 11.95,-20.5 84.06,-20.5 84.06,-0.5 11.95,-0.5"/>
<text text-anchor="middle" x="48" y="-7.5" font-family="Helvetica,sans-Serif" font-size="10.00">tb_rTwoSDF</text>
</a>
</g>
</g>
<!-- Node5&#45;&gt;Node6 -->
<g id="edge5" class="edge">
<title>Node5&#45;&gt;Node6</title>
<path fill="none" stroke="midnightblue" d="M48,-47.38C48,-38.37 48,-28.04 48,-20.78"/>
<polygon fill="midnightblue" stroke="midnightblue" points="44.5,-47.42 48,-57.42 51.5,-47.42 44.5,-47.42"/>
</g>
</g>
</svg>
