<?xml version="1.0" encoding="UTF-8" standalone="no"?>
<!DOCTYPE svg PUBLIC "-//W3C//DTD SVG 1.1//EN"
 "http://www.w3.org/Graphics/SVG/1.1/DTD/svg11.dtd">
<!-- Generated by graphviz version 2.44.0 (0)
 -->
<!-- Title: common_add_sub_tb_tb Pages: 1 -->
<svg width="134pt" height="143pt"
 viewBox="0.00 0.00 134.04 143.00" xmlns="http://www.w3.org/2000/svg" xmlns:xlink="http://www.w3.org/1999/xlink">
<g id="graph0" class="graph" transform="scale(1 1) rotate(0) translate(4 139)">
<title>common_add_sub_tb_tb</title>
<polygon fill="white" stroke="transparent" points="-4,4 -4,-139 130.04,-139 130.04,4 -4,4"/>
<!-- Node1 -->
<g id="node1" class="node">
<title>Node1</title>
<g id="a_node1"><a xlink:title=" ">
<polygon fill="#bfbfbf" stroke="black" points="0,-0.5 0,-20.5 126.04,-20.5 126.04,-0.5 0,-0.5"/>
<text text-anchor="middle" x="63.02" y="-7.5" font-family="Helvetica,sans-Serif" font-size="10.00">common_add_sub_tb_tb</text>
</a>
</g>
</g>
<!-- Node2 -->
<g id="node2" class="node">
<title>Node2</title>
<g id="a_node2"><a xlink:href="../../dc/df9/classcommon__add__sub__tb.html" target="_top" xlink:title=" ">
<polygon fill="white" stroke="black" points="0.84,-57.5 0.84,-77.5 125.2,-77.5 125.2,-57.5 0.84,-57.5"/>
<text text-anchor="middle" x="63.02" y="-64.5" font-family="Helvetica,sans-Serif" font-size="10.00">common_add_sub_tb(8)</text>
</a>
</g>
</g>
<!-- Node2&#45;&gt;Node1 -->
<g id="edge1" class="edge">
<title>Node2&#45;&gt;Node1</title>
<path fill="none" stroke="midnightblue" d="M63.02,-47.38C63.02,-38.37 63.02,-28.04 63.02,-20.78"/>
<polygon fill="midnightblue" stroke="midnightblue" points="59.52,-47.42 63.02,-57.42 66.52,-47.42 59.52,-47.42"/>
</g>
<!-- Node3 -->
<g id="node3" class="node">
<title>Node3</title>
<g id="a_node3"><a xlink:href="../../de/d7e/classcommon__add__sub.html" target="_top" xlink:title="digraph example { &#160;node [shape=record, fontname=Helvetica, fontsize=10,color=&quot;black&quot;]; &#160;DataExtract [...">
<polygon fill="white" stroke="black" points="13.9,-114.5 13.9,-134.5 112.14,-134.5 112.14,-114.5 13.9,-114.5"/>
<text text-anchor="middle" x="63.02" y="-121.5" font-family="Helvetica,sans-Serif" font-size="10.00">common_add_sub</text>
</a>
</g>
</g>
<!-- Node3&#45;&gt;Node2 -->
<g id="edge2" class="edge">
<title>Node3&#45;&gt;Node2</title>
<path fill="none" stroke="midnightblue" d="M63.02,-104.38C63.02,-95.37 63.02,-85.04 63.02,-77.78"/>
<polygon fill="midnightblue" stroke="midnightblue" points="59.52,-104.42 63.02,-114.42 66.52,-104.42 59.52,-104.42"/>
</g>
</g>
</svg>
