<?xml version="1.0" encoding="UTF-8" standalone="no"?>
<!DOCTYPE svg PUBLIC "-//W3C//DTD SVG 1.1//EN"
 "http://www.w3.org/Graphics/SVG/1.1/DTD/svg11.dtd">
<!-- Generated by graphviz version 2.44.0 (0)
 -->
<!-- Title: rTwoWeights Pages: 1 -->
<svg width="92pt" height="200pt"
 viewBox="0.00 0.00 92.34 200.00" xmlns="http://www.w3.org/2000/svg" xmlns:xlink="http://www.w3.org/1999/xlink">
<g id="graph0" class="graph" transform="scale(1 1) rotate(0) translate(4 196)">
<title>rTwoWeights</title>
<polygon fill="white" stroke="transparent" points="-4,4 -4,-196 88.34,-196 88.34,4 -4,4"/>
<!-- Node1 -->
<g id="node1" class="node">
<title>Node1</title>
<g id="a_node1"><a xlink:title=" ">
<polygon fill="#bfbfbf" stroke="black" points="5,-171.5 5,-191.5 79.33,-191.5 79.33,-171.5 5,-171.5"/>
<text text-anchor="middle" x="42.17" y="-178.5" font-family="Helvetica,sans-Serif" font-size="10.00">rTwoWeights</text>
</a>
</g>
</g>
<!-- Node2 -->
<g id="node2" class="node">
<title>Node2</title>
<g id="a_node2"><a xlink:href="../../d3/da3/classrTwoSDFStage.html" target="_top" xlink:title=" ">
<polygon fill="white" stroke="black" points="0,-114.5 0,-134.5 84.34,-134.5 84.34,-114.5 0,-114.5"/>
<text text-anchor="middle" x="42.17" y="-121.5" font-family="Helvetica,sans-Serif" font-size="10.00">rTwoSDFStage</text>
</a>
</g>
</g>
<!-- Node1&#45;&gt;Node2 -->
<g id="edge1" class="edge">
<title>Node1&#45;&gt;Node2</title>
<path fill="none" stroke="midnightblue" d="M42.17,-161.38C42.17,-152.37 42.17,-142.04 42.17,-134.78"/>
<polygon fill="midnightblue" stroke="midnightblue" points="38.67,-161.42 42.17,-171.42 45.67,-161.42 38.67,-161.42"/>
</g>
<!-- Node3 -->
<g id="node3" class="node">
<title>Node3</title>
<g id="a_node3"><a xlink:href="../../da/d05/classrTwoSDF.html" target="_top" xlink:title=" ">
<polygon fill="white" stroke="black" points="13.06,-57.5 13.06,-77.5 71.28,-77.5 71.28,-57.5 13.06,-57.5"/>
<text text-anchor="middle" x="42.17" y="-64.5" font-family="Helvetica,sans-Serif" font-size="10.00">rTwoSDF</text>
</a>
</g>
</g>
<!-- Node2&#45;&gt;Node3 -->
<g id="edge2" class="edge">
<title>Node2&#45;&gt;Node3</title>
<path fill="none" stroke="midnightblue" d="M42.17,-104.38C42.17,-95.37 42.17,-85.04 42.17,-77.78"/>
<polygon fill="midnightblue" stroke="midnightblue" points="38.67,-104.42 42.17,-114.42 45.67,-104.42 38.67,-104.42"/>
</g>
<!-- Node4 -->
<g id="node4" class="node">
<title>Node4</title>
<g id="a_node4"><a xlink:href="../../d0/d99/classtb__rTwoSDF.html" target="_top" xlink:title=" ">
<polygon fill="white" stroke="black" points="6.11,-0.5 6.11,-20.5 78.22,-20.5 78.22,-0.5 6.11,-0.5"/>
<text text-anchor="middle" x="42.17" y="-7.5" font-family="Helvetica,sans-Serif" font-size="10.00">tb_rTwoSDF</text>
</a>
</g>
</g>
<!-- Node3&#45;&gt;Node4 -->
<g id="edge3" class="edge">
<title>Node3&#45;&gt;Node4</title>
<path fill="none" stroke="midnightblue" d="M42.17,-47.38C42.17,-38.37 42.17,-28.04 42.17,-20.78"/>
<polygon fill="midnightblue" stroke="midnightblue" points="38.67,-47.42 42.17,-57.42 45.67,-47.42 38.67,-47.42"/>
</g>
</g>
</svg>
