<?xml version="1.0" encoding="UTF-8" standalone="no"?>
<!DOCTYPE svg PUBLIC "-//W3C//DTD SVG 1.1//EN"
 "http://www.w3.org/Graphics/SVG/1.1/DTD/svg11.dtd">
<!-- Generated by graphviz version 2.44.0 (0)
 -->
<!-- Title: rTwoWMul Pages: 1 -->
<svg width="252pt" height="143pt"
 viewBox="0.00 0.00 251.95 143.00" xmlns="http://www.w3.org/2000/svg" xmlns:xlink="http://www.w3.org/1999/xlink">
<g id="graph0" class="graph" transform="scale(1 1) rotate(0) translate(4 139)">
<title>rTwoWMul</title>
<polygon fill="white" stroke="transparent" points="-4,4 -4,-139 247.95,-139 247.95,4 -4,4"/>
<!-- Node1 -->
<g id="node1" class="node">
<title>Node1</title>
<g id="a_node1"><a xlink:title=" ">
<polygon fill="#bfbfbf" stroke="black" points="86.4,-0.5 86.4,-20.5 150.16,-20.5 150.16,-0.5 86.4,-0.5"/>
<text text-anchor="middle" x="118.28" y="-7.5" font-family="Helvetica,sans-Serif" font-size="10.00">rTwoWMul</text>
</a>
</g>
</g>
<!-- Node2 -->
<g id="node2" class="node">
<title>Node2</title>
<g id="a_node2"><a xlink:href="../../d3/d5d/classcommon__pipeline.html" target="_top" xlink:title=" ">
<polygon fill="white" stroke="black" points="0,-57.5 0,-77.5 106.56,-77.5 106.56,-57.5 0,-57.5"/>
<text text-anchor="middle" x="53.28" y="-64.5" font-family="Helvetica,sans-Serif" font-size="10.00">common_pipeline(2)</text>
</a>
</g>
</g>
<!-- Node2&#45;&gt;Node1 -->
<g id="edge1" class="edge">
<title>Node2&#45;&gt;Node1</title>
<path fill="none" stroke="midnightblue" d="M71.76,-50.87C83.24,-41.15 97.61,-28.99 107.31,-20.78"/>
<polygon fill="midnightblue" stroke="midnightblue" points="69.39,-48.29 64.01,-57.42 73.91,-53.63 69.39,-48.29"/>
</g>
<!-- Node3 -->
<g id="node3" class="node">
<title>Node3</title>
<g id="a_node3"><a xlink:href="../../d5/dc5/classcommon__pipeline__sl.html" target="_top" xlink:title=" ">
<polygon fill="white" stroke="black" points="124.61,-57.5 124.61,-77.5 243.95,-77.5 243.95,-57.5 124.61,-57.5"/>
<text text-anchor="middle" x="184.28" y="-64.5" font-family="Helvetica,sans-Serif" font-size="10.00">common_pipeline_sl(2)</text>
</a>
</g>
</g>
<!-- Node3&#45;&gt;Node1 -->
<g id="edge2" class="edge">
<title>Node3&#45;&gt;Node1</title>
<path fill="none" stroke="midnightblue" d="M165.52,-50.87C153.87,-41.15 139.27,-28.99 129.42,-20.78"/>
<polygon fill="midnightblue" stroke="midnightblue" points="163.46,-53.7 173.38,-57.42 167.94,-48.33 163.46,-53.7"/>
</g>
<!-- Node4 -->
<g id="node4" class="node">
<title>Node4</title>
<g id="a_node4"><a xlink:href="../../d3/d5d/classcommon__pipeline.html" target="_top" xlink:title=" ">
<polygon fill="white" stroke="black" points="137.11,-114.5 137.11,-134.5 231.45,-134.5 231.45,-114.5 137.11,-114.5"/>
<text text-anchor="middle" x="184.28" y="-121.5" font-family="Helvetica,sans-Serif" font-size="10.00">common_pipeline</text>
</a>
</g>
</g>
<!-- Node4&#45;&gt;Node3 -->
<g id="edge3" class="edge">
<title>Node4&#45;&gt;Node3</title>
<path fill="none" stroke="midnightblue" d="M184.28,-104.38C184.28,-95.37 184.28,-85.04 184.28,-77.78"/>
<polygon fill="midnightblue" stroke="midnightblue" points="180.78,-104.42 184.28,-114.42 187.78,-104.42 180.78,-104.42"/>
</g>
</g>
</svg>
