<?xml version="1.0" encoding="UTF-8" standalone="no"?>
<!DOCTYPE svg PUBLIC "-//W3C//DTD SVG 1.1//EN"
 "http://www.w3.org/Graphics/SVG/1.1/DTD/svg11.dtd">
<!-- Generated by graphviz version 2.44.0 (0)
 -->
<!-- Title: common_pipeline_sl Pages: 1 -->
<svg width="263pt" height="314pt"
 viewBox="0.00 0.00 262.79 314.00" xmlns="http://www.w3.org/2000/svg" xmlns:xlink="http://www.w3.org/1999/xlink">
<g id="graph0" class="graph" transform="scale(1 1) rotate(0) translate(4 310)">
<title>common_pipeline_sl</title>
<polygon fill="white" stroke="transparent" points="-4,4 -4,-310 258.79,-310 258.79,4 -4,4"/>
<!-- Node1 -->
<g id="node1" class="node">
<title>Node1</title>
<g id="a_node1"><a xlink:title=" ">
<polygon fill="#bfbfbf" stroke="black" points="126.06,-228.5 126.06,-248.5 233.18,-248.5 233.18,-228.5 126.06,-228.5"/>
<text text-anchor="middle" x="179.62" y="-235.5" font-family="Helvetica,sans-Serif" font-size="10.00">common_pipeline_sl</text>
</a>
</g>
</g>
<!-- Node3 -->
<g id="node3" class="node">
<title>Node3</title>
<g id="a_node3"><a xlink:href="../../dd/d43/classcommon__select__symbol.html" target="_top" xlink:title=" ">
<polygon fill="white" stroke="black" points="0,-171.5 0,-191.5 123.23,-191.5 123.23,-171.5 0,-171.5"/>
<text text-anchor="middle" x="61.62" y="-178.5" font-family="Helvetica,sans-Serif" font-size="10.00">common_select_symbol</text>
</a>
</g>
</g>
<!-- Node1&#45;&gt;Node3 -->
<g id="edge2" class="edge">
<title>Node1&#45;&gt;Node3</title>
<path fill="none" stroke="midnightblue" d="M151.07,-224.19C129.4,-214.09 100.19,-200.48 81.13,-191.6"/>
<polygon fill="midnightblue" stroke="midnightblue" points="149.59,-227.37 160.13,-228.42 152.55,-221.02 149.59,-227.37"/>
</g>
<!-- Node4 -->
<g id="node4" class="node">
<title>Node4</title>
<g id="a_node4"><a xlink:href="../../dd/dc9/classrTwoBFStage.html" target="_top" xlink:title=" ">
<polygon fill="white" stroke="black" points="141.06,-171.5 141.06,-191.5 218.18,-191.5 218.18,-171.5 141.06,-171.5"/>
<text text-anchor="middle" x="179.62" y="-178.5" font-family="Helvetica,sans-Serif" font-size="10.00">rTwoBFStage</text>
</a>
</g>
</g>
<!-- Node1&#45;&gt;Node4 -->
<g id="edge3" class="edge">
<title>Node1&#45;&gt;Node4</title>
<path fill="none" stroke="midnightblue" d="M179.62,-218.38C179.62,-209.37 179.62,-199.04 179.62,-191.78"/>
<polygon fill="midnightblue" stroke="midnightblue" points="176.12,-218.42 179.62,-228.42 183.12,-218.42 176.12,-218.42"/>
</g>
<!-- Node5 -->
<g id="node5" class="node">
<title>Node5</title>
<g id="a_node5"><a xlink:href="../../d3/da3/classrTwoSDFStage.html" target="_top" xlink:title=" ">
<polygon fill="white" stroke="black" points="170.45,-114.5 170.45,-134.5 254.79,-134.5 254.79,-114.5 170.45,-114.5"/>
<text text-anchor="middle" x="212.62" y="-121.5" font-family="Helvetica,sans-Serif" font-size="10.00">rTwoSDFStage</text>
</a>
</g>
</g>
<!-- Node1&#45;&gt;Node5 -->
<g id="edge7" class="edge">
<title>Node1&#45;&gt;Node5</title>
<path fill="none" stroke="midnightblue" d="M202.65,-222.23C212.28,-214.45 222.43,-204.07 227.62,-192 235.94,-172.65 225.44,-148.06 218.26,-134.87"/>
<polygon fill="midnightblue" stroke="midnightblue" points="200.35,-219.57 194.45,-228.37 204.55,-225.17 200.35,-219.57"/>
</g>
<!-- Node2 -->
<g id="node2" class="node">
<title>Node2</title>
<g id="a_node2"><a xlink:href="../../d3/d5d/classcommon__pipeline.html" target="_top" xlink:title=" ">
<polygon fill="white" stroke="black" points="132.44,-285.5 132.44,-305.5 226.79,-305.5 226.79,-285.5 132.44,-285.5"/>
<text text-anchor="middle" x="179.62" y="-292.5" font-family="Helvetica,sans-Serif" font-size="10.00">common_pipeline</text>
</a>
</g>
</g>
<!-- Node2&#45;&gt;Node1 -->
<g id="edge1" class="edge">
<title>Node2&#45;&gt;Node1</title>
<path fill="none" stroke="midnightblue" d="M179.62,-275.38C179.62,-266.37 179.62,-256.04 179.62,-248.78"/>
<polygon fill="midnightblue" stroke="midnightblue" points="176.12,-275.42 179.62,-285.42 183.12,-275.42 176.12,-275.42"/>
</g>
<!-- Node4&#45;&gt;Node5 -->
<g id="edge4" class="edge">
<title>Node4&#45;&gt;Node5</title>
<path fill="none" stroke="midnightblue" d="M190.38,-162.56C195.94,-153.29 202.5,-142.36 207.05,-134.78"/>
<polygon fill="midnightblue" stroke="midnightblue" points="187.21,-161.04 185.07,-171.42 193.21,-164.64 187.21,-161.04"/>
</g>
<!-- Node6 -->
<g id="node6" class="node">
<title>Node6</title>
<g id="a_node6"><a xlink:href="../../da/d05/classrTwoSDF.html" target="_top" xlink:title=" ">
<polygon fill="white" stroke="black" points="183.51,-57.5 183.51,-77.5 241.72,-77.5 241.72,-57.5 183.51,-57.5"/>
<text text-anchor="middle" x="212.62" y="-64.5" font-family="Helvetica,sans-Serif" font-size="10.00">rTwoSDF</text>
</a>
</g>
</g>
<!-- Node5&#45;&gt;Node6 -->
<g id="edge5" class="edge">
<title>Node5&#45;&gt;Node6</title>
<path fill="none" stroke="midnightblue" d="M212.62,-104.38C212.62,-95.37 212.62,-85.04 212.62,-77.78"/>
<polygon fill="midnightblue" stroke="midnightblue" points="209.12,-104.42 212.62,-114.42 216.12,-104.42 209.12,-104.42"/>
</g>
<!-- Node7 -->
<g id="node7" class="node">
<title>Node7</title>
<g id="a_node7"><a xlink:href="../../d0/d99/classtb__rTwoSDF.html" target="_top" xlink:title=" ">
<polygon fill="white" stroke="black" points="176.56,-0.5 176.56,-20.5 248.67,-20.5 248.67,-0.5 176.56,-0.5"/>
<text text-anchor="middle" x="212.62" y="-7.5" font-family="Helvetica,sans-Serif" font-size="10.00">tb_rTwoSDF</text>
</a>
</g>
</g>
<!-- Node6&#45;&gt;Node7 -->
<g id="edge6" class="edge">
<title>Node6&#45;&gt;Node7</title>
<path fill="none" stroke="midnightblue" d="M212.62,-47.38C212.62,-38.37 212.62,-28.04 212.62,-20.78"/>
<polygon fill="midnightblue" stroke="midnightblue" points="209.12,-47.42 212.62,-57.42 216.12,-47.42 209.12,-47.42"/>
</g>
</g>
</svg>
