<?xml version="1.0" encoding="UTF-8" standalone="no"?>
<!DOCTYPE svg PUBLIC "-//W3C//DTD SVG 1.1//EN"
 "http://www.w3.org/Graphics/SVG/1.1/DTD/svg11.dtd">
<!-- Generated by graphviz version 2.44.0 (0)
 -->
<!-- Title: rTwoBF Pages: 1 -->
<svg width="246pt" height="260pt"
 viewBox="0.00 0.00 245.99 260.00" xmlns="http://www.w3.org/2000/svg" xmlns:xlink="http://www.w3.org/1999/xlink">
<g id="graph0" class="graph" transform="scale(1 1) rotate(0) translate(4 256)">
<title>rTwoBF</title>
<polygon fill="white" stroke="transparent" points="-4,4 -4,-256 241.99,-256 241.99,4 -4,4"/>
<!-- rTwoBF -->
<g id="node1" class="node">
<title>rTwoBF</title>
<polygon fill="none" stroke="black" points="147.99,-144 90,-144 90,-108 147.99,-108 147.99,-144"/>
<text text-anchor="middle" x="119" y="-122.4" font-family="Helvetica,sans-Serif" font-size="12.00">rTwoBF</text>
</g>
<!-- out_c -->
<g id="node7" class="node">
<title>out_c</title>
<text text-anchor="middle" x="210.99" y="-149.4" font-family="Helvetica,sans-Serif" font-size="12.00">out_c</text>
</g>
<!-- rTwoBF&#45;&gt;out_c -->
<g id="edge6" class="edge">
<title>rTwoBF&#45;&gt;out_c</title>
<path fill="none" stroke="black" d="M148.47,-134.54C156.61,-136.99 165.6,-139.68 174.12,-142.24"/>
<polygon fill="black" stroke="black" points="173.26,-145.63 183.84,-145.15 175.27,-138.93 173.26,-145.63"/>
</g>
<!-- out_d -->
<g id="node8" class="node">
<title>out_d</title>
<text text-anchor="middle" x="210.99" y="-95.4" font-family="Helvetica,sans-Serif" font-size="12.00">out_d</text>
</g>
<!-- rTwoBF&#45;&gt;out_d -->
<g id="edge7" class="edge">
<title>rTwoBF&#45;&gt;out_d</title>
<path fill="none" stroke="black" d="M148.47,-117.46C156.61,-115.01 165.6,-112.32 174.12,-109.76"/>
<polygon fill="black" stroke="black" points="175.27,-113.07 183.84,-106.85 173.26,-106.37 175.27,-113.07"/>
</g>
<!-- clk -->
<g id="node2" class="node">
<title>clk</title>
<text text-anchor="middle" x="27" y="-230.4" font-family="Helvetica,sans-Serif" font-size="12.00">clk</text>
</g>
<!-- clk&#45;&gt;rTwoBF -->
<g id="edge1" class="edge">
<title>clk&#45;&gt;rTwoBF</title>
<path fill="none" stroke="black" d="M45.87,-215.93C48.64,-212.99 51.43,-209.94 54,-207 69.56,-189.18 86.08,-168.2 98.44,-152.06"/>
<polygon fill="black" stroke="black" points="101.23,-154.18 104.5,-144.1 95.66,-149.94 101.23,-154.18"/>
</g>
<!-- in_a -->
<g id="node3" class="node">
<title>in_a</title>
<text text-anchor="middle" x="27" y="-176.4" font-family="Helvetica,sans-Serif" font-size="12.00">in_a</text>
</g>
<!-- in_a&#45;&gt;rTwoBF -->
<g id="edge2" class="edge">
<title>in_a&#45;&gt;rTwoBF</title>
<path fill="none" stroke="black" d="M54.03,-164.38C62.44,-159.33 71.93,-153.64 80.98,-148.21"/>
<polygon fill="black" stroke="black" points="83.05,-151.05 89.82,-142.91 79.45,-145.05 83.05,-151.05"/>
</g>
<!-- in_b -->
<g id="node4" class="node">
<title>in_b</title>
<text text-anchor="middle" x="27" y="-122.4" font-family="Helvetica,sans-Serif" font-size="12.00">in_b</text>
</g>
<!-- in_b&#45;&gt;rTwoBF -->
<g id="edge3" class="edge">
<title>in_b&#45;&gt;rTwoBF</title>
<path fill="none" stroke="black" d="M54.03,-126C62,-126 70.95,-126 79.56,-126"/>
<polygon fill="black" stroke="black" points="79.82,-129.5 89.82,-126 79.82,-122.5 79.82,-129.5"/>
</g>
<!-- in_sel -->
<g id="node5" class="node">
<title>in_sel</title>
<text text-anchor="middle" x="27" y="-68.4" font-family="Helvetica,sans-Serif" font-size="12.00">in_sel</text>
</g>
<!-- in_sel&#45;&gt;rTwoBF -->
<g id="edge4" class="edge">
<title>in_sel&#45;&gt;rTwoBF</title>
<path fill="none" stroke="black" d="M54.03,-87.62C62.44,-92.67 71.93,-98.36 80.98,-103.79"/>
<polygon fill="black" stroke="black" points="79.45,-106.95 89.82,-109.09 83.05,-100.95 79.45,-106.95"/>
</g>
<!-- in_val -->
<g id="node6" class="node">
<title>in_val</title>
<text text-anchor="middle" x="27" y="-14.4" font-family="Helvetica,sans-Serif" font-size="12.00">in_val</text>
</g>
<!-- in_val&#45;&gt;rTwoBF -->
<g id="edge5" class="edge">
<title>in_val&#45;&gt;rTwoBF</title>
<path fill="none" stroke="black" d="M45.87,-36.07C48.64,-39.01 51.43,-42.06 54,-45 69.56,-62.82 86.08,-83.8 98.44,-99.94"/>
<polygon fill="black" stroke="black" points="95.66,-102.06 104.5,-107.9 101.23,-97.82 95.66,-102.06"/>
</g>
</g>
</svg>
