<?xml version="1.0" encoding="UTF-8" standalone="no"?>
<!DOCTYPE svg PUBLIC "-//W3C//DTD SVG 1.1//EN"
 "http://www.w3.org/Graphics/SVG/1.1/DTD/svg11.dtd">
<!-- Generated by graphviz version 2.44.0 (0)
 -->
<!-- Title: common_add_sub Pages: 1 -->
<svg width="298pt" height="440pt"
 viewBox="0.00 0.00 298.05 440.00" xmlns="http://www.w3.org/2000/svg" xmlns:xlink="http://www.w3.org/1999/xlink">
<g id="graph0" class="graph" transform="scale(1 1) rotate(0) translate(4 436)">
<title>common_add_sub</title>
<polygon fill="white" stroke="transparent" points="-4,4 -4,-436 294.05,-436 294.05,4 -4,4"/>
<!-- common_add_sub -->
<g id="node1" class="node">
<title>common_add_sub</title>
<polygon fill="none" stroke="black" points="208.56,-252 94.17,-252 94.17,-180 208.56,-180 208.56,-252"/>
<text text-anchor="middle" x="151.37" y="-212.4" font-family="Helvetica,sans-Serif" font-size="12.00">common_add_sub</text>
</g>
<!-- result -->
<g id="node7" class="node">
<title>result</title>
<text text-anchor="middle" x="267.38" y="-212.4" font-family="Helvetica,sans-Serif" font-size="12.00">result</text>
</g>
<!-- common_add_sub&#45;&gt;result -->
<g id="edge6" class="edge">
<title>common_add_sub&#45;&gt;result</title>
<path fill="none" stroke="black" d="M208.71,-216C217.6,-216 226.52,-216 234.59,-216"/>
<polygon fill="black" stroke="black" points="234.64,-219.5 244.64,-216 234.64,-212.5 234.64,-219.5"/>
</g>
<!-- clk -->
<g id="node2" class="node">
<title>clk</title>
<text text-anchor="middle" x="29.01" y="-392.4" font-family="Helvetica,sans-Serif" font-size="12.00">clk</text>
</g>
<!-- clk&#45;&gt;common_add_sub -->
<g id="edge1" class="edge">
<title>clk&#45;&gt;common_add_sub</title>
<path fill="none" stroke="black" d="M47.25,-370.21C66.31,-341.71 97.35,-295.29 120.4,-260.82"/>
<polygon fill="black" stroke="black" points="123.43,-262.59 126.08,-252.33 117.61,-258.69 123.43,-262.59"/>
</g>
<!-- clken -->
<g id="node3" class="node">
<title>clken</title>
<text text-anchor="middle" x="29.01" y="-302.4" font-family="Helvetica,sans-Serif" font-size="12.00">clken</text>
</g>
<!-- clken&#45;&gt;common_add_sub -->
<g id="edge2" class="edge">
<title>clken&#45;&gt;common_add_sub</title>
<path fill="none" stroke="black" d="M51.25,-290.12C63.15,-281.22 78.61,-269.66 93.77,-258.32"/>
<polygon fill="black" stroke="black" points="96.22,-260.86 102.13,-252.07 92.03,-255.25 96.22,-260.86"/>
</g>
<!-- sel_add -->
<g id="node4" class="node">
<title>sel_add</title>
<text text-anchor="middle" x="29.01" y="-212.4" font-family="Helvetica,sans-Serif" font-size="12.00">sel_add</text>
</g>
<!-- sel_add&#45;&gt;common_add_sub -->
<g id="edge3" class="edge">
<title>sel_add&#45;&gt;common_add_sub</title>
<path fill="none" stroke="black" d="M58.23,-216C66,-216 74.78,-216 83.75,-216"/>
<polygon fill="black" stroke="black" points="83.91,-219.5 93.91,-216 83.91,-212.5 83.91,-219.5"/>
</g>
<!-- in_a -->
<g id="node5" class="node">
<title>in_a</title>
<text text-anchor="middle" x="29.01" y="-122.4" font-family="Helvetica,sans-Serif" font-size="12.00">in_a</text>
</g>
<!-- in_a&#45;&gt;common_add_sub -->
<g id="edge4" class="edge">
<title>in_a&#45;&gt;common_add_sub</title>
<path fill="none" stroke="black" d="M48.29,-139.67C60.55,-148.84 77.42,-161.46 93.92,-173.79"/>
<polygon fill="black" stroke="black" points="91.86,-176.62 101.97,-179.81 96.05,-171.02 91.86,-176.62"/>
</g>
<!-- in_b -->
<g id="node6" class="node">
<title>in_b</title>
<text text-anchor="middle" x="29.01" y="-32.4" font-family="Helvetica,sans-Serif" font-size="12.00">in_b</text>
</g>
<!-- in_b&#45;&gt;common_add_sub -->
<g id="edge5" class="edge">
<title>in_b&#45;&gt;common_add_sub</title>
<path fill="none" stroke="black" d="M48.29,-63.34C67.45,-91.99 97.85,-137.46 120.5,-171.33"/>
<polygon fill="black" stroke="black" points="117.61,-173.31 126.08,-179.68 123.43,-169.42 117.61,-173.31"/>
</g>
</g>
</svg>
