<?xml version="1.0" encoding="UTF-8" standalone="no"?>
<!DOCTYPE svg PUBLIC "-//W3C//DTD SVG 1.1//EN"
 "http://www.w3.org/Graphics/SVG/1.1/DTD/svg11.dtd">
<!-- Generated by graphviz version 2.44.0 (0)
 -->
<!-- Title: rTwoSDF Pages: 1 -->
<svg width="255pt" height="260pt"
 viewBox="0.00 0.00 255.34 260.00" xmlns="http://www.w3.org/2000/svg" xmlns:xlink="http://www.w3.org/1999/xlink">
<g id="graph0" class="graph" transform="scale(1 1) rotate(0) translate(4 256)">
<title>rTwoSDF</title>
<polygon fill="white" stroke="transparent" points="-4,4 -4,-256 251.34,-256 251.34,4 -4,4"/>
<!-- rTwoSDF -->
<g id="node1" class="node">
<title>rTwoSDF</title>
<polygon fill="none" stroke="black" points="156.48,-144 90.17,-144 90.17,-108 156.48,-108 156.48,-144"/>
<text text-anchor="middle" x="123.33" y="-122.4" font-family="Helvetica,sans-Serif" font-size="12.00">rTwoSDF</text>
</g>
<!-- out_re -->
<g id="node7" class="node">
<title>out_re</title>
<text text-anchor="middle" x="220" y="-176.4" font-family="Helvetica,sans-Serif" font-size="12.00">out_re</text>
</g>
<!-- rTwoSDF&#45;&gt;out_re -->
<g id="edge6" class="edge">
<title>rTwoSDF&#45;&gt;out_re</title>
<path fill="none" stroke="black" d="M156.11,-144.13C165.06,-149.23 174.83,-154.81 183.96,-160.01"/>
<polygon fill="black" stroke="black" points="182.38,-163.15 192.81,-165.06 185.85,-157.07 182.38,-163.15"/>
</g>
<!-- out_im -->
<g id="node8" class="node">
<title>out_im</title>
<text text-anchor="middle" x="220" y="-122.4" font-family="Helvetica,sans-Serif" font-size="12.00">out_im</text>
</g>
<!-- rTwoSDF&#45;&gt;out_im -->
<g id="edge7" class="edge">
<title>rTwoSDF&#45;&gt;out_im</title>
<path fill="none" stroke="black" d="M156.64,-126C165.02,-126 174.1,-126 182.67,-126"/>
<polygon fill="black" stroke="black" points="182.78,-129.5 192.78,-126 182.78,-122.5 182.78,-129.5"/>
</g>
<!-- out_val -->
<g id="node9" class="node">
<title>out_val</title>
<text text-anchor="middle" x="220" y="-68.4" font-family="Helvetica,sans-Serif" font-size="12.00">out_val</text>
</g>
<!-- rTwoSDF&#45;&gt;out_val -->
<g id="edge8" class="edge">
<title>rTwoSDF&#45;&gt;out_val</title>
<path fill="none" stroke="black" d="M156.11,-107.87C165.06,-102.77 174.83,-97.19 183.96,-91.99"/>
<polygon fill="black" stroke="black" points="185.85,-94.93 192.81,-86.94 182.38,-88.85 185.85,-94.93"/>
</g>
<!-- clk -->
<g id="node2" class="node">
<title>clk</title>
<text text-anchor="middle" x="27" y="-230.4" font-family="Helvetica,sans-Serif" font-size="12.00">clk</text>
</g>
<!-- clk&#45;&gt;rTwoSDF -->
<g id="edge1" class="edge">
<title>clk&#45;&gt;rTwoSDF</title>
<path fill="none" stroke="black" d="M45.79,-215.85C48.57,-212.92 51.39,-209.9 54,-207 70.15,-189.08 87.69,-168.26 100.95,-152.22"/>
<polygon fill="black" stroke="black" points="103.81,-154.25 107.46,-144.31 98.41,-149.8 103.81,-154.25"/>
</g>
<!-- rst -->
<g id="node3" class="node">
<title>rst</title>
<text text-anchor="middle" x="27" y="-176.4" font-family="Helvetica,sans-Serif" font-size="12.00">rst</text>
</g>
<!-- rst&#45;&gt;rTwoSDF -->
<g id="edge5" class="edge">
<title>rst&#45;&gt;rTwoSDF</title>
<path fill="none" stroke="black" d="M54.03,-165.1C62.62,-160.18 72.4,-154.58 81.81,-149.19"/>
<polygon fill="black" stroke="black" points="83.74,-152.12 90.68,-144.12 80.26,-146.05 83.74,-152.12"/>
</g>
<!-- in_re -->
<g id="node4" class="node">
<title>in_re</title>
<text text-anchor="middle" x="27" y="-122.4" font-family="Helvetica,sans-Serif" font-size="12.00">in_re</text>
</g>
<!-- in_re&#45;&gt;rTwoSDF -->
<g id="edge2" class="edge">
<title>in_re&#45;&gt;rTwoSDF</title>
<path fill="none" stroke="black" d="M54.03,-126C62.02,-126 71.04,-126 79.84,-126"/>
<polygon fill="black" stroke="black" points="79.99,-129.5 89.99,-126 79.99,-122.5 79.99,-129.5"/>
</g>
<!-- in_im -->
<g id="node5" class="node">
<title>in_im</title>
<text text-anchor="middle" x="27" y="-68.4" font-family="Helvetica,sans-Serif" font-size="12.00">in_im</text>
</g>
<!-- in_im&#45;&gt;rTwoSDF -->
<g id="edge3" class="edge">
<title>in_im&#45;&gt;rTwoSDF</title>
<path fill="none" stroke="black" d="M54.03,-86.9C62.62,-91.82 72.4,-97.42 81.81,-102.81"/>
<polygon fill="black" stroke="black" points="80.26,-105.95 90.68,-107.88 83.74,-99.88 80.26,-105.95"/>
</g>
<!-- in_val -->
<g id="node6" class="node">
<title>in_val</title>
<text text-anchor="middle" x="27" y="-14.4" font-family="Helvetica,sans-Serif" font-size="12.00">in_val</text>
</g>
<!-- in_val&#45;&gt;rTwoSDF -->
<g id="edge4" class="edge">
<title>in_val&#45;&gt;rTwoSDF</title>
<path fill="none" stroke="black" d="M45.79,-36.15C48.57,-39.08 51.39,-42.1 54,-45 70.15,-62.92 87.69,-83.74 100.95,-99.78"/>
<polygon fill="black" stroke="black" points="98.41,-102.2 107.46,-107.69 103.81,-97.75 98.41,-102.2"/>
</g>
</g>
</svg>
