<?xml version="1.0" encoding="UTF-8" standalone="no"?>
<!DOCTYPE svg PUBLIC "-//W3C//DTD SVG 1.1//EN"
 "http://www.w3.org/Graphics/SVG/1.1/DTD/svg11.dtd">
<!-- Generated by graphviz version 2.44.0 (0)
 -->
<!-- Title: common_counter Pages: 1 -->
<svg width="295pt" height="710pt"
 viewBox="0.00 0.00 295.37 710.00" xmlns="http://www.w3.org/2000/svg" xmlns:xlink="http://www.w3.org/1999/xlink">
<g id="graph0" class="graph" transform="scale(1 1) rotate(0) translate(4 706)">
<title>common_counter</title>
<polygon fill="white" stroke="transparent" points="-4,4 -4,-706 291.37,-706 291.37,4 -4,4"/>
<!-- common_counter -->
<g id="node1" class="node">
<title>common_counter</title>
<polygon fill="none" stroke="black" points="205.87,-387 97.5,-387 97.5,-315 205.87,-315 205.87,-387"/>
<text text-anchor="middle" x="151.68" y="-347.4" font-family="Helvetica,sans-Serif" font-size="12.00">common_counter</text>
</g>
<!-- count -->
<g id="node10" class="node">
<title>count</title>
<text text-anchor="middle" x="264.7" y="-347.4" font-family="Helvetica,sans-Serif" font-size="12.00">count</text>
</g>
<!-- common_counter&#45;&gt;count -->
<g id="edge9" class="edge">
<title>common_counter&#45;&gt;count</title>
<path fill="none" stroke="black" d="M205.92,-351C214.74,-351 223.64,-351 231.72,-351"/>
<polygon fill="black" stroke="black" points="231.8,-354.5 241.8,-351 231.8,-347.5 231.8,-354.5"/>
</g>
<!-- rst -->
<g id="node2" class="node">
<title>rst</title>
<text text-anchor="middle" x="30.67" y="-662.4" font-family="Helvetica,sans-Serif" font-size="12.00">rst</text>
</g>
<!-- rst&#45;&gt;common_counter -->
<g id="edge8" class="edge">
<title>rst&#45;&gt;common_counter</title>
<path fill="none" stroke="black" d="M48.9,-642.4C53.33,-635.7 57.83,-628.24 61.34,-621 97.83,-545.71 125.16,-451.79 139.47,-396.9"/>
<polygon fill="black" stroke="black" points="142.88,-397.67 141.98,-387.11 136.1,-395.92 142.88,-397.67"/>
</g>
<!-- clk -->
<g id="node3" class="node">
<title>clk</title>
<text text-anchor="middle" x="30.67" y="-572.4" font-family="Helvetica,sans-Serif" font-size="12.00">clk</text>
</g>
<!-- clk&#45;&gt;common_counter -->
<g id="edge1" class="edge">
<title>clk&#45;&gt;common_counter</title>
<path fill="none" stroke="black" d="M48.86,-551.11C53.1,-544.66 57.52,-537.65 61.34,-531 86.96,-486.44 112.69,-433.55 129.91,-396.68"/>
<polygon fill="black" stroke="black" points="133.27,-397.74 134.31,-387.19 126.93,-394.79 133.27,-397.74"/>
</g>
<!-- clken -->
<g id="node4" class="node">
<title>clken</title>
<text text-anchor="middle" x="30.67" y="-482.4" font-family="Helvetica,sans-Serif" font-size="12.00">clken</text>
</g>
<!-- clken&#45;&gt;common_counter -->
<g id="edge2" class="edge">
<title>clken&#45;&gt;common_counter</title>
<path fill="none" stroke="black" d="M52.67,-462.18C69.09,-443.55 92.36,-417.16 112.1,-394.77"/>
<polygon fill="black" stroke="black" points="114.93,-396.85 118.92,-387.03 109.68,-392.22 114.93,-396.85"/>
</g>
<!-- cnt_clr -->
<g id="node5" class="node">
<title>cnt_clr</title>
<text text-anchor="middle" x="30.67" y="-392.4" font-family="Helvetica,sans-Serif" font-size="12.00">cnt_clr</text>
</g>
<!-- cnt_clr&#45;&gt;common_counter -->
<g id="edge3" class="edge">
<title>cnt_clr&#45;&gt;common_counter</title>
<path fill="none" stroke="black" d="M56.62,-386.57C65.79,-383.1 76.64,-379 87.65,-374.83"/>
<polygon fill="black" stroke="black" points="89.22,-377.98 97.33,-371.17 86.74,-371.44 89.22,-377.98"/>
</g>
<!-- cnt_ld -->
<g id="node6" class="node">
<title>cnt_ld</title>
<text text-anchor="middle" x="30.67" y="-302.4" font-family="Helvetica,sans-Serif" font-size="12.00">cnt_ld</text>
</g>
<!-- cnt_ld&#45;&gt;common_counter -->
<g id="edge4" class="edge">
<title>cnt_ld&#45;&gt;common_counter</title>
<path fill="none" stroke="black" d="M54.9,-314.78C64.51,-318.42 76.16,-322.82 87.97,-327.29"/>
<polygon fill="black" stroke="black" points="86.86,-330.61 97.45,-330.87 89.34,-324.06 86.86,-330.61"/>
</g>
<!-- cnt_en -->
<g id="node7" class="node">
<title>cnt_en</title>
<text text-anchor="middle" x="30.67" y="-212.4" font-family="Helvetica,sans-Serif" font-size="12.00">cnt_en</text>
</g>
<!-- cnt_en&#45;&gt;common_counter -->
<g id="edge6" class="edge">
<title>cnt_en&#45;&gt;common_counter</title>
<path fill="none" stroke="black" d="M56.91,-244.63C72.88,-262.75 93.85,-286.54 111.91,-307.02"/>
<polygon fill="black" stroke="black" points="109.44,-309.5 118.67,-314.69 114.69,-304.87 109.44,-309.5"/>
</g>
<!-- cnt_max -->
<g id="node8" class="node">
<title>cnt_max</title>
<text text-anchor="middle" x="30.67" y="-122.4" font-family="Helvetica,sans-Serif" font-size="12.00">cnt_max</text>
</g>
<!-- cnt_max&#45;&gt;common_counter -->
<g id="edge5" class="edge">
<title>cnt_max&#45;&gt;common_counter</title>
<path fill="none" stroke="black" d="M56.03,-162.11C57.87,-165.09 59.66,-168.08 61.34,-171 86.96,-215.56 112.69,-268.45 129.91,-305.32"/>
<polygon fill="black" stroke="black" points="126.93,-307.21 134.31,-314.81 133.27,-304.26 126.93,-307.21"/>
</g>
<!-- load -->
<g id="node9" class="node">
<title>load</title>
<text text-anchor="middle" x="30.67" y="-32.4" font-family="Helvetica,sans-Serif" font-size="12.00">load</text>
</g>
<!-- load&#45;&gt;common_counter -->
<g id="edge7" class="edge">
<title>load&#45;&gt;common_counter</title>
<path fill="none" stroke="black" d="M50.14,-61.49C54.16,-67.69 58.16,-74.43 61.34,-81 97.83,-156.29 125.16,-250.21 139.47,-305.1"/>
<polygon fill="black" stroke="black" points="136.1,-306.08 141.98,-314.89 142.88,-304.33 136.1,-306.08"/>
</g>
</g>
</svg>
