<?xml version="1.0" encoding="UTF-8" standalone="no"?>
<!DOCTYPE svg PUBLIC "-//W3C//DTD SVG 1.1//EN"
 "http://www.w3.org/Graphics/SVG/1.1/DTD/svg11.dtd">
<!-- Generated by graphviz version 2.44.0 (0)
 -->
<!-- Title: common_counter Pages: 1 -->
<svg width="304pt" height="422pt"
 viewBox="0.00 0.00 304.03 422.00" xmlns="http://www.w3.org/2000/svg" xmlns:xlink="http://www.w3.org/1999/xlink">
<g id="graph0" class="graph" transform="scale(1 1) rotate(0) translate(4 418)">
<title>common_counter</title>
<polygon fill="white" stroke="transparent" points="-4,4 -4,-418 300.03,-418 300.03,4 -4,4"/>
<!-- common_counter -->
<g id="node1" class="node">
<title>common_counter</title>
<polygon fill="none" stroke="black" points="205.87,-225 97.5,-225 97.5,-189 205.87,-189 205.87,-225"/>
<text text-anchor="middle" x="151.68" y="-203.4" font-family="Helvetica,sans-Serif" font-size="12.00">common_counter</text>
</g>
<!-- count -->
<g id="node10" class="node">
<title>count</title>
<text text-anchor="middle" x="269.03" y="-203.4" font-family="Helvetica,sans-Serif" font-size="12.00">count</text>
</g>
<!-- common_counter&#45;&gt;count -->
<g id="edge9" class="edge">
<title>common_counter&#45;&gt;count</title>
<path fill="none" stroke="black" d="M205.97,-207C214.77,-207 223.7,-207 231.95,-207"/>
<polygon fill="black" stroke="black" points="231.96,-210.5 241.96,-207 231.96,-203.5 231.96,-210.5"/>
</g>
<!-- rst -->
<g id="node2" class="node">
<title>rst</title>
<text text-anchor="middle" x="30.67" y="-392.4" font-family="Helvetica,sans-Serif" font-size="12.00">rst</text>
</g>
<!-- rst&#45;&gt;common_counter -->
<g id="edge8" class="edge">
<title>rst&#45;&gt;common_counter</title>
<path fill="none" stroke="black" d="M53.28,-377.92C56.15,-375.08 58.93,-372.06 61.34,-369 95.39,-325.86 123.84,-268.02 138.96,-234.4"/>
<polygon fill="black" stroke="black" points="142.19,-235.75 143.04,-225.19 135.79,-232.91 142.19,-235.75"/>
</g>
<!-- clk -->
<g id="node3" class="node">
<title>clk</title>
<text text-anchor="middle" x="30.67" y="-338.4" font-family="Helvetica,sans-Serif" font-size="12.00">clk</text>
</g>
<!-- clk&#45;&gt;common_counter -->
<g id="edge1" class="edge">
<title>clk&#45;&gt;common_counter</title>
<path fill="none" stroke="black" d="M52.46,-323.78C55.51,-320.91 58.55,-317.92 61.34,-315 86.66,-288.46 113.14,-255.73 130.63,-233.3"/>
<polygon fill="black" stroke="black" points="133.52,-235.29 136.88,-225.24 127.99,-231 133.52,-235.29"/>
</g>
<!-- clken -->
<g id="node4" class="node">
<title>clken</title>
<text text-anchor="middle" x="30.67" y="-284.4" font-family="Helvetica,sans-Serif" font-size="12.00">clken</text>
</g>
<!-- clken&#45;&gt;common_counter -->
<g id="edge2" class="edge">
<title>clken&#45;&gt;common_counter</title>
<path fill="none" stroke="black" d="M57.79,-270.22C74.8,-258.65 97.2,-243.4 115.74,-230.79"/>
<polygon fill="black" stroke="black" points="117.92,-233.53 124.22,-225.01 113.98,-227.75 117.92,-233.53"/>
</g>
<!-- cnt_clr -->
<g id="node5" class="node">
<title>cnt_clr</title>
<text text-anchor="middle" x="30.67" y="-230.4" font-family="Helvetica,sans-Serif" font-size="12.00">cnt_clr</text>
</g>
<!-- cnt_clr&#45;&gt;common_counter -->
<g id="edge3" class="edge">
<title>cnt_clr&#45;&gt;common_counter</title>
<path fill="none" stroke="black" d="M57.79,-228.07C66.6,-226.07 76.86,-223.75 87.28,-221.38"/>
<polygon fill="black" stroke="black" points="88.3,-224.74 97.28,-219.12 86.76,-217.91 88.3,-224.74"/>
</g>
<!-- cnt_ld -->
<g id="node6" class="node">
<title>cnt_ld</title>
<text text-anchor="middle" x="30.67" y="-176.4" font-family="Helvetica,sans-Serif" font-size="12.00">cnt_ld</text>
</g>
<!-- cnt_ld&#45;&gt;common_counter -->
<g id="edge4" class="edge">
<title>cnt_ld&#45;&gt;common_counter</title>
<path fill="none" stroke="black" d="M57.79,-185.93C66.6,-187.93 76.86,-190.25 87.28,-192.62"/>
<polygon fill="black" stroke="black" points="86.76,-196.09 97.28,-194.88 88.3,-189.26 86.76,-196.09"/>
</g>
<!-- cnt_en -->
<g id="node7" class="node">
<title>cnt_en</title>
<text text-anchor="middle" x="30.67" y="-122.4" font-family="Helvetica,sans-Serif" font-size="12.00">cnt_en</text>
</g>
<!-- cnt_en&#45;&gt;common_counter -->
<g id="edge6" class="edge">
<title>cnt_en&#45;&gt;common_counter</title>
<path fill="none" stroke="black" d="M57.79,-143.78C74.8,-155.35 97.2,-170.6 115.74,-183.21"/>
<polygon fill="black" stroke="black" points="113.98,-186.25 124.22,-188.99 117.92,-180.47 113.98,-186.25"/>
</g>
<!-- cnt_max -->
<g id="node8" class="node">
<title>cnt_max</title>
<text text-anchor="middle" x="30.67" y="-68.4" font-family="Helvetica,sans-Serif" font-size="12.00">cnt_max</text>
</g>
<!-- cnt_max&#45;&gt;common_counter -->
<g id="edge5" class="edge">
<title>cnt_max&#45;&gt;common_counter</title>
<path fill="none" stroke="black" d="M52.46,-90.22C55.51,-93.09 58.55,-96.08 61.34,-99 86.66,-125.54 113.14,-158.27 130.63,-180.7"/>
<polygon fill="black" stroke="black" points="127.99,-183 136.88,-188.76 133.52,-178.71 127.99,-183"/>
</g>
<!-- load -->
<g id="node9" class="node">
<title>load</title>
<text text-anchor="middle" x="30.67" y="-14.4" font-family="Helvetica,sans-Serif" font-size="12.00">load</text>
</g>
<!-- load&#45;&gt;common_counter -->
<g id="edge7" class="edge">
<title>load&#45;&gt;common_counter</title>
<path fill="none" stroke="black" d="M53.28,-36.08C56.15,-38.92 58.93,-41.94 61.34,-45 95.39,-88.14 123.84,-145.98 138.96,-179.6"/>
<polygon fill="black" stroke="black" points="135.79,-181.09 143.04,-188.81 142.19,-178.25 135.79,-181.09"/>
</g>
</g>
</svg>
