<?xml version="1.0" encoding="UTF-8" standalone="no"?>
<!DOCTYPE svg PUBLIC "-//W3C//DTD SVG 1.1//EN"
 "http://www.w3.org/Graphics/SVG/1.1/DTD/svg11.dtd">
<!-- Generated by graphviz version 2.44.0 (0)
 -->
<!-- Title: ip_sdp_ram_infer Pages: 1 -->
<svg width="242pt" height="422pt"
 viewBox="0.00 0.00 242.00 422.00" xmlns="http://www.w3.org/2000/svg" xmlns:xlink="http://www.w3.org/1999/xlink">
<g id="graph0" class="graph" transform="scale(1 1) rotate(0) translate(4 418)">
<title>ip_sdp_ram_infer</title>
<polygon fill="white" stroke="transparent" points="-4,4 -4,-418 238,-418 238,4 -4,4"/>
<!-- PortA -->
<g id="node1" class="node">
<title>PortA</title>
<polygon fill="none" stroke="black" points="144,-306 90,-306 90,-270 144,-270 144,-306"/>
<text text-anchor="middle" x="117" y="-284.4" font-family="Helvetica,sans-Serif" font-size="12.00">PortA</text>
</g>
<!-- PortB -->
<g id="node2" class="node">
<title>PortB</title>
<polygon fill="none" stroke="black" points="144,-144 90,-144 90,-108 144,-108 144,-144"/>
<text text-anchor="middle" x="117" y="-122.4" font-family="Helvetica,sans-Serif" font-size="12.00">PortB</text>
</g>
<!-- PortA&#45;&gt;PortB -->
<g id="edge11" class="edge">
<title>PortA&#45;&gt;PortB</title>
<path fill="none" stroke="grey" d="M117,-269.72C117,-227.83 117,-185.93 117,-144.04"/>
</g>
<!-- qA -->
<g id="node12" class="node">
<title>qA</title>
<text text-anchor="middle" x="207" y="-284.4" font-family="Helvetica,sans-Serif" font-size="12.00">qA</text>
</g>
<!-- PortA&#45;&gt;qA -->
<g id="edge9" class="edge">
<title>PortA&#45;&gt;qA</title>
<path fill="none" stroke="black" d="M144.4,-288C152.39,-288 161.31,-288 169.82,-288"/>
<polygon fill="black" stroke="black" points="169.92,-291.5 179.92,-288 169.92,-284.5 169.92,-291.5"/>
</g>
<!-- qB -->
<g id="node11" class="node">
<title>qB</title>
<text text-anchor="middle" x="207" y="-122.4" font-family="Helvetica,sans-Serif" font-size="12.00">qB</text>
</g>
<!-- PortB&#45;&gt;qB -->
<g id="edge10" class="edge">
<title>PortB&#45;&gt;qB</title>
<path fill="none" stroke="black" d="M144.4,-126C152.39,-126 161.31,-126 169.82,-126"/>
<polygon fill="black" stroke="black" points="169.92,-129.5 179.92,-126 169.92,-122.5 169.92,-129.5"/>
</g>
<!-- clkA -->
<g id="node3" class="node">
<title>clkA</title>
<text text-anchor="middle" x="27" y="-392.4" font-family="Helvetica,sans-Serif" font-size="12.00">clkA</text>
</g>
<!-- clkA&#45;&gt;PortA -->
<g id="edge1" class="edge">
<title>clkA&#45;&gt;PortA</title>
<path fill="none" stroke="black" d="M45.91,-377.96C48.67,-375.02 51.46,-371.96 54,-369 69.1,-351.43 84.95,-330.68 96.84,-314.57"/>
<polygon fill="black" stroke="black" points="99.93,-316.29 103.02,-306.15 94.28,-312.15 99.93,-316.29"/>
</g>
<!-- clkB -->
<g id="node4" class="node">
<title>clkB</title>
<text text-anchor="middle" x="27" y="-176.4" font-family="Helvetica,sans-Serif" font-size="12.00">clkB</text>
</g>
<!-- clkB&#45;&gt;PortB -->
<g id="edge2" class="edge">
<title>clkB&#45;&gt;PortB</title>
<path fill="none" stroke="black" d="M54.4,-163.8C62.83,-158.63 72.29,-152.82 81.22,-147.34"/>
<polygon fill="black" stroke="black" points="83.23,-150.22 89.92,-142 79.57,-144.25 83.23,-150.22"/>
</g>
<!-- enA -->
<g id="node5" class="node">
<title>enA</title>
<text text-anchor="middle" x="27" y="-338.4" font-family="Helvetica,sans-Serif" font-size="12.00">enA</text>
</g>
<!-- enA&#45;&gt;PortA -->
<g id="edge3" class="edge">
<title>enA&#45;&gt;PortA</title>
<path fill="none" stroke="black" d="M54.4,-325.8C62.83,-320.63 72.29,-314.82 81.22,-309.34"/>
<polygon fill="black" stroke="black" points="83.23,-312.22 89.92,-304 79.57,-306.25 83.23,-312.22"/>
</g>
<!-- enB -->
<g id="node6" class="node">
<title>enB</title>
<text text-anchor="middle" x="27" y="-122.4" font-family="Helvetica,sans-Serif" font-size="12.00">enB</text>
</g>
<!-- enB&#45;&gt;PortB -->
<g id="edge4" class="edge">
<title>enB&#45;&gt;PortB</title>
<path fill="none" stroke="black" d="M54.4,-126C62.39,-126 71.31,-126 79.82,-126"/>
<polygon fill="black" stroke="black" points="79.92,-129.5 89.92,-126 79.92,-122.5 79.92,-129.5"/>
</g>
<!-- weA -->
<g id="node7" class="node">
<title>weA</title>
<text text-anchor="middle" x="27" y="-284.4" font-family="Helvetica,sans-Serif" font-size="12.00">weA</text>
</g>
<!-- weA&#45;&gt;PortA -->
<g id="edge5" class="edge">
<title>weA&#45;&gt;PortA</title>
<path fill="none" stroke="black" d="M54.4,-288C62.39,-288 71.31,-288 79.82,-288"/>
<polygon fill="black" stroke="black" points="79.92,-291.5 89.92,-288 79.92,-284.5 79.92,-291.5"/>
</g>
<!-- weB -->
<g id="node8" class="node">
<title>weB</title>
<text text-anchor="middle" x="27" y="-68.4" font-family="Helvetica,sans-Serif" font-size="12.00">weB</text>
</g>
<!-- weB&#45;&gt;PortB -->
<g id="edge6" class="edge">
<title>weB&#45;&gt;PortB</title>
<path fill="none" stroke="black" d="M54.4,-88.2C62.83,-93.37 72.29,-99.18 81.22,-104.66"/>
<polygon fill="black" stroke="black" points="79.57,-107.75 89.92,-110 83.23,-101.78 79.57,-107.75"/>
</g>
<!-- addrA -->
<g id="node9" class="node">
<title>addrA</title>
<text text-anchor="middle" x="27" y="-230.4" font-family="Helvetica,sans-Serif" font-size="12.00">addrA</text>
</g>
<!-- addrA&#45;&gt;PortA -->
<g id="edge7" class="edge">
<title>addrA&#45;&gt;PortA</title>
<path fill="none" stroke="black" d="M54.4,-250.2C62.83,-255.37 72.29,-261.18 81.22,-266.66"/>
<polygon fill="black" stroke="black" points="79.57,-269.75 89.92,-272 83.23,-263.78 79.57,-269.75"/>
</g>
<!-- addrB -->
<g id="node10" class="node">
<title>addrB</title>
<text text-anchor="middle" x="27" y="-14.4" font-family="Helvetica,sans-Serif" font-size="12.00">addrB</text>
</g>
<!-- addrB&#45;&gt;PortB -->
<g id="edge8" class="edge">
<title>addrB&#45;&gt;PortB</title>
<path fill="none" stroke="black" d="M45.91,-36.04C48.67,-38.98 51.46,-42.04 54,-45 69.1,-62.57 84.95,-83.32 96.84,-99.43"/>
<polygon fill="black" stroke="black" points="94.28,-101.85 103.02,-107.85 99.93,-97.71 94.28,-101.85"/>
</g>
</g>
</svg>
