<?xml version="1.0" encoding="UTF-8" standalone="no"?>
<!DOCTYPE svg PUBLIC "-//W3C//DTD SVG 1.1//EN"
 "http://www.w3.org/Graphics/SVG/1.1/DTD/svg11.dtd">
<!-- Generated by graphviz version 2.44.0 (0)
 -->
<!-- Title: ip_mult_rtl Pages: 1 -->
<svg width="270pt" height="368pt"
 viewBox="0.00 0.00 269.99 368.00" xmlns="http://www.w3.org/2000/svg" xmlns:xlink="http://www.w3.org/1999/xlink">
<g id="graph0" class="graph" transform="scale(1 1) rotate(0) translate(4 364)">
<title>ip_mult_rtl</title>
<polygon fill="white" stroke="transparent" points="-4,4 -4,-364 265.99,-364 265.99,4 -4,4"/>
<!-- ip_mult_rtl -->
<g id="node1" class="node">
<title>ip_mult_rtl</title>
<polygon fill="none" stroke="black" points="161.5,-198 89.83,-198 89.83,-162 161.5,-162 161.5,-198"/>
<text text-anchor="middle" x="125.67" y="-176.4" font-family="Helvetica,sans-Serif" font-size="12.00">ip_mult_rtl</text>
</g>
<!-- result_re -->
<g id="node9" class="node">
<title>result_re</title>
<text text-anchor="middle" x="229.66" y="-203.4" font-family="Helvetica,sans-Serif" font-size="12.00">result_re</text>
</g>
<!-- ip_mult_rtl&#45;&gt;result_re -->
<g id="edge8" class="edge">
<title>ip_mult_rtl&#45;&gt;result_re</title>
<path fill="none" stroke="black" d="M161.48,-189.22C170.2,-191.53 179.63,-194.02 188.58,-196.39"/>
<polygon fill="black" stroke="black" points="187.87,-199.82 198.43,-199 189.66,-193.05 187.87,-199.82"/>
</g>
<!-- result_im -->
<g id="node10" class="node">
<title>result_im</title>
<text text-anchor="middle" x="229.66" y="-149.4" font-family="Helvetica,sans-Serif" font-size="12.00">result_im</text>
</g>
<!-- ip_mult_rtl&#45;&gt;result_im -->
<g id="edge9" class="edge">
<title>ip_mult_rtl&#45;&gt;result_im</title>
<path fill="none" stroke="black" d="M161.48,-170.78C169.86,-168.57 178.89,-166.18 187.53,-163.89"/>
<polygon fill="black" stroke="black" points="188.65,-167.21 197.42,-161.27 186.86,-160.45 188.65,-167.21"/>
</g>
<!-- in_ar -->
<g id="node2" class="node">
<title>in_ar</title>
<text text-anchor="middle" x="27" y="-338.4" font-family="Helvetica,sans-Serif" font-size="12.00">in_ar</text>
</g>
<!-- in_ar&#45;&gt;ip_mult_rtl -->
<g id="edge3" class="edge">
<title>in_ar&#45;&gt;ip_mult_rtl</title>
<path fill="none" stroke="black" d="M46.91,-323.72C49.43,-320.91 51.87,-317.96 54,-315 78.9,-280.44 100.43,-235.95 112.98,-207.69"/>
<polygon fill="black" stroke="black" points="116.24,-208.98 117.04,-198.42 109.83,-206.18 116.24,-208.98"/>
</g>
<!-- in_ai -->
<g id="node3" class="node">
<title>in_ai</title>
<text text-anchor="middle" x="27" y="-284.4" font-family="Helvetica,sans-Serif" font-size="12.00">in_ai</text>
</g>
<!-- in_ai&#45;&gt;ip_mult_rtl -->
<g id="edge4" class="edge">
<title>in_ai&#45;&gt;ip_mult_rtl</title>
<path fill="none" stroke="black" d="M45.75,-269.82C48.53,-266.89 51.36,-263.88 54,-261 70.54,-242.96 88.68,-222.15 102.43,-206.14"/>
<polygon fill="black" stroke="black" points="105.35,-208.11 109.2,-198.24 100.03,-203.56 105.35,-208.11"/>
</g>
<!-- in_br -->
<g id="node4" class="node">
<title>in_br</title>
<text text-anchor="middle" x="27" y="-230.4" font-family="Helvetica,sans-Serif" font-size="12.00">in_br</text>
</g>
<!-- in_br&#45;&gt;ip_mult_rtl -->
<g id="edge5" class="edge">
<title>in_br&#45;&gt;ip_mult_rtl</title>
<path fill="none" stroke="black" d="M54.16,-219.39C63.15,-214.36 73.45,-208.61 83.34,-203.08"/>
<polygon fill="black" stroke="black" points="85.24,-206.03 92.27,-198.1 81.83,-199.92 85.24,-206.03"/>
</g>
<!-- in_bi -->
<g id="node5" class="node">
<title>in_bi</title>
<text text-anchor="middle" x="27" y="-176.4" font-family="Helvetica,sans-Serif" font-size="12.00">in_bi</text>
</g>
<!-- in_bi&#45;&gt;ip_mult_rtl -->
<g id="edge6" class="edge">
<title>in_bi&#45;&gt;ip_mult_rtl</title>
<path fill="none" stroke="black" d="M54.16,-180C62.04,-180 70.92,-180 79.65,-180"/>
<polygon fill="black" stroke="black" points="79.77,-183.5 89.77,-180 79.77,-176.5 79.77,-183.5"/>
</g>
<!-- clk -->
<g id="node6" class="node">
<title>clk</title>
<text text-anchor="middle" x="27" y="-122.4" font-family="Helvetica,sans-Serif" font-size="12.00">clk</text>
</g>
<!-- clk&#45;&gt;ip_mult_rtl -->
<g id="edge1" class="edge">
<title>clk&#45;&gt;ip_mult_rtl</title>
<path fill="none" stroke="black" d="M54.16,-140.61C63.15,-145.64 73.45,-151.39 83.34,-156.92"/>
<polygon fill="black" stroke="black" points="81.83,-160.08 92.27,-161.9 85.24,-153.97 81.83,-160.08"/>
</g>
<!-- rst -->
<g id="node7" class="node">
<title>rst</title>
<text text-anchor="middle" x="27" y="-68.4" font-family="Helvetica,sans-Serif" font-size="12.00">rst</text>
</g>
<!-- rst&#45;&gt;ip_mult_rtl -->
<g id="edge7" class="edge">
<title>rst&#45;&gt;ip_mult_rtl</title>
<path fill="none" stroke="black" d="M45.75,-90.18C48.53,-93.11 51.36,-96.12 54,-99 70.54,-117.04 88.68,-137.85 102.43,-153.86"/>
<polygon fill="black" stroke="black" points="100.03,-156.44 109.2,-161.76 105.35,-151.89 100.03,-156.44"/>
</g>
<!-- clken -->
<g id="node8" class="node">
<title>clken</title>
<text text-anchor="middle" x="27" y="-14.4" font-family="Helvetica,sans-Serif" font-size="12.00">clken</text>
</g>
<!-- clken&#45;&gt;ip_mult_rtl -->
<g id="edge2" class="edge">
<title>clken&#45;&gt;ip_mult_rtl</title>
<path fill="none" stroke="black" d="M46.91,-36.28C49.43,-39.09 51.87,-42.04 54,-45 78.9,-79.56 100.43,-124.05 112.98,-152.31"/>
<polygon fill="black" stroke="black" points="109.83,-153.82 117.04,-161.58 116.24,-151.02 109.83,-153.82"/>
</g>
</g>
</svg>
