<?xml version="1.0" encoding="UTF-8" standalone="no"?>
<!DOCTYPE svg PUBLIC "-//W3C//DTD SVG 1.1//EN"
 "http://www.w3.org/Graphics/SVG/1.1/DTD/svg11.dtd">
<!-- Generated by graphviz version 2.44.0 (0)
 -->
<!-- Title: common_add_sub Pages: 1 -->
<svg width="235pt" height="530pt"
 viewBox="0.00 0.00 235.05 530.00" xmlns="http://www.w3.org/2000/svg" xmlns:xlink="http://www.w3.org/1999/xlink">
<g id="graph0" class="graph" transform="scale(1 1) rotate(0) translate(4 526)">
<title>common_add_sub</title>
<polygon fill="white" stroke="transparent" points="-4,4 -4,-526 231.05,-526 231.05,4 -4,4"/>
<!-- common_add_sub -->
<g id="node1" class="node">
<title>common_add_sub</title>
<polygon fill="none" stroke="black" points="145.57,-522 31.17,-522 31.17,-450 145.57,-450 145.57,-522"/>
<text text-anchor="middle" x="88.37" y="-482.4" font-family="Helvetica,sans-Serif" font-size="12.00">common_add_sub</text>
</g>
<!-- result -->
<g id="node7" class="node">
<title>result</title>
<text text-anchor="middle" x="204.39" y="-482.4" font-family="Helvetica,sans-Serif" font-size="12.00">result</text>
</g>
<!-- common_add_sub&#45;&gt;result -->
<g id="edge6" class="edge">
<title>common_add_sub&#45;&gt;result</title>
<path fill="none" stroke="black" d="M145.71,-486C154.6,-486 163.52,-486 171.59,-486"/>
<polygon fill="black" stroke="black" points="171.64,-489.5 181.64,-486 171.64,-482.5 171.64,-489.5"/>
</g>
<!-- clk -->
<g id="node2" class="node">
<title>clk</title>
<text text-anchor="middle" x="88.37" y="-392.4" font-family="Helvetica,sans-Serif" font-size="12.00">clk</text>
</g>
<!-- clk&#45;&gt;common_add_sub -->
<g id="edge1" class="edge">
<title>clk&#45;&gt;common_add_sub</title>
<path fill="none" stroke="black" d="M88.37,-432.21C88.37,-434.69 88.37,-437.17 88.37,-439.66"/>
<polygon fill="black" stroke="black" points="84.87,-439.86 88.37,-449.86 91.87,-439.86 84.87,-439.86"/>
</g>
<!-- clken -->
<g id="node3" class="node">
<title>clken</title>
<text text-anchor="middle" x="88.37" y="-302.4" font-family="Helvetica,sans-Serif" font-size="12.00">clken</text>
</g>
<!-- clken&#45;&gt;common_add_sub -->
<g id="edge2" class="edge">
<title>clken&#45;&gt;common_add_sub</title>
<path fill="none" stroke="black" d="M66.34,-314.89C48.34,-323.48 24.12,-338.38 13.02,-360 -1.6,-388.46 -1.6,-403.54 13.02,-432 15.8,-437.41 19.4,-442.4 23.52,-446.98"/>
<polygon fill="black" stroke="black" points="21.33,-449.73 30.89,-454.29 26.26,-444.76 21.33,-449.73"/>
</g>
<!-- sel_add -->
<g id="node4" class="node">
<title>sel_add</title>
<text text-anchor="middle" x="88.37" y="-212.4" font-family="Helvetica,sans-Serif" font-size="12.00">sel_add</text>
</g>
<!-- sel_add&#45;&gt;common_add_sub -->
<g id="edge3" class="edge">
<title>sel_add&#45;&gt;common_add_sub</title>
<path fill="none" stroke="black" d="M59.29,-228.43C42.46,-237.34 22.73,-251.1 13.02,-270 -3.43,-302.02 -3.43,-399.98 13.02,-432 15.8,-437.41 19.4,-442.4 23.52,-446.98"/>
<polygon fill="black" stroke="black" points="21.33,-449.73 30.89,-454.29 26.26,-444.76 21.33,-449.73"/>
</g>
<!-- in_a -->
<g id="node5" class="node">
<title>in_a</title>
<text text-anchor="middle" x="88.37" y="-122.4" font-family="Helvetica,sans-Serif" font-size="12.00">in_a</text>
</g>
<!-- in_a&#45;&gt;common_add_sub -->
<g id="edge4" class="edge">
<title>in_a&#45;&gt;common_add_sub</title>
<path fill="none" stroke="black" d="M69.15,-133.58C50.95,-141.92 24.71,-157.24 13.02,-180 0.23,-204.91 0.23,-407.09 13.02,-432 15.8,-437.41 19.4,-442.4 23.52,-446.98"/>
<polygon fill="black" stroke="black" points="21.33,-449.73 30.89,-454.29 26.26,-444.76 21.33,-449.73"/>
</g>
<!-- in_b -->
<g id="node6" class="node">
<title>in_b</title>
<text text-anchor="middle" x="88.37" y="-32.4" font-family="Helvetica,sans-Serif" font-size="12.00">in_b</text>
</g>
<!-- in_b&#45;&gt;common_add_sub -->
<g id="edge5" class="edge">
<title>in_b&#45;&gt;common_add_sub</title>
<path fill="none" stroke="black" d="M69.15,-43.58C50.95,-51.92 24.71,-67.24 13.02,-90 -4.34,-123.8 -4.34,-398.2 13.02,-432 15.8,-437.41 19.4,-442.4 23.52,-446.98"/>
<polygon fill="black" stroke="black" points="21.33,-449.73 30.89,-454.29 26.26,-444.76 21.33,-449.73"/>
</g>
</g>
</svg>
