<?xml version="1.0" encoding="UTF-8" standalone="no"?>
<!DOCTYPE svg PUBLIC "-//W3C//DTD SVG 1.1//EN"
 "http://www.w3.org/Graphics/SVG/1.1/DTD/svg11.dtd">
<!-- Generated by graphviz version 2.44.0 (0)
 -->
<!-- Title: ip_mult_rtl Pages: 1 -->
<svg width="259pt" height="260pt"
 viewBox="0.00 0.00 259.33 260.00" xmlns="http://www.w3.org/2000/svg" xmlns:xlink="http://www.w3.org/1999/xlink">
<g id="graph0" class="graph" transform="scale(1 1) rotate(0) translate(4 256)">
<title>ip_mult_rtl</title>
<polygon fill="white" stroke="transparent" points="-4,4 -4,-256 255.33,-256 255.33,4 -4,4"/>
<!-- ip_mult_rtl -->
<g id="node1" class="node">
<title>ip_mult_rtl</title>
<polygon fill="none" stroke="black" points="161.5,-144 89.83,-144 89.83,-108 161.5,-108 161.5,-144"/>
<text text-anchor="middle" x="125.67" y="-122.4" font-family="Helvetica,sans-Serif" font-size="12.00">ip_mult_rtl</text>
</g>
<!-- p -->
<g id="node7" class="node">
<title>p</title>
<text text-anchor="middle" x="224.33" y="-122.4" font-family="Helvetica,sans-Serif" font-size="12.00">p</text>
</g>
<!-- ip_mult_rtl&#45;&gt;p -->
<g id="edge6" class="edge">
<title>ip_mult_rtl&#45;&gt;p</title>
<path fill="none" stroke="black" d="M161.56,-126C169.85,-126 178.72,-126 187.06,-126"/>
<polygon fill="black" stroke="black" points="187.28,-129.5 197.28,-126 187.28,-122.5 187.28,-129.5"/>
</g>
<!-- a -->
<g id="node2" class="node">
<title>a</title>
<text text-anchor="middle" x="27" y="-230.4" font-family="Helvetica,sans-Serif" font-size="12.00">a</text>
</g>
<!-- a&#45;&gt;ip_mult_rtl -->
<g id="edge3" class="edge">
<title>a&#45;&gt;ip_mult_rtl</title>
<path fill="none" stroke="black" d="M45.75,-215.82C48.53,-212.89 51.36,-209.88 54,-207 70.54,-188.96 88.68,-168.15 102.43,-152.14"/>
<polygon fill="black" stroke="black" points="105.35,-154.11 109.2,-144.24 100.03,-149.56 105.35,-154.11"/>
</g>
<!-- b -->
<g id="node3" class="node">
<title>b</title>
<text text-anchor="middle" x="27" y="-176.4" font-family="Helvetica,sans-Serif" font-size="12.00">b</text>
</g>
<!-- b&#45;&gt;ip_mult_rtl -->
<g id="edge4" class="edge">
<title>b&#45;&gt;ip_mult_rtl</title>
<path fill="none" stroke="black" d="M54.16,-165.39C63.15,-160.36 73.45,-154.61 83.34,-149.08"/>
<polygon fill="black" stroke="black" points="85.24,-152.03 92.27,-144.1 81.83,-145.92 85.24,-152.03"/>
</g>
<!-- clk -->
<g id="node4" class="node">
<title>clk</title>
<text text-anchor="middle" x="27" y="-122.4" font-family="Helvetica,sans-Serif" font-size="12.00">clk</text>
</g>
<!-- clk&#45;&gt;ip_mult_rtl -->
<g id="edge1" class="edge">
<title>clk&#45;&gt;ip_mult_rtl</title>
<path fill="none" stroke="black" d="M54.16,-126C62.04,-126 70.92,-126 79.65,-126"/>
<polygon fill="black" stroke="black" points="79.77,-129.5 89.77,-126 79.77,-122.5 79.77,-129.5"/>
</g>
<!-- rst -->
<g id="node5" class="node">
<title>rst</title>
<text text-anchor="middle" x="27" y="-68.4" font-family="Helvetica,sans-Serif" font-size="12.00">rst</text>
</g>
<!-- rst&#45;&gt;ip_mult_rtl -->
<g id="edge5" class="edge">
<title>rst&#45;&gt;ip_mult_rtl</title>
<path fill="none" stroke="black" d="M54.16,-86.61C63.15,-91.64 73.45,-97.39 83.34,-102.92"/>
<polygon fill="black" stroke="black" points="81.83,-106.08 92.27,-107.9 85.24,-99.97 81.83,-106.08"/>
</g>
<!-- ce -->
<g id="node6" class="node">
<title>ce</title>
<text text-anchor="middle" x="27" y="-14.4" font-family="Helvetica,sans-Serif" font-size="12.00">ce</text>
</g>
<!-- ce&#45;&gt;ip_mult_rtl -->
<g id="edge2" class="edge">
<title>ce&#45;&gt;ip_mult_rtl</title>
<path fill="none" stroke="black" d="M45.75,-36.18C48.53,-39.11 51.36,-42.12 54,-45 70.54,-63.04 88.68,-83.85 102.43,-99.86"/>
<polygon fill="black" stroke="black" points="100.03,-102.44 109.2,-107.76 105.35,-97.89 100.03,-102.44"/>
</g>
</g>
</svg>
