<?xml version="1.0" encoding="UTF-8" standalone="no"?>
<!DOCTYPE svg PUBLIC "-//W3C//DTD SVG 1.1//EN"
 "http://www.w3.org/Graphics/SVG/1.1/DTD/svg11.dtd">
<!-- Generated by graphviz version 2.44.0 (0)
 -->
<!-- Title: ip_mult_infer Pages: 1 -->
<svg width="273pt" height="368pt"
 viewBox="0.00 0.00 272.67 368.00" xmlns="http://www.w3.org/2000/svg" xmlns:xlink="http://www.w3.org/1999/xlink">
<g id="graph0" class="graph" transform="scale(1 1) rotate(0) translate(4 364)">
<title>ip_mult_infer</title>
<polygon fill="white" stroke="transparent" points="-4,4 -4,-364 268.67,-364 268.67,4 -4,4"/>
<!-- ip_mult_infer -->
<g id="node1" class="node">
<title>ip_mult_infer</title>
<polygon fill="none" stroke="black" points="174.51,-198 90.16,-198 90.16,-162 174.51,-162 174.51,-198"/>
<text text-anchor="middle" x="132.34" y="-176.4" font-family="Helvetica,sans-Serif" font-size="12.00">ip_mult_infer</text>
</g>
<!-- pr -->
<g id="node9" class="node">
<title>pr</title>
<text text-anchor="middle" x="237.67" y="-203.4" font-family="Helvetica,sans-Serif" font-size="12.00">pr</text>
</g>
<!-- ip_mult_infer&#45;&gt;pr -->
<g id="edge8" class="edge">
<title>ip_mult_infer&#45;&gt;pr</title>
<path fill="none" stroke="black" d="M174.77,-190.83C183.31,-193.06 192.25,-195.39 200.58,-197.57"/>
<polygon fill="black" stroke="black" points="199.83,-200.99 210.39,-200.13 201.6,-194.22 199.83,-200.99"/>
</g>
<!-- pi -->
<g id="node10" class="node">
<title>pi</title>
<text text-anchor="middle" x="237.67" y="-149.4" font-family="Helvetica,sans-Serif" font-size="12.00">pi</text>
</g>
<!-- ip_mult_infer&#45;&gt;pi -->
<g id="edge9" class="edge">
<title>ip_mult_infer&#45;&gt;pi</title>
<path fill="none" stroke="black" d="M174.77,-169.17C183.31,-166.94 192.25,-164.61 200.58,-162.43"/>
<polygon fill="black" stroke="black" points="201.6,-165.78 210.39,-159.87 199.83,-159.01 201.6,-165.78"/>
</g>
<!-- ar -->
<g id="node2" class="node">
<title>ar</title>
<text text-anchor="middle" x="27" y="-338.4" font-family="Helvetica,sans-Serif" font-size="12.00">ar</text>
</g>
<!-- ar&#45;&gt;ip_mult_infer -->
<g id="edge3" class="edge">
<title>ar&#45;&gt;ip_mult_infer</title>
<path fill="none" stroke="black" d="M46.54,-323.95C49.16,-321.06 51.74,-318.02 54,-315 80.09,-280.2 103.96,-235.77 118.07,-207.59"/>
<polygon fill="black" stroke="black" points="121.35,-208.86 122.65,-198.34 115.08,-205.76 121.35,-208.86"/>
</g>
<!-- ai -->
<g id="node3" class="node">
<title>ai</title>
<text text-anchor="middle" x="27" y="-284.4" font-family="Helvetica,sans-Serif" font-size="12.00">ai</text>
</g>
<!-- ai&#45;&gt;ip_mult_infer -->
<g id="edge4" class="edge">
<title>ai&#45;&gt;ip_mult_infer</title>
<path fill="none" stroke="black" d="M45.63,-269.71C48.43,-266.8 51.3,-263.82 54,-261 71.81,-242.43 91.87,-221.41 107.1,-205.44"/>
<polygon fill="black" stroke="black" points="109.79,-207.69 114.16,-198.04 104.72,-202.86 109.79,-207.69"/>
</g>
<!-- br -->
<g id="node4" class="node">
<title>br</title>
<text text-anchor="middle" x="27" y="-230.4" font-family="Helvetica,sans-Serif" font-size="12.00">br</text>
</g>
<!-- br&#45;&gt;ip_mult_infer -->
<g id="edge5" class="edge">
<title>br&#45;&gt;ip_mult_infer</title>
<path fill="none" stroke="black" d="M54.08,-220.37C64.27,-215.05 76.23,-208.79 87.67,-202.82"/>
<polygon fill="black" stroke="black" points="89.43,-205.85 96.68,-198.11 86.19,-199.64 89.43,-205.85"/>
</g>
<!-- bi -->
<g id="node5" class="node">
<title>bi</title>
<text text-anchor="middle" x="27" y="-176.4" font-family="Helvetica,sans-Serif" font-size="12.00">bi</text>
</g>
<!-- bi&#45;&gt;ip_mult_infer -->
<g id="edge6" class="edge">
<title>bi&#45;&gt;ip_mult_infer</title>
<path fill="none" stroke="black" d="M54.08,-180C61.98,-180 70.96,-180 79.92,-180"/>
<polygon fill="black" stroke="black" points="79.98,-183.5 89.98,-180 79.98,-176.5 79.98,-183.5"/>
</g>
<!-- clk -->
<g id="node6" class="node">
<title>clk</title>
<text text-anchor="middle" x="27" y="-122.4" font-family="Helvetica,sans-Serif" font-size="12.00">clk</text>
</g>
<!-- clk&#45;&gt;ip_mult_infer -->
<g id="edge1" class="edge">
<title>clk&#45;&gt;ip_mult_infer</title>
<path fill="none" stroke="black" d="M54.08,-139.63C64.27,-144.95 76.23,-151.21 87.67,-157.18"/>
<polygon fill="black" stroke="black" points="86.19,-160.36 96.68,-161.89 89.43,-154.15 86.19,-160.36"/>
</g>
<!-- rst -->
<g id="node7" class="node">
<title>rst</title>
<text text-anchor="middle" x="27" y="-68.4" font-family="Helvetica,sans-Serif" font-size="12.00">rst</text>
</g>
<!-- rst&#45;&gt;ip_mult_infer -->
<g id="edge7" class="edge">
<title>rst&#45;&gt;ip_mult_infer</title>
<path fill="none" stroke="black" d="M45.63,-90.29C48.43,-93.2 51.3,-96.18 54,-99 71.81,-117.57 91.87,-138.59 107.1,-154.56"/>
<polygon fill="black" stroke="black" points="104.72,-157.14 114.16,-161.96 109.79,-152.31 104.72,-157.14"/>
</g>
<!-- clken -->
<g id="node8" class="node">
<title>clken</title>
<text text-anchor="middle" x="27" y="-14.4" font-family="Helvetica,sans-Serif" font-size="12.00">clken</text>
</g>
<!-- clken&#45;&gt;ip_mult_infer -->
<g id="edge2" class="edge">
<title>clken&#45;&gt;ip_mult_infer</title>
<path fill="none" stroke="black" d="M46.54,-36.05C49.16,-38.94 51.74,-41.98 54,-45 80.09,-79.8 103.96,-124.23 118.07,-152.41"/>
<polygon fill="black" stroke="black" points="115.08,-154.24 122.65,-161.66 121.35,-151.14 115.08,-154.24"/>
</g>
</g>
</svg>
