<?xml version="1.0" encoding="UTF-8" standalone="no"?>
<!DOCTYPE svg PUBLIC "-//W3C//DTD SVG 1.1//EN"
 "http://www.w3.org/Graphics/SVG/1.1/DTD/svg11.dtd">
<!-- Generated by graphviz version 2.44.0 (0)
 -->
<!-- Title: rTwoOrder Pages: 1 -->
<svg width="263pt" height="206pt"
 viewBox="0.00 0.00 263.35 206.00" xmlns="http://www.w3.org/2000/svg" xmlns:xlink="http://www.w3.org/1999/xlink">
<g id="graph0" class="graph" transform="scale(1 1) rotate(0) translate(4 202)">
<title>rTwoOrder</title>
<polygon fill="white" stroke="transparent" points="-4,4 -4,-202 259.35,-202 259.35,4 -4,4"/>
<!-- rTwoOrder -->
<g id="node1" class="node">
<title>rTwoOrder</title>
<polygon fill="none" stroke="black" points="163.49,-117 89.84,-117 89.84,-81 163.49,-81 163.49,-117"/>
<text text-anchor="middle" x="126.66" y="-95.4" font-family="Helvetica,sans-Serif" font-size="12.00">rTwoOrder</text>
</g>
<!-- out_dat -->
<g id="node6" class="node">
<title>out_dat</title>
<text text-anchor="middle" x="227.34" y="-122.4" font-family="Helvetica,sans-Serif" font-size="12.00">out_dat</text>
</g>
<!-- rTwoOrder&#45;&gt;out_dat -->
<g id="edge5" class="edge">
<title>rTwoOrder&#45;&gt;out_dat</title>
<path fill="none" stroke="black" d="M163.57,-108.82C172.04,-111.14 181.09,-113.62 189.6,-115.95"/>
<polygon fill="black" stroke="black" points="188.71,-119.33 199.28,-118.6 190.56,-112.58 188.71,-119.33"/>
</g>
<!-- out_val -->
<g id="node7" class="node">
<title>out_val</title>
<text text-anchor="middle" x="227.34" y="-68.4" font-family="Helvetica,sans-Serif" font-size="12.00">out_val</text>
</g>
<!-- rTwoOrder&#45;&gt;out_val -->
<g id="edge6" class="edge">
<title>rTwoOrder&#45;&gt;out_val</title>
<path fill="none" stroke="black" d="M163.57,-89.18C172.2,-86.81 181.43,-84.29 190.08,-81.92"/>
<polygon fill="black" stroke="black" points="191.18,-85.25 199.9,-79.23 189.33,-78.5 191.18,-85.25"/>
</g>
<!-- clk -->
<g id="node2" class="node">
<title>clk</title>
<text text-anchor="middle" x="27" y="-176.4" font-family="Helvetica,sans-Serif" font-size="12.00">clk</text>
</g>
<!-- clk&#45;&gt;rTwoOrder -->
<g id="edge1" class="edge">
<title>clk&#45;&gt;rTwoOrder</title>
<path fill="none" stroke="black" d="M50.16,-161.62C63.74,-150.36 81.29,-135.8 96.05,-123.56"/>
<polygon fill="black" stroke="black" points="98.46,-126.11 103.93,-117.03 93.99,-120.72 98.46,-126.11"/>
</g>
<!-- rst -->
<g id="node3" class="node">
<title>rst</title>
<text text-anchor="middle" x="27" y="-122.4" font-family="Helvetica,sans-Serif" font-size="12.00">rst</text>
</g>
<!-- rst&#45;&gt;rTwoOrder -->
<g id="edge2" class="edge">
<title>rst&#45;&gt;rTwoOrder</title>
<path fill="none" stroke="black" d="M54.17,-118.76C62.14,-116.56 71.13,-114.08 79.99,-111.63"/>
<polygon fill="black" stroke="black" points="81.16,-114.93 89.87,-108.9 79.3,-108.19 81.16,-114.93"/>
</g>
<!-- in_dat -->
<g id="node4" class="node">
<title>in_dat</title>
<text text-anchor="middle" x="27" y="-68.4" font-family="Helvetica,sans-Serif" font-size="12.00">in_dat</text>
</g>
<!-- in_dat&#45;&gt;rTwoOrder -->
<g id="edge3" class="edge">
<title>in_dat&#45;&gt;rTwoOrder</title>
<path fill="none" stroke="black" d="M54.17,-79.24C62.14,-81.44 71.13,-83.92 79.99,-86.37"/>
<polygon fill="black" stroke="black" points="79.3,-89.81 89.87,-89.1 81.16,-83.07 79.3,-89.81"/>
</g>
<!-- in_val -->
<g id="node5" class="node">
<title>in_val</title>
<text text-anchor="middle" x="27" y="-14.4" font-family="Helvetica,sans-Serif" font-size="12.00">in_val</text>
</g>
<!-- in_val&#45;&gt;rTwoOrder -->
<g id="edge4" class="edge">
<title>in_val&#45;&gt;rTwoOrder</title>
<path fill="none" stroke="black" d="M50.16,-36.38C63.74,-47.64 81.29,-62.2 96.05,-74.44"/>
<polygon fill="black" stroke="black" points="93.99,-77.28 103.93,-80.97 98.46,-71.89 93.99,-77.28"/>
</g>
</g>
</svg>
