<?xml version="1.0" encoding="UTF-8" standalone="no"?>
<!DOCTYPE svg PUBLIC "-//W3C//DTD SVG 1.1//EN"
 "http://www.w3.org/Graphics/SVG/1.1/DTD/svg11.dtd">
<!-- Generated by graphviz version 2.44.0 (0)
 -->
<!-- Title: ip_sdp_ram_infer Pages: 1 -->
<svg width="242pt" height="422pt"
 viewBox="0.00 0.00 242.00 422.00" xmlns="http://www.w3.org/2000/svg" xmlns:xlink="http://www.w3.org/1999/xlink">
<g id="graph0" class="graph" transform="scale(1 1) rotate(0) translate(4 418)">
<title>ip_sdp_ram_infer</title>
<polygon fill="white" stroke="transparent" points="-4,4 -4,-418 238,-418 238,4 -4,4"/>
<!-- PortA -->
<g id="node1" class="node">
<title>PortA</title>
<polygon fill="none" stroke="black" points="144,-279 90,-279 90,-243 144,-243 144,-279"/>
<text text-anchor="middle" x="117" y="-257.4" font-family="Helvetica,sans-Serif" font-size="12.00">PortA</text>
</g>
<!-- PortB -->
<g id="node2" class="node">
<title>PortB</title>
<polygon fill="none" stroke="black" points="144,-117 90,-117 90,-81 144,-81 144,-117"/>
<text text-anchor="middle" x="117" y="-95.4" font-family="Helvetica,sans-Serif" font-size="12.00">PortB</text>
</g>
<!-- PortA&#45;&gt;PortB -->
<g id="edge10" class="edge">
<title>PortA&#45;&gt;PortB</title>
<path fill="none" stroke="grey" d="M117,-242.72C117,-200.83 117,-158.93 117,-117.04"/>
</g>
<!-- doB -->
<g id="node11" class="node">
<title>doB</title>
<text text-anchor="middle" x="207" y="-95.4" font-family="Helvetica,sans-Serif" font-size="12.00">doB</text>
</g>
<!-- PortB&#45;&gt;doB -->
<g id="edge9" class="edge">
<title>PortB&#45;&gt;doB</title>
<path fill="none" stroke="black" d="M144.4,-99C152.39,-99 161.31,-99 169.82,-99"/>
<polygon fill="black" stroke="black" points="169.92,-102.5 179.92,-99 169.92,-95.5 169.92,-102.5"/>
</g>
<!-- clkA -->
<g id="node3" class="node">
<title>clkA</title>
<text text-anchor="middle" x="27" y="-392.4" font-family="Helvetica,sans-Serif" font-size="12.00">clkA</text>
</g>
<!-- clkA&#45;&gt;PortA -->
<g id="edge1" class="edge">
<title>clkA&#45;&gt;PortA</title>
<path fill="none" stroke="black" d="M46.54,-377.95C49.16,-375.06 51.73,-372.02 54,-369 73.42,-343.13 91.32,-310.6 102.84,-288.04"/>
<polygon fill="black" stroke="black" points="106.01,-289.54 107.37,-279.03 99.75,-286.39 106.01,-289.54"/>
</g>
<!-- clkB -->
<g id="node4" class="node">
<title>clkB</title>
<text text-anchor="middle" x="27" y="-122.4" font-family="Helvetica,sans-Serif" font-size="12.00">clkB</text>
</g>
<!-- clkB&#45;&gt;PortB -->
<g id="edge2" class="edge">
<title>clkB&#45;&gt;PortB</title>
<path fill="none" stroke="black" d="M54.4,-117.9C62.48,-115.42 71.51,-112.65 80.1,-110.01"/>
<polygon fill="black" stroke="black" points="81.39,-113.28 89.92,-107 79.33,-106.59 81.39,-113.28"/>
</g>
<!-- enA -->
<g id="node5" class="node">
<title>enA</title>
<text text-anchor="middle" x="27" y="-338.4" font-family="Helvetica,sans-Serif" font-size="12.00">enA</text>
</g>
<!-- enA&#45;&gt;PortA -->
<g id="edge3" class="edge">
<title>enA&#45;&gt;PortA</title>
<path fill="none" stroke="black" d="M47.97,-323.62C60.09,-312.46 75.73,-298.07 88.95,-285.9"/>
<polygon fill="black" stroke="black" points="91.43,-288.38 96.41,-279.03 86.69,-283.23 91.43,-288.38"/>
</g>
<!-- enB -->
<g id="node6" class="node">
<title>enB</title>
<text text-anchor="middle" x="27" y="-68.4" font-family="Helvetica,sans-Serif" font-size="12.00">enB</text>
</g>
<!-- enB&#45;&gt;PortB -->
<g id="edge4" class="edge">
<title>enB&#45;&gt;PortB</title>
<path fill="none" stroke="black" d="M54.4,-80.1C62.48,-82.58 71.51,-85.35 80.1,-87.99"/>
<polygon fill="black" stroke="black" points="79.33,-91.41 89.92,-91 81.39,-84.72 79.33,-91.41"/>
</g>
<!-- weA -->
<g id="node7" class="node">
<title>weA</title>
<text text-anchor="middle" x="27" y="-284.4" font-family="Helvetica,sans-Serif" font-size="12.00">weA</text>
</g>
<!-- weA&#45;&gt;PortA -->
<g id="edge5" class="edge">
<title>weA&#45;&gt;PortA</title>
<path fill="none" stroke="black" d="M54.4,-279.9C62.48,-277.42 71.51,-274.65 80.1,-272.01"/>
<polygon fill="black" stroke="black" points="81.39,-275.28 89.92,-269 79.33,-268.59 81.39,-275.28"/>
</g>
<!-- addrA -->
<g id="node8" class="node">
<title>addrA</title>
<text text-anchor="middle" x="27" y="-230.4" font-family="Helvetica,sans-Serif" font-size="12.00">addrA</text>
</g>
<!-- addrA&#45;&gt;PortA -->
<g id="edge6" class="edge">
<title>addrA&#45;&gt;PortA</title>
<path fill="none" stroke="black" d="M54.4,-242.1C62.48,-244.58 71.51,-247.35 80.1,-249.99"/>
<polygon fill="black" stroke="black" points="79.33,-253.41 89.92,-253 81.39,-246.72 79.33,-253.41"/>
</g>
<!-- addrB -->
<g id="node9" class="node">
<title>addrB</title>
<text text-anchor="middle" x="27" y="-14.4" font-family="Helvetica,sans-Serif" font-size="12.00">addrB</text>
</g>
<!-- addrB&#45;&gt;PortB -->
<g id="edge7" class="edge">
<title>addrB&#45;&gt;PortB</title>
<path fill="none" stroke="black" d="M47.97,-36.38C60.09,-47.54 75.73,-61.93 88.95,-74.1"/>
<polygon fill="black" stroke="black" points="86.69,-76.77 96.41,-80.97 91.43,-71.62 86.69,-76.77"/>
</g>
<!-- diA -->
<g id="node10" class="node">
<title>diA</title>
<text text-anchor="middle" x="27" y="-176.4" font-family="Helvetica,sans-Serif" font-size="12.00">diA</text>
</g>
<!-- diA&#45;&gt;PortA -->
<g id="edge8" class="edge">
<title>diA&#45;&gt;PortA</title>
<path fill="none" stroke="black" d="M47.97,-198.38C60.09,-209.54 75.73,-223.93 88.95,-236.1"/>
<polygon fill="black" stroke="black" points="86.69,-238.77 96.41,-242.97 91.43,-233.62 86.69,-238.77"/>
</g>
</g>
</svg>
