<?xml version="1.0" encoding="UTF-8" standalone="no"?>
<!DOCTYPE svg PUBLIC "-//W3C//DTD SVG 1.1//EN"
 "http://www.w3.org/Graphics/SVG/1.1/DTD/svg11.dtd">
<!-- Generated by graphviz version 2.44.0 (0)
 -->
<!-- Title: example Pages: 1 -->
<svg width="134pt" height="191pt"
 viewBox="0.00 0.00 134.03 191.00" xmlns="http://www.w3.org/2000/svg" xmlns:xlink="http://www.w3.org/1999/xlink">
<g id="graph0" class="graph" transform="scale(1 1) rotate(0) translate(4 187)">
<title>example</title>
<polygon fill="white" stroke="transparent" points="-4,4 -4,-187 130.03,-187 130.03,4 -4,4"/>
<!-- DataExtract -->
<g id="node1" class="node">
<title>DataExtract</title>
<g id="a_node1"><a xlink:href="de/d7e/classcommon__add__sub.html" target="_top" xlink:title="Entity common_add_sub">
<polygon fill="none" stroke="black" points="0,-146.5 0,-182.5 126.03,-182.5 126.03,-146.5 0,-146.5"/>
<text text-anchor="middle" x="63.02" y="-161.5" font-family="Helvetica,sans-Serif" font-size="10.00">Entity common_add_sub</text>
</a>
</g>
</g>
<!-- Blah -->
<g id="node2" class="node">
<title>Blah</title>
<polygon fill="none" stroke="black" points="9.02,-73.5 9.02,-109.5 63.02,-109.5 63.02,-73.5 9.02,-73.5"/>
<text text-anchor="middle" x="35.52" y="-88.5" font-family="Helvetica,sans-Serif" font-size="10.00">Blah</text>
</g>
<!-- DataExtract&#45;&gt;Blah -->
<g id="edge3" class="edge">
<title>DataExtract&#45;&gt;Blah</title>
<path fill="none" stroke="black" d="M56.48,-146.31C53.36,-138.12 49.56,-128.12 46.09,-118.98"/>
<polygon fill="black" stroke="black" points="49.32,-117.63 42.49,-109.53 42.77,-120.12 49.32,-117.63"/>
</g>
<!-- Ser2Par -->
<g id="node3" class="node">
<title>Ser2Par</title>
<polygon fill="none" stroke="black" points="9.02,-0.5 9.02,-36.5 63.02,-36.5 63.02,-0.5 9.02,-0.5"/>
<text text-anchor="middle" x="35.85" y="-15.5" font-family="Helvetica,sans-Serif" font-size="10.00">Ser2Par</text>
</g>
<!-- Blah&#45;&gt;Ser2Par -->
<g id="edge1" class="edge">
<title>Blah&#45;&gt;Ser2Par</title>
<path fill="none" stroke="black" d="M30.14,-73.31C29.3,-65.29 29.07,-55.55 29.44,-46.57"/>
<polygon fill="black" stroke="black" points="32.93,-46.75 30.15,-36.53 25.95,-46.25 32.93,-46.75"/>
</g>
<!-- Blah&#45;&gt;Ser2Par -->
<g id="edge4" class="edge">
<title>Blah&#45;&gt;Ser2Par</title>
<path fill="none" stroke="black" d="M41.89,-73.31C42.73,-65.29 42.97,-55.55 42.59,-46.57"/>
<polygon fill="black" stroke="black" points="46.08,-46.25 41.88,-36.53 39.1,-46.75 46.08,-46.25"/>
</g>
<!-- Ser2Par&#45;&gt;DataExtract -->
<g id="edge2" class="edge">
<title>Ser2Par&#45;&gt;DataExtract</title>
<path fill="none" stroke="black" d="M51.63,-36.91C59.39,-46.76 67.96,-59.72 72.02,-73 78.36,-93.8 75.27,-118.42 71.07,-136.72"/>
<polygon fill="black" stroke="black" points="67.67,-135.88 68.6,-146.43 74.45,-137.6 67.67,-135.88"/>
</g>
</g>
</svg>
