<?xml version="1.0" encoding="UTF-8" standalone="no"?>
<!DOCTYPE svg PUBLIC "-//W3C//DTD SVG 1.1//EN"
 "http://www.w3.org/Graphics/SVG/1.1/DTD/svg11.dtd">
<!-- Generated by graphviz version 2.44.0 (0)
 -->
<!-- Title: Graphical Class Hierarchy Pages: 1 -->
<svg width="770pt" height="369pt"
 viewBox="0.00 0.00 769.62 368.93" xmlns="http://www.w3.org/2000/svg" xmlns:xlink="http://www.w3.org/1999/xlink">
<g id="graph0" class="graph" transform="scale(1 1) rotate(0) translate(4 364.93)">
<title>Graphical Class Hierarchy</title>
<polygon fill="white" stroke="transparent" points="-4,4 -4,-364.93 765.62,-364.93 765.62,4 -4,4"/>
<!-- Node31 -->
<g id="node1" class="node">
<title>Node31</title>
<g id="a_node1"><a xlink:href="d5/dd7/classcommon__bit__delay.html" target="_top" xlink:title=" ">
<polygon fill="white" stroke="black" points="133.96,-107.43 133.96,-127.43 233.86,-127.43 233.86,-107.43 133.96,-107.43"/>
<text text-anchor="middle" x="183.91" y="-114.43" font-family="Helvetica,sans-Serif" font-size="10.00">common_bit_delay</text>
</a>
</g>
</g>
<!-- Node24 -->
<g id="node2" class="node">
<title>Node24</title>
<g id="a_node2"><a xlink:href="dd/dc9/classrTwoBFStage.html" target="_top" xlink:title=" ">
<polygon fill="white" stroke="black" points="296.53,-107.43 296.53,-127.43 373.65,-127.43 373.65,-107.43 296.53,-107.43"/>
<text text-anchor="middle" x="335.09" y="-114.43" font-family="Helvetica,sans-Serif" font-size="10.00">rTwoBFStage</text>
</a>
</g>
</g>
<!-- Node31&#45;&gt;Node24 -->
<g id="edge1" class="edge">
<title>Node31&#45;&gt;Node24</title>
<path fill="none" stroke="midnightblue" d="M244.31,-117.43C261.81,-117.43 280.47,-117.43 296.22,-117.43"/>
<polygon fill="midnightblue" stroke="midnightblue" points="244.17,-113.93 234.17,-117.43 244.17,-120.93 244.17,-113.93"/>
</g>
<!-- Node1 -->
<g id="node3" class="node">
<title>Node1</title>
<g id="a_node3"><a xlink:href="d3/da3/classrTwoSDFStage.html" target="_top" xlink:title=" ">
<polygon fill="white" stroke="black" points="444.1,-175.43 444.1,-195.43 528.44,-195.43 528.44,-175.43 444.1,-175.43"/>
<text text-anchor="middle" x="486.27" y="-182.43" font-family="Helvetica,sans-Serif" font-size="10.00">rTwoSDFStage</text>
</a>
</g>
</g>
<!-- Node24&#45;&gt;Node1 -->
<g id="edge2" class="edge">
<title>Node24&#45;&gt;Node1</title>
<path fill="none" stroke="midnightblue" d="M370.89,-131.36C379.38,-134.87 388.4,-138.71 396.71,-142.43 420.57,-153.13 447.54,-166.4 465.39,-175.35"/>
<polygon fill="midnightblue" stroke="midnightblue" points="372.18,-128.11 361.6,-127.55 369.52,-134.58 372.18,-128.11"/>
</g>
<!-- Node2 -->
<g id="node4" class="node">
<title>Node2</title>
<g id="a_node4"><a xlink:href="da/d05/classrTwoSDF.html" target="_top" xlink:title=" ">
<polygon fill="white" stroke="black" points="585.57,-190.43 585.57,-210.43 643.78,-210.43 643.78,-190.43 585.57,-190.43"/>
<text text-anchor="middle" x="614.67" y="-197.43" font-family="Helvetica,sans-Serif" font-size="10.00">rTwoSDF</text>
</a>
</g>
</g>
<!-- Node1&#45;&gt;Node2 -->
<g id="edge3" class="edge">
<title>Node1&#45;&gt;Node2</title>
<path fill="none" stroke="midnightblue" d="M538.91,-191.56C554.79,-193.44 571.68,-195.45 585.38,-197.07"/>
<polygon fill="midnightblue" stroke="midnightblue" points="539,-188.05 528.66,-190.34 538.18,-195 539,-188.05"/>
</g>
<!-- Node3 -->
<g id="node5" class="node">
<title>Node3</title>
<g id="a_node5"><a xlink:href="d0/d99/classtb__rTwoSDF.html" target="_top" xlink:title=" ">
<polygon fill="white" stroke="black" points="689.51,-190.43 689.51,-210.43 761.62,-210.43 761.62,-190.43 689.51,-190.43"/>
<text text-anchor="middle" x="725.56" y="-197.43" font-family="Helvetica,sans-Serif" font-size="10.00">tb_rTwoSDF</text>
</a>
</g>
</g>
<!-- Node2&#45;&gt;Node3 -->
<g id="edge4" class="edge">
<title>Node2&#45;&gt;Node3</title>
<path fill="none" stroke="midnightblue" d="M654.17,-200.43C665.63,-200.43 678.13,-200.43 689.37,-200.43"/>
<polygon fill="midnightblue" stroke="midnightblue" points="654,-196.93 644,-200.43 654,-203.93 654,-196.93"/>
</g>
<!-- Node27 -->
<g id="node6" class="node">
<title>Node27</title>
<g id="a_node6"><a xlink:href="d1/dc3/classcommon__counter.html" target="_top" xlink:title=" ">
<polygon fill="white" stroke="black" points="288.47,-340.43 288.47,-360.43 381.71,-360.43 381.71,-340.43 288.47,-340.43"/>
<text text-anchor="middle" x="335.09" y="-347.43" font-family="Helvetica,sans-Serif" font-size="10.00">common_counter</text>
</a>
</g>
</g>
<!-- Node27&#45;&gt;Node1 -->
<g id="edge8" class="edge">
<title>Node27&#45;&gt;Node1</title>
<path fill="none" stroke="midnightblue" d="M380.2,-336.08C386.09,-333.09 391.79,-329.56 396.71,-325.43 419.82,-306 464.61,-224.24 479.96,-195.49"/>
<polygon fill="midnightblue" stroke="midnightblue" points="378.51,-333 370.86,-340.33 381.41,-339.37 378.51,-333"/>
</g>
<!-- Node28 -->
<g id="node7" class="node">
<title>Node28</title>
<g id="a_node7"><a xlink:href="de/d39/classrTwoOrder.html" target="_top" xlink:title=" ">
<polygon fill="white" stroke="black" points="454.39,-287.43 454.39,-307.43 518.16,-307.43 518.16,-287.43 454.39,-287.43"/>
<text text-anchor="middle" x="486.27" y="-294.43" font-family="Helvetica,sans-Serif" font-size="10.00">rTwoOrder</text>
</a>
</g>
</g>
<!-- Node27&#45;&gt;Node28 -->
<g id="edge5" class="edge">
<title>Node27&#45;&gt;Node28</title>
<path fill="none" stroke="midnightblue" d="M373.98,-336.97C399.81,-327.79 433.46,-315.84 456.97,-307.49"/>
<polygon fill="midnightblue" stroke="midnightblue" points="372.75,-333.69 364.5,-340.34 375.09,-340.29 372.75,-333.69"/>
</g>
<!-- Node30 -->
<g id="node9" class="node">
<title>Node30</title>
<g id="a_node9"><a xlink:href="d5/d6f/classtb__common__counter.html" target="_top" xlink:title=" ">
<polygon fill="white" stroke="black" points="432.71,-340.43 432.71,-360.43 539.84,-360.43 539.84,-340.43 432.71,-340.43"/>
<text text-anchor="middle" x="486.27" y="-347.43" font-family="Helvetica,sans-Serif" font-size="10.00">tb_common_counter</text>
</a>
</g>
</g>
<!-- Node27&#45;&gt;Node30 -->
<g id="edge9" class="edge">
<title>Node27&#45;&gt;Node30</title>
<path fill="none" stroke="midnightblue" d="M392.44,-350.43C405.63,-350.43 419.64,-350.43 432.66,-350.43"/>
<polygon fill="midnightblue" stroke="midnightblue" points="392.07,-346.93 382.07,-350.43 392.07,-353.93 392.07,-346.93"/>
</g>
<!-- Node28&#45;&gt;Node2 -->
<g id="edge6" class="edge">
<title>Node28&#45;&gt;Node2</title>
<path fill="none" stroke="midnightblue" d="M508.49,-281.14C534.75,-260.99 578.66,-227.3 600.5,-210.54"/>
<polygon fill="midnightblue" stroke="midnightblue" points="506.13,-278.55 500.32,-287.42 510.39,-284.1 506.13,-278.55"/>
</g>
<!-- Node29 -->
<g id="node8" class="node">
<title>Node29</title>
<g id="a_node8"><a xlink:href="d1/da5/classtb__rTwoOrder.html" target="_top" xlink:title=" ">
<polygon fill="white" stroke="black" points="575.84,-287.43 575.84,-307.43 653.51,-307.43 653.51,-287.43 575.84,-287.43"/>
<text text-anchor="middle" x="614.67" y="-294.43" font-family="Helvetica,sans-Serif" font-size="10.00">tb_rTwoOrder</text>
</a>
</g>
</g>
<!-- Node28&#45;&gt;Node29 -->
<g id="edge7" class="edge">
<title>Node28&#45;&gt;Node29</title>
<path fill="none" stroke="midnightblue" d="M528.31,-297.43C543.44,-297.43 560.51,-297.43 575.39,-297.43"/>
<polygon fill="midnightblue" stroke="midnightblue" points="528.19,-293.93 518.19,-297.43 528.19,-300.93 528.19,-293.93"/>
</g>
<!-- Node25 -->
<g id="node10" class="node">
<title>Node25</title>
<g id="a_node10"><a xlink:href="d6/ddb/classcommon__delay.html" target="_top" xlink:title=" ">
<polygon fill="white" stroke="black" points="5.28,-10.43 5.28,-30.43 89.07,-30.43 89.07,-10.43 5.28,-10.43"/>
<text text-anchor="middle" x="47.17" y="-17.43" font-family="Helvetica,sans-Serif" font-size="10.00">common_delay</text>
</a>
</g>
</g>
<!-- Node25&#45;&gt;Node24 -->
<g id="edge12" class="edge">
<title>Node25&#45;&gt;Node24</title>
<path fill="none" stroke="midnightblue" d="M91.21,-8.07C132.16,1.02 193.83,7.49 237.47,-20.43 269.63,-41.01 244.79,-73.22 273.47,-98.43 279.93,-104.11 288.08,-108.09 296.29,-110.88"/>
<polygon fill="midnightblue" stroke="midnightblue" points="90.19,-4.71 81.27,-10.41 91.8,-11.52 90.19,-4.71"/>
</g>
<!-- Node26 -->
<g id="node11" class="node">
<title>Node26</title>
<g id="a_node11"><a xlink:href="dc/d77/classrTwoBF.html" target="_top" xlink:title="digraph rTwoBF { 	rankdir=&quot;LR&quot;; &#160;node [shape=box, fontname=Helvetica, fontsize=12,...">
<polygon fill="white" stroke="black" points="158.41,-29.43 158.41,-49.43 209.41,-49.43 209.41,-29.43 158.41,-29.43"/>
<text text-anchor="middle" x="183.91" y="-36.43" font-family="Helvetica,sans-Serif" font-size="10.00">rTwoBF</text>
</a>
</g>
</g>
<!-- Node25&#45;&gt;Node26 -->
<g id="edge10" class="edge">
<title>Node25&#45;&gt;Node26</title>
<path fill="none" stroke="midnightblue" d="M99.31,-27.64C119.43,-30.48 141.59,-33.6 158.04,-35.92"/>
<polygon fill="midnightblue" stroke="midnightblue" points="99.72,-24.17 89.33,-26.23 98.74,-31.1 99.72,-24.17"/>
</g>
<!-- Node26&#45;&gt;Node24 -->
<g id="edge11" class="edge">
<title>Node26&#45;&gt;Node24</title>
<path fill="none" stroke="midnightblue" d="M218.81,-53.63C225.21,-56.84 231.7,-60.48 237.47,-64.43 255.63,-76.86 254.48,-87.3 273.47,-98.43 280.51,-102.56 288.55,-105.89 296.41,-108.53"/>
<polygon fill="midnightblue" stroke="midnightblue" points="220.12,-50.38 209.59,-49.25 217.12,-56.7 220.12,-50.38"/>
</g>
<!-- Node19 -->
<g id="node12" class="node">
<title>Node19</title>
<g id="a_node12"><a xlink:href="d3/d5d/classcommon__pipeline.html" target="_top" xlink:title=" ">
<polygon fill="white" stroke="black" points="0,-204.43 0,-224.43 94.35,-224.43 94.35,-204.43 0,-204.43"/>
<text text-anchor="middle" x="47.17" y="-211.43" font-family="Helvetica,sans-Serif" font-size="10.00">common_pipeline</text>
</a>
</g>
</g>
<!-- Node19&#45;&gt;Node24 -->
<g id="edge21" class="edge">
<title>Node19&#45;&gt;Node24</title>
<path fill="none" stroke="midnightblue" d="M55.33,-194.82C66.53,-167.41 91.08,-118.74 130.35,-98.43 172.64,-76.56 190.08,-93.82 237.47,-98.43 257.04,-100.34 278.52,-104.36 296.25,-108.22"/>
<polygon fill="midnightblue" stroke="midnightblue" points="52.05,-193.59 51.69,-204.18 58.58,-196.13 52.05,-193.59"/>
</g>
<!-- Node19&#45;&gt;Node1 -->
<g id="edge22" class="edge">
<title>Node19&#45;&gt;Node1</title>
<path fill="none" stroke="midnightblue" d="M65.89,-231.86C81.42,-245.84 105.38,-264.41 130.35,-272.43 243.06,-308.64 287.26,-318.56 396.71,-273.43 435.58,-257.4 466.4,-215.13 479.04,-195.6"/>
<polygon fill="midnightblue" stroke="midnightblue" points="67.87,-228.92 58.17,-224.66 63.09,-234.04 67.87,-228.92"/>
</g>
<!-- Node20 -->
<g id="node13" class="node">
<title>Node20</title>
<g id="a_node13"><a xlink:href="de/d7e/classcommon__add__sub.html" target="_top" xlink:title="digraph common_add_sub { 	rankdir=&quot;LR&quot;; &#160;node [shape=box, fontname=Helvetica, fontsize=12,...">
<polygon fill="white" stroke="black" points="134.78,-224.43 134.78,-244.43 233.03,-244.43 233.03,-224.43 134.78,-224.43"/>
<text text-anchor="middle" x="183.91" y="-231.43" font-family="Helvetica,sans-Serif" font-size="10.00">common_add_sub</text>
</a>
</g>
</g>
<!-- Node19&#45;&gt;Node20 -->
<g id="edge13" class="edge">
<title>Node19&#45;&gt;Node20</title>
<path fill="none" stroke="midnightblue" d="M104.74,-222.83C114.68,-224.3 124.94,-225.83 134.62,-227.26"/>
<polygon fill="midnightblue" stroke="midnightblue" points="104.95,-219.32 94.54,-221.31 103.92,-226.24 104.95,-219.32"/>
</g>
<!-- Node21 -->
<g id="node14" class="node">
<title>Node21</title>
<g id="a_node14"><a xlink:href="dc/df9/classcommon__add__sub__tb.html" target="_top" xlink:title=" ">
<polygon fill="white" stroke="black" points="279.02,-243.43 279.02,-263.43 391.16,-263.43 391.16,-243.43 279.02,-243.43"/>
<text text-anchor="middle" x="335.09" y="-250.43" font-family="Helvetica,sans-Serif" font-size="10.00">common_add_sub_tb</text>
</a>
</g>
</g>
<!-- Node19&#45;&gt;Node21 -->
<g id="edge15" class="edge">
<title>Node19&#45;&gt;Node21</title>
<path fill="none" stroke="midnightblue" d="M72.05,-229.65C87.9,-238.83 109.54,-249.64 130.35,-254.43 179.64,-265.79 237.43,-264.15 278.85,-260.48"/>
<polygon fill="midnightblue" stroke="midnightblue" points="73.82,-226.63 63.44,-224.5 70.22,-232.64 73.82,-226.63"/>
</g>
<!-- Node22 -->
<g id="node15" class="node">
<title>Node22</title>
<g id="a_node15"><a xlink:href="d5/dc5/classcommon__pipeline__sl.html" target="_top" xlink:title=" ">
<polygon fill="white" stroke="black" points="130.35,-146.43 130.35,-166.43 237.47,-166.43 237.47,-146.43 130.35,-146.43"/>
<text text-anchor="middle" x="183.91" y="-153.43" font-family="Helvetica,sans-Serif" font-size="10.00">common_pipeline_sl</text>
</a>
</g>
</g>
<!-- Node19&#45;&gt;Node22 -->
<g id="edge16" class="edge">
<title>Node19&#45;&gt;Node22</title>
<path fill="none" stroke="midnightblue" d="M81.13,-200.24C105.32,-189.83 137.59,-175.94 159.26,-166.61"/>
<polygon fill="midnightblue" stroke="midnightblue" points="79.44,-197.16 71.64,-204.33 82.21,-203.59 79.44,-197.16"/>
</g>
<!-- Node23 -->
<g id="node16" class="node">
<title>Node23</title>
<g id="a_node16"><a xlink:href="dd/d43/classcommon__select__symbol.html" target="_top" xlink:title=" ">
<polygon fill="white" stroke="black" points="273.47,-185.43 273.47,-205.43 396.71,-205.43 396.71,-185.43 273.47,-185.43"/>
<text text-anchor="middle" x="335.09" y="-192.43" font-family="Helvetica,sans-Serif" font-size="10.00">common_select_symbol</text>
</a>
</g>
</g>
<!-- Node19&#45;&gt;Node23 -->
<g id="edge20" class="edge">
<title>Node19&#45;&gt;Node23</title>
<path fill="none" stroke="midnightblue" d="M104.48,-210.69C153.21,-207.45 223.5,-202.78 273.45,-199.46"/>
<polygon fill="midnightblue" stroke="midnightblue" points="104.17,-207.2 94.43,-211.36 104.64,-214.19 104.17,-207.2"/>
</g>
<!-- Node20&#45;&gt;Node21 -->
<g id="edge14" class="edge">
<title>Node20&#45;&gt;Node21</title>
<path fill="none" stroke="midnightblue" d="M243.43,-241.89C255.11,-243.37 267.35,-244.93 278.91,-246.4"/>
<polygon fill="midnightblue" stroke="midnightblue" points="243.7,-238.39 233.34,-240.6 242.82,-245.34 243.7,-238.39"/>
</g>
<!-- Node22&#45;&gt;Node24 -->
<g id="edge18" class="edge">
<title>Node22&#45;&gt;Node24</title>
<path fill="none" stroke="midnightblue" d="M233.1,-143.83C253.59,-138.48 277.12,-132.32 296.32,-127.31"/>
<polygon fill="midnightblue" stroke="midnightblue" points="232.11,-140.47 223.33,-146.39 233.89,-147.24 232.11,-140.47"/>
</g>
<!-- Node22&#45;&gt;Node1 -->
<g id="edge19" class="edge">
<title>Node22&#45;&gt;Node1</title>
<path fill="none" stroke="midnightblue" d="M247.69,-162.24C289.84,-166.17 346.62,-171.52 396.71,-176.43 412.09,-177.94 428.97,-179.64 443.83,-181.16"/>
<polygon fill="midnightblue" stroke="midnightblue" points="247.86,-158.74 237.58,-161.3 247.21,-165.71 247.86,-158.74"/>
</g>
<!-- Node22&#45;&gt;Node23 -->
<g id="edge17" class="edge">
<title>Node22&#45;&gt;Node23</title>
<path fill="none" stroke="midnightblue" d="M233.03,-169.01C253.35,-174.32 276.68,-180.42 295.8,-185.42"/>
<polygon fill="midnightblue" stroke="midnightblue" points="233.89,-165.62 223.33,-166.47 232.11,-172.39 233.89,-165.62"/>
</g>
<!-- Node0 -->
<g id="node17" class="node">
<title>Node0</title>
<g id="a_node17"><a xlink:href="d4/d46/classrTwoWeights.html" target="_top" xlink:title=" ">
<polygon fill="white" stroke="black" points="297.92,-68.43 297.92,-88.43 372.25,-88.43 372.25,-68.43 297.92,-68.43"/>
<text text-anchor="middle" x="335.09" y="-75.43" font-family="Helvetica,sans-Serif" font-size="10.00">rTwoWeights</text>
</a>
</g>
</g>
<!-- Node0&#45;&gt;Node1 -->
<g id="edge23" class="edge">
<title>Node0&#45;&gt;Node1</title>
<path fill="none" stroke="midnightblue" d="M382.27,-91.16C387.29,-93.28 392.21,-95.69 396.71,-98.43 431.67,-119.75 463.52,-157.35 477.62,-175.32"/>
<polygon fill="midnightblue" stroke="midnightblue" points="383.14,-87.75 372.55,-87.47 380.65,-94.29 383.14,-87.75"/>
</g>
</g>
</svg>
