<?xml version="1.0" encoding="UTF-8" standalone="no"?>
<!DOCTYPE svg PUBLIC "-//W3C//DTD SVG 1.1//EN"
 "http://www.w3.org/Graphics/SVG/1.1/DTD/svg11.dtd">
<!-- Generated by graphviz version 2.44.0 (0)
 -->
<!-- Title: Graphical Class Hierarchy Pages: 1 -->
<svg width="416pt" height="29pt"
 viewBox="0.00 0.00 416.43 29.00" xmlns="http://www.w3.org/2000/svg" xmlns:xlink="http://www.w3.org/1999/xlink">
<g id="graph0" class="graph" transform="scale(1 1) rotate(0) translate(4 25)">
<title>Graphical Class Hierarchy</title>
<polygon fill="white" stroke="transparent" points="-4,4 -4,-25 412.43,-25 412.43,4 -4,4"/>
<!-- Node0 -->
<g id="node1" class="node">
<title>Node0</title>
<g id="a_node1"><a xlink:href="de/d7e/classcommon__add__sub.html" target="_top" xlink:title="digraph example { &#160;node [shape=record, fontname=Helvetica, fontsize=10,color=&quot;black&quot;]; &#160;DataExtract [...">
<polygon fill="white" stroke="black" points="0,-0.5 0,-20.5 98.25,-20.5 98.25,-0.5 0,-0.5"/>
<text text-anchor="middle" x="49.12" y="-7.5" font-family="Helvetica,sans-Serif" font-size="10.00">common_add_sub</text>
</a>
</g>
</g>
<!-- Node1 -->
<g id="node2" class="node">
<title>Node1</title>
<g id="a_node2"><a xlink:href="dc/df9/classcommon__add__sub__tb.html" target="_top" xlink:title=" ">
<polygon fill="white" stroke="black" points="134.25,-0.5 134.25,-20.5 246.39,-20.5 246.39,-0.5 134.25,-0.5"/>
<text text-anchor="middle" x="190.32" y="-7.5" font-family="Helvetica,sans-Serif" font-size="10.00">common_add_sub_tb</text>
</a>
</g>
</g>
<!-- Node0&#45;&gt;Node1 -->
<g id="edge1" class="edge">
<title>Node0&#45;&gt;Node1</title>
<path fill="none" stroke="midnightblue" d="M108.54,-10.5C116.96,-10.5 125.6,-10.5 133.95,-10.5"/>
<polygon fill="midnightblue" stroke="midnightblue" points="108.42,-7 98.42,-10.5 108.42,-14 108.42,-7"/>
</g>
<!-- Node2 -->
<g id="node3" class="node">
<title>Node2</title>
<g id="a_node3"><a xlink:href="d5/de9/classcommon__add__sub__tb__tb.html" target="_top" xlink:title=" ">
<polygon fill="white" stroke="black" points="282.39,-0.5 282.39,-20.5 408.43,-20.5 408.43,-0.5 282.39,-0.5"/>
<text text-anchor="middle" x="345.41" y="-7.5" font-family="Helvetica,sans-Serif" font-size="10.00">common_add_sub_tb_tb</text>
</a>
</g>
</g>
<!-- Node1&#45;&gt;Node2 -->
<g id="edge2" class="edge">
<title>Node1&#45;&gt;Node2</title>
<path fill="none" stroke="midnightblue" d="M256.77,-10.5C265.21,-10.5 273.83,-10.5 282.21,-10.5"/>
<polygon fill="midnightblue" stroke="midnightblue" points="256.59,-7 246.59,-10.5 256.59,-14 256.59,-7"/>
</g>
</g>
</svg>
