<?xml version="1.0" encoding="UTF-8" standalone="no"?>
<!DOCTYPE svg PUBLIC "-//W3C//DTD SVG 1.1//EN"
 "http://www.w3.org/Graphics/SVG/1.1/DTD/svg11.dtd">
<!-- Generated by graphviz version 2.44.0 (0)
 -->
<!-- Title: Graphical Class Hierarchy Pages: 1 -->
<svg width="372pt" height="107pt"
 viewBox="0.00 0.00 371.92 107.00" xmlns="http://www.w3.org/2000/svg" xmlns:xlink="http://www.w3.org/1999/xlink">
<g id="graph0" class="graph" transform="scale(1 1) rotate(0) translate(4 103)">
<title>Graphical Class Hierarchy</title>
<polygon fill="white" stroke="transparent" points="-4,4 -4,-103 367.92,-103 367.92,4 -4,4"/>
<!-- Node32 -->
<g id="node1" class="node">
<title>Node32</title>
<g id="a_node1"><a xlink:href="db/d85/classcommon__async.html" target="_top" xlink:title=" ">
<polygon fill="white" stroke="black" points="0.83,-78.5 0.83,-98.5 86.84,-98.5 86.84,-78.5 0.83,-78.5"/>
<text text-anchor="middle" x="43.83" y="-85.5" font-family="Helvetica,sans-Serif" font-size="10.00">common_async</text>
</a>
</g>
</g>
<!-- Node33 -->
<g id="node2" class="node">
<title>Node33</title>
<g id="a_node2"><a xlink:href="dc/db3/classcommon__areset.html" target="_top" xlink:title=" ">
<polygon fill="white" stroke="black" points="130.61,-78.5 130.61,-98.5 218.29,-98.5 218.29,-78.5 130.61,-78.5"/>
<text text-anchor="middle" x="174.45" y="-85.5" font-family="Helvetica,sans-Serif" font-size="10.00">common_areset</text>
</a>
</g>
</g>
<!-- Node32&#45;&gt;Node33 -->
<g id="edge1" class="edge">
<title>Node32&#45;&gt;Node33</title>
<path fill="none" stroke="midnightblue" d="M96.96,-88.5C108.05,-88.5 119.65,-88.5 130.36,-88.5"/>
<polygon fill="midnightblue" stroke="midnightblue" points="96.95,-85 86.95,-88.5 96.95,-92 96.95,-85"/>
</g>
<!-- Node2 -->
<g id="node3" class="node">
<title>Node2</title>
<g id="a_node3"><a xlink:href="d9/d17/classcommon__spulse__tb.html" target="_top" xlink:title=" ">
<polygon fill="white" stroke="black" points="261.24,-58.5 261.24,-78.5 363.92,-78.5 363.92,-58.5 261.24,-58.5"/>
<text text-anchor="middle" x="312.58" y="-65.5" font-family="Helvetica,sans-Serif" font-size="10.00">common_spulse_tb</text>
</a>
</g>
</g>
<!-- Node33&#45;&gt;Node2 -->
<g id="edge2" class="edge">
<title>Node33&#45;&gt;Node2</title>
<path fill="none" stroke="midnightblue" d="M228.61,-80.69C239.32,-79.12 250.56,-77.47 261.18,-75.9"/>
<polygon fill="midnightblue" stroke="midnightblue" points="227.91,-77.26 218.52,-82.17 228.93,-84.18 227.91,-77.26"/>
</g>
<!-- Node0 -->
<g id="node4" class="node">
<title>Node0</title>
<g id="a_node4"><a xlink:href="d4/d0e/classcommon__switch.html" target="_top" xlink:title=" ">
<polygon fill="white" stroke="black" points="0,-20.5 0,-40.5 87.67,-40.5 87.67,-20.5 0,-20.5"/>
<text text-anchor="middle" x="43.83" y="-27.5" font-family="Helvetica,sans-Serif" font-size="10.00">common_switch</text>
</a>
</g>
</g>
<!-- Node1 -->
<g id="node5" class="node">
<title>Node1</title>
<g id="a_node5"><a xlink:href="d7/d95/classcommon__spulse.html" target="_top" xlink:title=" ">
<polygon fill="white" stroke="black" points="130.06,-39.5 130.06,-59.5 218.85,-59.5 218.85,-39.5 130.06,-39.5"/>
<text text-anchor="middle" x="174.45" y="-46.5" font-family="Helvetica,sans-Serif" font-size="10.00">common_spulse</text>
</a>
</g>
</g>
<!-- Node0&#45;&gt;Node1 -->
<g id="edge3" class="edge">
<title>Node0&#45;&gt;Node1</title>
<path fill="none" stroke="midnightblue" d="M97.98,-38.35C108.54,-39.91 119.52,-41.53 129.72,-43.04"/>
<polygon fill="midnightblue" stroke="midnightblue" points="98.43,-34.88 88.02,-36.88 97.4,-41.8 98.43,-34.88"/>
</g>
<!-- Node3 -->
<g id="node6" class="node">
<title>Node3</title>
<g id="a_node6"><a xlink:href="d6/d3d/classcommon__switch__tb.html" target="_top" xlink:title=" ">
<polygon fill="white" stroke="black" points="123.67,-0.5 123.67,-20.5 225.24,-20.5 225.24,-0.5 123.67,-0.5"/>
<text text-anchor="middle" x="174.45" y="-7.5" font-family="Helvetica,sans-Serif" font-size="10.00">common_switch_tb</text>
</a>
</g>
</g>
<!-- Node0&#45;&gt;Node3 -->
<g id="edge5" class="edge">
<title>Node0&#45;&gt;Node3</title>
<path fill="none" stroke="midnightblue" d="M98.1,-22.22C106.51,-20.91 115.17,-19.56 123.49,-18.27"/>
<polygon fill="midnightblue" stroke="midnightblue" points="97.36,-18.79 88.02,-23.78 98.44,-25.71 97.36,-18.79"/>
</g>
<!-- Node1&#45;&gt;Node2 -->
<g id="edge4" class="edge">
<title>Node1&#45;&gt;Node2</title>
<path fill="none" stroke="midnightblue" d="M228.85,-56.95C239.42,-58.43 250.48,-59.97 260.96,-61.43"/>
<polygon fill="midnightblue" stroke="midnightblue" points="229.29,-53.48 218.9,-55.56 228.32,-60.41 229.29,-53.48"/>
</g>
</g>
</svg>
