<?xml version="1.0" encoding="UTF-8" standalone="no"?>
<!DOCTYPE svg PUBLIC "-//W3C//DTD SVG 1.1//EN"
 "http://www.w3.org/Graphics/SVG/1.1/DTD/svg11.dtd">
<!-- Generated by graphviz version 2.44.0 (0)
 -->
<!-- Title: common_bit_delay Pages: 1 -->
<svg width="108pt" height="257pt"
 viewBox="0.00 0.00 107.91 257.00" xmlns="http://www.w3.org/2000/svg" xmlns:xlink="http://www.w3.org/1999/xlink">
<g id="graph0" class="graph" transform="scale(1 1) rotate(0) translate(4 253)">
<title>common_bit_delay</title>
<polygon fill="white" stroke="transparent" points="-4,4 -4,-253 103.91,-253 103.91,4 -4,4"/>
<!-- Node1 -->
<g id="node1" class="node">
<title>Node1</title>
<g id="a_node1"><a xlink:title=" ">
<polygon fill="#bfbfbf" stroke="black" points="0,-228.5 0,-248.5 99.91,-248.5 99.91,-228.5 0,-228.5"/>
<text text-anchor="middle" x="49.95" y="-235.5" font-family="Helvetica,sans-Serif" font-size="10.00">common_bit_delay</text>
</a>
</g>
</g>
<!-- Node2 -->
<g id="node2" class="node">
<title>Node2</title>
<g id="a_node2"><a xlink:href="../../dd/dc9/classrTwoBFStage.html" target="_top" xlink:title=" ">
<polygon fill="white" stroke="black" points="11.39,-171.5 11.39,-191.5 88.51,-191.5 88.51,-171.5 11.39,-171.5"/>
<text text-anchor="middle" x="49.95" y="-178.5" font-family="Helvetica,sans-Serif" font-size="10.00">rTwoBFStage</text>
</a>
</g>
</g>
<!-- Node1&#45;&gt;Node2 -->
<g id="edge1" class="edge">
<title>Node1&#45;&gt;Node2</title>
<path fill="none" stroke="midnightblue" d="M49.95,-218.38C49.95,-209.37 49.95,-199.04 49.95,-191.78"/>
<polygon fill="midnightblue" stroke="midnightblue" points="46.45,-218.42 49.95,-228.42 53.45,-218.42 46.45,-218.42"/>
</g>
<!-- Node3 -->
<g id="node3" class="node">
<title>Node3</title>
<g id="a_node3"><a xlink:href="../../d3/da3/classrTwoSDFStage.html" target="_top" xlink:title=" ">
<polygon fill="white" stroke="black" points="7.78,-114.5 7.78,-134.5 92.12,-134.5 92.12,-114.5 7.78,-114.5"/>
<text text-anchor="middle" x="49.95" y="-121.5" font-family="Helvetica,sans-Serif" font-size="10.00">rTwoSDFStage</text>
</a>
</g>
</g>
<!-- Node2&#45;&gt;Node3 -->
<g id="edge2" class="edge">
<title>Node2&#45;&gt;Node3</title>
<path fill="none" stroke="midnightblue" d="M49.95,-161.38C49.95,-152.37 49.95,-142.04 49.95,-134.78"/>
<polygon fill="midnightblue" stroke="midnightblue" points="46.45,-161.42 49.95,-171.42 53.45,-161.42 46.45,-161.42"/>
</g>
<!-- Node4 -->
<g id="node4" class="node">
<title>Node4</title>
<g id="a_node4"><a xlink:href="../../da/d05/classrTwoSDF.html" target="_top" xlink:title=" ">
<polygon fill="white" stroke="black" points="20.85,-57.5 20.85,-77.5 79.06,-77.5 79.06,-57.5 20.85,-57.5"/>
<text text-anchor="middle" x="49.95" y="-64.5" font-family="Helvetica,sans-Serif" font-size="10.00">rTwoSDF</text>
</a>
</g>
</g>
<!-- Node3&#45;&gt;Node4 -->
<g id="edge3" class="edge">
<title>Node3&#45;&gt;Node4</title>
<path fill="none" stroke="midnightblue" d="M49.95,-104.38C49.95,-95.37 49.95,-85.04 49.95,-77.78"/>
<polygon fill="midnightblue" stroke="midnightblue" points="46.45,-104.42 49.95,-114.42 53.45,-104.42 46.45,-104.42"/>
</g>
<!-- Node5 -->
<g id="node5" class="node">
<title>Node5</title>
<g id="a_node5"><a xlink:href="../../d0/d99/classtb__rTwoSDF.html" target="_top" xlink:title=" ">
<polygon fill="white" stroke="black" points="13.9,-0.5 13.9,-20.5 86.01,-20.5 86.01,-0.5 13.9,-0.5"/>
<text text-anchor="middle" x="49.95" y="-7.5" font-family="Helvetica,sans-Serif" font-size="10.00">tb_rTwoSDF</text>
</a>
</g>
</g>
<!-- Node4&#45;&gt;Node5 -->
<g id="edge4" class="edge">
<title>Node4&#45;&gt;Node5</title>
<path fill="none" stroke="midnightblue" d="M49.95,-47.38C49.95,-38.37 49.95,-28.04 49.95,-20.78"/>
<polygon fill="midnightblue" stroke="midnightblue" points="46.45,-47.42 49.95,-57.42 53.45,-47.42 46.45,-47.42"/>
</g>
</g>
</svg>
