<?xml version="1.0" encoding="UTF-8" standalone="no"?>
<!DOCTYPE svg PUBLIC "-//W3C//DTD SVG 1.1//EN"
 "http://www.w3.org/Graphics/SVG/1.1/DTD/svg11.dtd">
<!-- Generated by graphviz version 2.44.0 (0)
 -->
<!-- Title: common_counter Pages: 1 -->
<svg width="299pt" height="200pt"
 viewBox="0.00 0.00 298.74 200.00" xmlns="http://www.w3.org/2000/svg" xmlns:xlink="http://www.w3.org/1999/xlink">
<g id="graph0" class="graph" transform="scale(1 1) rotate(0) translate(4 196)">
<title>common_counter</title>
<polygon fill="white" stroke="transparent" points="-4,4 -4,-196 294.74,-196 294.74,4 -4,4"/>
<!-- Node1 -->
<g id="node1" class="node">
<title>Node1</title>
<g id="a_node1"><a xlink:title=" ">
<polygon fill="#bfbfbf" stroke="black" points="87.55,-171.5 87.55,-191.5 180.79,-191.5 180.79,-171.5 87.55,-171.5"/>
<text text-anchor="middle" x="134.17" y="-178.5" font-family="Helvetica,sans-Serif" font-size="10.00">common_counter</text>
</a>
</g>
</g>
<!-- Node2 -->
<g id="node2" class="node">
<title>Node2</title>
<g id="a_node2"><a xlink:href="../../de/d39/classrTwoOrder.html" target="_top" xlink:title=" ">
<polygon fill="white" stroke="black" points="102.28,-114.5 102.28,-134.5 166.05,-134.5 166.05,-114.5 102.28,-114.5"/>
<text text-anchor="middle" x="134.17" y="-121.5" font-family="Helvetica,sans-Serif" font-size="10.00">rTwoOrder</text>
</a>
</g>
</g>
<!-- Node1&#45;&gt;Node2 -->
<g id="edge1" class="edge">
<title>Node1&#45;&gt;Node2</title>
<path fill="none" stroke="midnightblue" d="M134.17,-161.38C134.17,-152.37 134.17,-142.04 134.17,-134.78"/>
<polygon fill="midnightblue" stroke="midnightblue" points="130.67,-161.42 134.17,-171.42 137.67,-161.42 130.67,-161.42"/>
</g>
<!-- Node6 -->
<g id="node6" class="node">
<title>Node6</title>
<g id="a_node6"><a xlink:href="../../d3/da3/classrTwoSDFStage.html" target="_top" xlink:title=" ">
<polygon fill="white" stroke="black" points="0,-114.5 0,-134.5 84.34,-134.5 84.34,-114.5 0,-114.5"/>
<text text-anchor="middle" x="42.17" y="-121.5" font-family="Helvetica,sans-Serif" font-size="10.00">rTwoSDFStage</text>
</a>
</g>
</g>
<!-- Node1&#45;&gt;Node6 -->
<g id="edge5" class="edge">
<title>Node1&#45;&gt;Node6</title>
<path fill="none" stroke="midnightblue" d="M110.3,-166.23C93.59,-156.24 71.77,-143.2 57.38,-134.6"/>
<polygon fill="midnightblue" stroke="midnightblue" points="108.6,-169.29 118.98,-171.42 112.19,-163.28 108.6,-169.29"/>
</g>
<!-- Node7 -->
<g id="node7" class="node">
<title>Node7</title>
<g id="a_node7"><a xlink:href="../../d5/d6f/classtb__common__counter.html" target="_top" xlink:title=" ">
<polygon fill="white" stroke="black" points="183.6,-114.5 183.6,-134.5 290.74,-134.5 290.74,-114.5 183.6,-114.5"/>
<text text-anchor="middle" x="237.17" y="-121.5" font-family="Helvetica,sans-Serif" font-size="10.00">tb_common_counter</text>
</a>
</g>
</g>
<!-- Node1&#45;&gt;Node7 -->
<g id="edge7" class="edge">
<title>Node1&#45;&gt;Node7</title>
<path fill="none" stroke="midnightblue" d="M160.11,-166.65C178.91,-156.61 203.8,-143.32 220.14,-134.6"/>
<polygon fill="midnightblue" stroke="midnightblue" points="158.35,-163.62 151.18,-171.42 161.65,-169.79 158.35,-163.62"/>
</g>
<!-- Node3 -->
<g id="node3" class="node">
<title>Node3</title>
<g id="a_node3"><a xlink:href="../../da/d05/classrTwoSDF.html" target="_top" xlink:title=" ">
<polygon fill="white" stroke="black" points="16.06,-57.5 16.06,-77.5 74.28,-77.5 74.28,-57.5 16.06,-57.5"/>
<text text-anchor="middle" x="45.17" y="-64.5" font-family="Helvetica,sans-Serif" font-size="10.00">rTwoSDF</text>
</a>
</g>
</g>
<!-- Node2&#45;&gt;Node3 -->
<g id="edge2" class="edge">
<title>Node2&#45;&gt;Node3</title>
<path fill="none" stroke="midnightblue" d="M110.63,-108.95C94.53,-99 73.68,-86.12 59.89,-77.6"/>
<polygon fill="midnightblue" stroke="midnightblue" points="109.13,-112.14 119.47,-114.42 112.81,-106.18 109.13,-112.14"/>
</g>
<!-- Node5 -->
<g id="node5" class="node">
<title>Node5</title>
<g id="a_node5"><a xlink:href="../../d1/da5/classtb__rTwoOrder.html" target="_top" xlink:title=" ">
<polygon fill="white" stroke="black" points="95.33,-57.5 95.33,-77.5 173,-77.5 173,-57.5 95.33,-57.5"/>
<text text-anchor="middle" x="134.17" y="-64.5" font-family="Helvetica,sans-Serif" font-size="10.00">tb_rTwoOrder</text>
</a>
</g>
</g>
<!-- Node2&#45;&gt;Node5 -->
<g id="edge4" class="edge">
<title>Node2&#45;&gt;Node5</title>
<path fill="none" stroke="midnightblue" d="M134.17,-104.38C134.17,-95.37 134.17,-85.04 134.17,-77.78"/>
<polygon fill="midnightblue" stroke="midnightblue" points="130.67,-104.42 134.17,-114.42 137.67,-104.42 130.67,-104.42"/>
</g>
<!-- Node4 -->
<g id="node4" class="node">
<title>Node4</title>
<g id="a_node4"><a xlink:href="../../d0/d99/classtb__rTwoSDF.html" target="_top" xlink:title=" ">
<polygon fill="white" stroke="black" points="9.11,-0.5 9.11,-20.5 81.22,-20.5 81.22,-0.5 9.11,-0.5"/>
<text text-anchor="middle" x="45.17" y="-7.5" font-family="Helvetica,sans-Serif" font-size="10.00">tb_rTwoSDF</text>
</a>
</g>
</g>
<!-- Node3&#45;&gt;Node4 -->
<g id="edge3" class="edge">
<title>Node3&#45;&gt;Node4</title>
<path fill="none" stroke="midnightblue" d="M45.17,-47.38C45.17,-38.37 45.17,-28.04 45.17,-20.78"/>
<polygon fill="midnightblue" stroke="midnightblue" points="41.67,-47.42 45.17,-57.42 48.67,-47.42 41.67,-47.42"/>
</g>
<!-- Node6&#45;&gt;Node3 -->
<g id="edge6" class="edge">
<title>Node6&#45;&gt;Node3</title>
<path fill="none" stroke="midnightblue" d="M43.21,-104.38C43.7,-95.37 44.27,-85.04 44.66,-77.78"/>
<polygon fill="midnightblue" stroke="midnightblue" points="39.71,-104.24 42.66,-114.42 46.7,-104.62 39.71,-104.24"/>
</g>
</g>
</svg>
