<?xml version="1.0" encoding="UTF-8" standalone="no"?>
<!DOCTYPE svg PUBLIC "-//W3C//DTD SVG 1.1//EN"
 "http://www.w3.org/Graphics/SVG/1.1/DTD/svg11.dtd">
<!-- Generated by graphviz version 2.44.0 (0)
 -->
<!-- Title: common_delay Pages: 1 -->
<svg width="102pt" height="314pt"
 viewBox="0.00 0.00 101.67 314.00" xmlns="http://www.w3.org/2000/svg" xmlns:xlink="http://www.w3.org/1999/xlink">
<g id="graph0" class="graph" transform="scale(1 1) rotate(0) translate(4 310)">
<title>common_delay</title>
<polygon fill="white" stroke="transparent" points="-4,4 -4,-310 97.67,-310 97.67,4 -4,4"/>
<!-- Node1 -->
<g id="node1" class="node">
<title>Node1</title>
<g id="a_node1"><a xlink:title=" ">
<polygon fill="#bfbfbf" stroke="black" points="9.6,-285.5 9.6,-305.5 93.39,-305.5 93.39,-285.5 9.6,-285.5"/>
<text text-anchor="middle" x="51.5" y="-292.5" font-family="Helvetica,sans-Serif" font-size="10.00">common_delay</text>
</a>
</g>
</g>
<!-- Node2 -->
<g id="node2" class="node">
<title>Node2</title>
<g id="a_node2"><a xlink:href="../../dc/d77/classrTwoBF.html" target="_top" xlink:title="digraph rTwoBF { 	rankdir=&quot;LR&quot;; &#160;node [shape=box, fontname=Helvetica, fontsize=12,...">
<polygon fill="white" stroke="black" points="0,-228.5 0,-248.5 50.99,-248.5 50.99,-228.5 0,-228.5"/>
<text text-anchor="middle" x="25.5" y="-235.5" font-family="Helvetica,sans-Serif" font-size="10.00">rTwoBF</text>
</a>
</g>
</g>
<!-- Node1&#45;&gt;Node2 -->
<g id="edge1" class="edge">
<title>Node1&#45;&gt;Node2</title>
<path fill="none" stroke="midnightblue" d="M42.88,-276.27C38.52,-267.06 33.43,-256.28 29.88,-248.78"/>
<polygon fill="midnightblue" stroke="midnightblue" points="39.77,-277.87 47.2,-285.42 46.09,-274.88 39.77,-277.87"/>
</g>
<!-- Node3 -->
<g id="node3" class="node">
<title>Node3</title>
<g id="a_node3"><a xlink:href="../../dd/dc9/classrTwoBFStage.html" target="_top" xlink:title=" ">
<polygon fill="white" stroke="black" points="12.94,-171.5 12.94,-191.5 90.06,-191.5 90.06,-171.5 12.94,-171.5"/>
<text text-anchor="middle" x="51.5" y="-178.5" font-family="Helvetica,sans-Serif" font-size="10.00">rTwoBFStage</text>
</a>
</g>
</g>
<!-- Node1&#45;&gt;Node3 -->
<g id="edge6" class="edge">
<title>Node1&#45;&gt;Node3</title>
<path fill="none" stroke="midnightblue" d="M55.59,-275.56C57.15,-267.43 58.73,-257.79 59.5,-249 60.31,-239.7 60.31,-237.3 59.5,-228 58.38,-215.22 55.54,-200.64 53.56,-191.5"/>
<polygon fill="midnightblue" stroke="midnightblue" points="52.13,-275 53.56,-285.5 58.99,-276.4 52.13,-275"/>
</g>
<!-- Node2&#45;&gt;Node3 -->
<g id="edge2" class="edge">
<title>Node2&#45;&gt;Node3</title>
<path fill="none" stroke="midnightblue" d="M34.12,-219.27C38.47,-210.06 43.57,-199.28 47.11,-191.78"/>
<polygon fill="midnightblue" stroke="midnightblue" points="30.9,-217.88 29.79,-228.42 37.23,-220.87 30.9,-217.88"/>
</g>
<!-- Node4 -->
<g id="node4" class="node">
<title>Node4</title>
<g id="a_node4"><a xlink:href="../../d3/da3/classrTwoSDFStage.html" target="_top" xlink:title=" ">
<polygon fill="white" stroke="black" points="9.33,-114.5 9.33,-134.5 93.67,-134.5 93.67,-114.5 9.33,-114.5"/>
<text text-anchor="middle" x="51.5" y="-121.5" font-family="Helvetica,sans-Serif" font-size="10.00">rTwoSDFStage</text>
</a>
</g>
</g>
<!-- Node3&#45;&gt;Node4 -->
<g id="edge3" class="edge">
<title>Node3&#45;&gt;Node4</title>
<path fill="none" stroke="midnightblue" d="M51.5,-161.38C51.5,-152.37 51.5,-142.04 51.5,-134.78"/>
<polygon fill="midnightblue" stroke="midnightblue" points="48,-161.42 51.5,-171.42 55,-161.42 48,-161.42"/>
</g>
<!-- Node5 -->
<g id="node5" class="node">
<title>Node5</title>
<g id="a_node5"><a xlink:href="../../da/d05/classrTwoSDF.html" target="_top" xlink:title=" ">
<polygon fill="white" stroke="black" points="22.39,-57.5 22.39,-77.5 80.6,-77.5 80.6,-57.5 22.39,-57.5"/>
<text text-anchor="middle" x="51.5" y="-64.5" font-family="Helvetica,sans-Serif" font-size="10.00">rTwoSDF</text>
</a>
</g>
</g>
<!-- Node4&#45;&gt;Node5 -->
<g id="edge4" class="edge">
<title>Node4&#45;&gt;Node5</title>
<path fill="none" stroke="midnightblue" d="M51.5,-104.38C51.5,-95.37 51.5,-85.04 51.5,-77.78"/>
<polygon fill="midnightblue" stroke="midnightblue" points="48,-104.42 51.5,-114.42 55,-104.42 48,-104.42"/>
</g>
<!-- Node6 -->
<g id="node6" class="node">
<title>Node6</title>
<g id="a_node6"><a xlink:href="../../d0/d99/classtb__rTwoSDF.html" target="_top" xlink:title=" ">
<polygon fill="white" stroke="black" points="15.44,-0.5 15.44,-20.5 87.55,-20.5 87.55,-0.5 15.44,-0.5"/>
<text text-anchor="middle" x="51.5" y="-7.5" font-family="Helvetica,sans-Serif" font-size="10.00">tb_rTwoSDF</text>
</a>
</g>
</g>
<!-- Node5&#45;&gt;Node6 -->
<g id="edge5" class="edge">
<title>Node5&#45;&gt;Node6</title>
<path fill="none" stroke="midnightblue" d="M51.5,-47.38C51.5,-38.37 51.5,-28.04 51.5,-20.78"/>
<polygon fill="midnightblue" stroke="midnightblue" points="48,-47.42 51.5,-57.42 55,-47.42 48,-47.42"/>
</g>
</g>
</svg>
