<?xml version="1.0" encoding="UTF-8" standalone="no"?>
<!DOCTYPE svg PUBLIC "-//W3C//DTD SVG 1.1//EN"
 "http://www.w3.org/Graphics/SVG/1.1/DTD/svg11.dtd">
<!-- Generated by graphviz version 2.44.0 (0)
 -->
<!-- Title: rTwoSDFStage Pages: 1 -->
<svg width="509pt" height="185pt"
 viewBox="0.00 0.00 508.92 185.00" xmlns="http://www.w3.org/2000/svg" xmlns:xlink="http://www.w3.org/1999/xlink">
<g id="graph0" class="graph" transform="scale(1 1) rotate(0) translate(4 181)">
<title>rTwoSDFStage</title>
<polygon fill="white" stroke="transparent" points="-4,4 -4,-181 504.92,-181 504.92,4 -4,4"/>
<!-- Node1 -->
<g id="node1" class="node">
<title>Node1</title>
<g id="a_node1"><a xlink:title=" ">
<polygon fill="#bfbfbf" stroke="black" points="416.59,-58.5 416.59,-78.5 500.92,-78.5 500.92,-58.5 416.59,-58.5"/>
<text text-anchor="middle" x="458.75" y="-65.5" font-family="Helvetica,sans-Serif" font-size="10.00">rTwoSDFStage</text>
</a>
</g>
</g>
<!-- Node2 -->
<g id="node2" class="node">
<title>Node2</title>
<g id="a_node2"><a xlink:href="../../d1/dc3/classcommon__counter.html" target="_top" xlink:title=" ">
<polygon fill="white" stroke="black" points="287.35,-117.5 287.35,-137.5 380.59,-137.5 380.59,-117.5 287.35,-117.5"/>
<text text-anchor="middle" x="333.97" y="-124.5" font-family="Helvetica,sans-Serif" font-size="10.00">common_counter</text>
</a>
</g>
</g>
<!-- Node2&#45;&gt;Node1 -->
<g id="edge1" class="edge">
<title>Node2&#45;&gt;Node1</title>
<path fill="none" stroke="midnightblue" d="M369.49,-113.48C373.26,-111.85 377.01,-110.17 380.59,-108.5 400.96,-99 423.76,-87 439.26,-78.64"/>
<polygon fill="midnightblue" stroke="midnightblue" points="368.06,-110.29 360.23,-117.42 370.8,-116.73 368.06,-110.29"/>
</g>
<!-- Node3 -->
<g id="node3" class="node">
<title>Node3</title>
<g id="a_node3"><a xlink:href="../../dd/dc9/classrTwoBFStage.html" target="_top" xlink:title=" ">
<polygon fill="white" stroke="black" points="295.41,-78.5 295.41,-98.5 372.53,-98.5 372.53,-78.5 295.41,-78.5"/>
<text text-anchor="middle" x="333.97" y="-85.5" font-family="Helvetica,sans-Serif" font-size="10.00">rTwoBFStage</text>
</a>
</g>
</g>
<!-- Node3&#45;&gt;Node1 -->
<g id="edge2" class="edge">
<title>Node3&#45;&gt;Node1</title>
<path fill="none" stroke="midnightblue" d="M382.78,-80.71C393.89,-78.9 405.61,-76.99 416.41,-75.23"/>
<polygon fill="midnightblue" stroke="midnightblue" points="382.12,-77.27 372.81,-82.34 383.24,-84.18 382.12,-77.27"/>
</g>
<!-- Node4 -->
<g id="node4" class="node">
<title>Node4</title>
<g id="a_node4"><a xlink:href="../../dc/d77/classrTwoBF.html" target="_top" xlink:title="digraph rTwoBF { 	rankdir=&quot;LR&quot;; &#160;node [shape=box, fontname=Helvetica, fontsize=12,...">
<polygon fill="white" stroke="black" points="160.07,-156.5 160.07,-176.5 223.28,-176.5 223.28,-156.5 160.07,-156.5"/>
<text text-anchor="middle" x="191.68" y="-163.5" font-family="Helvetica,sans-Serif" font-size="10.00">rTwoBF(2)</text>
</a>
</g>
</g>
<!-- Node4&#45;&gt;Node3 -->
<g id="edge3" class="edge">
<title>Node4&#45;&gt;Node3</title>
<path fill="none" stroke="midnightblue" d="M233.36,-156.35C239.63,-153.94 245.84,-151.02 251.35,-147.5 271.22,-134.78 268.14,-122.19 287.35,-108.5 292.7,-104.69 298.89,-101.37 304.96,-98.6"/>
<polygon fill="midnightblue" stroke="midnightblue" points="231.86,-153.17 223.54,-159.73 234.14,-159.79 231.86,-153.17"/>
</g>
<!-- Node5 -->
<g id="node5" class="node">
<title>Node5</title>
<g id="a_node5"><a xlink:href="../../d6/ddb/classcommon__delay.html" target="_top" xlink:title=" ">
<polygon fill="white" stroke="black" points="0,-156.5 0,-176.5 96.01,-176.5 96.01,-156.5 0,-156.5"/>
<text text-anchor="middle" x="48" y="-163.5" font-family="Helvetica,sans-Serif" font-size="10.00">common_delay(2)</text>
</a>
</g>
</g>
<!-- Node5&#45;&gt;Node4 -->
<g id="edge4" class="edge">
<title>Node5&#45;&gt;Node4</title>
<path fill="none" stroke="midnightblue" d="M106.18,-166.5C124.49,-166.5 144.05,-166.5 159.75,-166.5"/>
<polygon fill="midnightblue" stroke="midnightblue" points="106.18,-163 96.18,-166.5 106.18,-170 106.18,-163"/>
</g>
<!-- Node6 -->
<g id="node6" class="node">
<title>Node6</title>
<g id="a_node6"><a xlink:href="../../d5/dd7/classcommon__bit__delay.html" target="_top" xlink:title=" ">
<polygon fill="white" stroke="black" points="135.62,-117.5 135.62,-137.5 247.74,-137.5 247.74,-117.5 135.62,-117.5"/>
<text text-anchor="middle" x="191.68" y="-124.5" font-family="Helvetica,sans-Serif" font-size="10.00">common_bit_delay(2)</text>
</a>
</g>
</g>
<!-- Node6&#45;&gt;Node3 -->
<g id="edge5" class="edge">
<title>Node6&#45;&gt;Node3</title>
<path fill="none" stroke="midnightblue" d="M238.45,-114.78C257.44,-109.5 279.14,-103.46 296.96,-98.51"/>
<polygon fill="midnightblue" stroke="midnightblue" points="237.5,-111.41 228.81,-117.46 239.38,-118.15 237.5,-111.41"/>
</g>
<!-- Node7 -->
<g id="node7" class="node">
<title>Node7</title>
<g id="a_node7"><a xlink:href="../../d3/d5d/classcommon__pipeline.html" target="_top" xlink:title=" ">
<polygon fill="white" stroke="black" points="0.83,-59.5 0.83,-79.5 95.18,-79.5 95.18,-59.5 0.83,-59.5"/>
<text text-anchor="middle" x="48" y="-66.5" font-family="Helvetica,sans-Serif" font-size="10.00">common_pipeline</text>
</a>
</g>
</g>
<!-- Node7&#45;&gt;Node3 -->
<g id="edge6" class="edge">
<title>Node7&#45;&gt;Node3</title>
<path fill="none" stroke="midnightblue" d="M105.43,-73.28C161.77,-77.05 246.78,-82.73 295.36,-85.98"/>
<polygon fill="midnightblue" stroke="midnightblue" points="105.47,-69.77 95.26,-72.59 105,-76.75 105.47,-69.77"/>
</g>
<!-- Node8 -->
<g id="node8" class="node">
<title>Node8</title>
<g id="a_node8"><a xlink:href="../../d5/dc5/classcommon__pipeline__sl.html" target="_top" xlink:title=" ">
<polygon fill="white" stroke="black" points="132.01,-39.5 132.01,-59.5 251.35,-59.5 251.35,-39.5 132.01,-39.5"/>
<text text-anchor="middle" x="191.68" y="-46.5" font-family="Helvetica,sans-Serif" font-size="10.00">common_pipeline_sl(2)</text>
</a>
</g>
</g>
<!-- Node7&#45;&gt;Node8 -->
<g id="edge8" class="edge">
<title>Node7&#45;&gt;Node8</title>
<path fill="none" stroke="midnightblue" d="M105.4,-61.54C114.07,-60.31 123.05,-59.05 131.77,-57.82"/>
<polygon fill="midnightblue" stroke="midnightblue" points="104.81,-58.09 95.39,-62.95 105.78,-65.02 104.81,-58.09"/>
</g>
<!-- Node8&#45;&gt;Node3 -->
<g id="edge7" class="edge">
<title>Node8&#45;&gt;Node3</title>
<path fill="none" stroke="midnightblue" d="M238.45,-62.22C257.44,-67.5 279.14,-73.54 296.96,-78.49"/>
<polygon fill="midnightblue" stroke="midnightblue" points="239.38,-58.85 228.81,-59.54 237.5,-65.59 239.38,-58.85"/>
</g>
<!-- Node10 -->
<g id="node10" class="node">
<title>Node10</title>
<g id="a_node10"><a xlink:href="../../d1/d60/classrTwoWMul.html" target="_top" xlink:title=" ">
<polygon fill="white" stroke="black" points="302.09,-39.5 302.09,-59.5 365.85,-59.5 365.85,-39.5 302.09,-39.5"/>
<text text-anchor="middle" x="333.97" y="-46.5" font-family="Helvetica,sans-Serif" font-size="10.00">rTwoWMul</text>
</a>
</g>
</g>
<!-- Node8&#45;&gt;Node10 -->
<g id="edge12" class="edge">
<title>Node8&#45;&gt;Node10</title>
<path fill="none" stroke="midnightblue" d="M261.64,-49.5C275.83,-49.5 290.08,-49.5 302.07,-49.5"/>
<polygon fill="midnightblue" stroke="midnightblue" points="261.36,-46 251.36,-49.5 261.36,-53 261.36,-46"/>
</g>
<!-- Node9 -->
<g id="node9" class="node">
<title>Node9</title>
<g id="a_node9"><a xlink:href="../../d4/d46/classrTwoWeights.html" target="_top" xlink:title=" ">
<polygon fill="white" stroke="black" points="296.8,-0.5 296.8,-20.5 371.13,-20.5 371.13,-0.5 296.8,-0.5"/>
<text text-anchor="middle" x="333.97" y="-7.5" font-family="Helvetica,sans-Serif" font-size="10.00">rTwoWeights</text>
</a>
</g>
</g>
<!-- Node9&#45;&gt;Node1 -->
<g id="edge9" class="edge">
<title>Node9&#45;&gt;Node1</title>
<path fill="none" stroke="midnightblue" d="M367.93,-24.74C372.2,-26.65 376.51,-28.6 380.59,-30.5 400.22,-39.63 422.37,-50.61 437.89,-58.41"/>
<polygon fill="midnightblue" stroke="midnightblue" points="369.3,-21.52 358.73,-20.68 366.47,-27.92 369.3,-21.52"/>
</g>
<!-- Node10&#45;&gt;Node1 -->
<g id="edge10" class="edge">
<title>Node10&#45;&gt;Node1</title>
<path fill="none" stroke="midnightblue" d="M376.06,-55.86C389.1,-57.88 403.52,-60.11 416.57,-62.13"/>
<polygon fill="midnightblue" stroke="midnightblue" points="376.37,-52.36 365.95,-54.29 375.3,-59.28 376.37,-52.36"/>
</g>
<!-- Node11 -->
<g id="node11" class="node">
<title>Node11</title>
<g id="a_node11"><a xlink:href="../../d3/d5d/classcommon__pipeline.html" target="_top" xlink:title=" ">
<polygon fill="white" stroke="black" points="138.4,-0.5 138.4,-20.5 244.96,-20.5 244.96,-0.5 138.4,-0.5"/>
<text text-anchor="middle" x="191.68" y="-7.5" font-family="Helvetica,sans-Serif" font-size="10.00">common_pipeline(2)</text>
</a>
</g>
</g>
<!-- Node11&#45;&gt;Node10 -->
<g id="edge11" class="edge">
<title>Node11&#45;&gt;Node10</title>
<path fill="none" stroke="midnightblue" d="M238.66,-23.28C259.32,-29.03 283.18,-35.66 301.73,-40.82"/>
<polygon fill="midnightblue" stroke="midnightblue" points="239.38,-19.85 228.81,-20.54 237.5,-26.59 239.38,-19.85"/>
</g>
</g>
</svg>
