<?xml version="1.0" encoding="UTF-8" standalone="no"?>
<!DOCTYPE svg PUBLIC "-//W3C//DTD SVG 1.1//EN"
 "http://www.w3.org/Graphics/SVG/1.1/DTD/svg11.dtd">
<!-- Generated by graphviz version 2.44.0 (0)
 -->
<!-- Title: tb_rTwoSDF Pages: 1 -->
<!--zoomable 224 -->
<svg id="main" version="1.1" xmlns="http://www.w3.org/2000/svg" xmlns:xlink="http://www.w3.org/1999/xlink" xml:space="preserve" onload="init(evt)">
<style type="text/css"><![CDATA[
.edge:hover path { stroke: red; }
.edge:hover polygon { stroke: red; fill: red; }
]]></style>
<script type="text/javascript"><![CDATA[
var edges = document.getElementsByTagName('g');
if (edges && edges.length) {
  for (var i=0;i<edges.length;i++) {
    if (edges[i].id.substr(0,4)=='edge') {
      edges[i].setAttribute('class','edge');
    }
  }
}
]]></script>
        <defs>
                <circle id="rim" cx="0" cy="0" r="7"/>
                <circle id="rim2" cx="0" cy="0" r="3.5"/>
                <g id="zoomPlus">
                        <use xlink:href="#rim" fill="#404040">
                                <set attributeName="fill" to="#808080" begin="zoomplus.mouseover" end="zoomplus.mouseout"/>
                        </use>
                        <path d="M-4,0h8M0,-4v8" fill="none" stroke="white" stroke-width="1.5" pointer-events="none"/>
                </g>
                <g id="zoomMin">
                        <use xlink:href="#rim" fill="#404040">
                                <set attributeName="fill" to="#808080" begin="zoomminus.mouseover" end="zoomminus.mouseout"/>
                        </use>
                        <path d="M-4,0h8" fill="none" stroke="white" stroke-width="1.5" pointer-events="none"/>
                </g>
                <g id="dirArrow">
                        <path fill="none" stroke="white" stroke-width="1.5" d="M0,-3.0v7 M-2.5,-0.5L0,-3.0L2.5,-0.5"/>
                </g>
               <g id="resetDef">
                       <use xlink:href="#rim2" fill="#404040">
                               <set attributeName="fill" to="#808080" begin="reset.mouseover" end="reset.mouseout"/>
                       </use>
               </g>
        </defs>

<script type="text/javascript">
var viewWidth = 723;
var viewHeight = 224;
var sectionId = 'dynsection-0';
</script>
<script xlink:href="../../svgpan.js"/>
<svg id="graph" class="graph">
<g id="viewport">
<title>tb_rTwoSDF</title>
<polygon fill="white" stroke="transparent" points="-4,4 -4,-220 719.46,-220 719.46,4 -4,4"/>
<!-- Node1 -->
<g id="node1" class="node">
<title>Node1</title>
<g id="a_node1"><a xlink:title=" ">
<polygon fill="#bfbfbf" stroke="black" points="643.35,-39.5 643.35,-59.5 715.46,-59.5 715.46,-39.5 643.35,-39.5"/>
<text text-anchor="middle" x="679.41" y="-46.5" font-family="Helvetica,sans-Serif" font-size="10.00">tb_rTwoSDF</text>
</a>
</g>
</g>
<!-- Node2 -->
<g id="node2" class="node">
<title>Node2</title>
<g id="a_node2"><a xlink:href="../../da/d05/classrTwoSDF.html" target="_top" xlink:title=" ">
<polygon fill="white" stroke="black" points="549.14,-39.5 549.14,-59.5 607.35,-59.5 607.35,-39.5 549.14,-39.5"/>
<text text-anchor="middle" x="578.25" y="-46.5" font-family="Helvetica,sans-Serif" font-size="10.00">rTwoSDF</text>
</a>
</g>
</g>
<!-- Node2&#45;&gt;Node1 -->
<g id="edge1" class="edge">
<title>Node2&#45;&gt;Node1</title>
<path fill="none" stroke="midnightblue" d="M617.41,-49.5C625.86,-49.5 634.78,-49.5 643.11,-49.5"/>
<polygon fill="midnightblue" stroke="midnightblue" points="617.4,-46 607.4,-49.5 617.4,-53 617.4,-46"/>
</g>
<!-- Node3 -->
<g id="node3" class="node">
<title>Node3</title>
<g id="a_node3"><a xlink:href="../../d3/da3/classrTwoSDFStage.html" target="_top" xlink:title=" ">
<polygon fill="white" stroke="black" points="428.8,-78.5 428.8,-98.5 513.14,-98.5 513.14,-78.5 428.8,-78.5"/>
<text text-anchor="middle" x="470.97" y="-85.5" font-family="Helvetica,sans-Serif" font-size="10.00">rTwoSDFStage</text>
</a>
</g>
</g>
<!-- Node3&#45;&gt;Node2 -->
<g id="edge2" class="edge">
<title>Node3&#45;&gt;Node2</title>
<path fill="none" stroke="midnightblue" d="M508.69,-74.9C522.35,-69.84 537.59,-64.19 550.23,-59.51"/>
<polygon fill="midnightblue" stroke="midnightblue" points="507.24,-71.7 499.08,-78.46 509.68,-78.26 507.24,-71.7"/>
</g>
<!-- Node4 -->
<g id="node4" class="node">
<title>Node4</title>
<g id="a_node4"><a xlink:href="../../d1/dc3/classcommon__counter.html" target="_top" xlink:title=" ">
<polygon fill="white" stroke="black" points="293.46,-156.5 293.46,-176.5 386.69,-176.5 386.69,-156.5 293.46,-156.5"/>
<text text-anchor="middle" x="340.08" y="-163.5" font-family="Helvetica,sans-Serif" font-size="10.00">common_counter</text>
</a>
</g>
</g>
<!-- Node4&#45;&gt;Node3 -->
<g id="edge3" class="edge">
<title>Node4&#45;&gt;Node3</title>
<path fill="none" stroke="midnightblue" d="M382.58,-152.53C386.1,-150.97 389.55,-149.29 392.8,-147.5 418.23,-133.53 444.32,-111.7 458.71,-98.88"/>
<polygon fill="midnightblue" stroke="midnightblue" points="381.11,-149.36 373.2,-156.41 383.78,-155.83 381.11,-149.36"/>
</g>
<!-- Node5 -->
<g id="node5" class="node">
<title>Node5</title>
<g id="a_node5"><a xlink:href="../../dd/dc9/classrTwoBFStage.html" target="_top" xlink:title=" ">
<polygon fill="white" stroke="black" points="301.52,-117.5 301.52,-137.5 378.64,-137.5 378.64,-117.5 301.52,-117.5"/>
<text text-anchor="middle" x="340.08" y="-124.5" font-family="Helvetica,sans-Serif" font-size="10.00">rTwoBFStage</text>
</a>
</g>
</g>
<!-- Node5&#45;&gt;Node3 -->
<g id="edge4" class="edge">
<title>Node5&#45;&gt;Node3</title>
<path fill="none" stroke="midnightblue" d="M384.09,-114.48C401.31,-109.28 420.82,-103.37 436.89,-98.51"/>
<polygon fill="midnightblue" stroke="midnightblue" points="382.83,-111.21 374.27,-117.46 384.85,-117.91 382.83,-111.21"/>
</g>
<!-- Node6 -->
<g id="node6" class="node">
<title>Node6</title>
<g id="a_node6"><a xlink:href="../../dc/d77/classrTwoBF.html" target="_top" xlink:title="digraph rTwoBF { 	rankdir=&quot;LR&quot;; &#160;node [shape=box, fontname=Helvetica, fontsize=12,...">
<polygon fill="white" stroke="black" points="160.07,-195.5 160.07,-215.5 223.28,-215.5 223.28,-195.5 160.07,-195.5"/>
<text text-anchor="middle" x="191.68" y="-202.5" font-family="Helvetica,sans-Serif" font-size="10.00">rTwoBF(2)</text>
</a>
</g>
</g>
<!-- Node6&#45;&gt;Node5 -->
<g id="edge5" class="edge">
<title>Node6&#45;&gt;Node5</title>
<path fill="none" stroke="midnightblue" d="M233.36,-195.35C239.63,-192.94 245.84,-190.02 251.35,-186.5 271.22,-173.78 267.84,-160.76 287.35,-147.5 293.08,-143.6 299.68,-140.31 306.21,-137.6"/>
<polygon fill="midnightblue" stroke="midnightblue" points="231.86,-192.17 223.54,-198.73 234.14,-198.79 231.86,-192.17"/>
</g>
<!-- Node7 -->
<g id="node7" class="node">
<title>Node7</title>
<g id="a_node7"><a xlink:href="../../d6/ddb/classcommon__delay.html" target="_top" xlink:title=" ">
<polygon fill="white" stroke="black" points="0,-195.5 0,-215.5 96.01,-215.5 96.01,-195.5 0,-195.5"/>
<text text-anchor="middle" x="48" y="-202.5" font-family="Helvetica,sans-Serif" font-size="10.00">common_delay(2)</text>
</a>
</g>
</g>
<!-- Node7&#45;&gt;Node6 -->
<g id="edge6" class="edge">
<title>Node7&#45;&gt;Node6</title>
<path fill="none" stroke="midnightblue" d="M106.18,-205.5C124.49,-205.5 144.05,-205.5 159.75,-205.5"/>
<polygon fill="midnightblue" stroke="midnightblue" points="106.18,-202 96.18,-205.5 106.18,-209 106.18,-202"/>
</g>
<!-- Node8 -->
<g id="node8" class="node">
<title>Node8</title>
<g id="a_node8"><a xlink:href="../../d5/dd7/classcommon__bit__delay.html" target="_top" xlink:title=" ">
<polygon fill="white" stroke="black" points="135.62,-156.5 135.62,-176.5 247.74,-176.5 247.74,-156.5 135.62,-156.5"/>
<text text-anchor="middle" x="191.68" y="-163.5" font-family="Helvetica,sans-Serif" font-size="10.00">common_bit_delay(2)</text>
</a>
</g>
</g>
<!-- Node8&#45;&gt;Node5 -->
<g id="edge7" class="edge">
<title>Node8&#45;&gt;Node5</title>
<path fill="none" stroke="midnightblue" d="M240.17,-153.85C260.05,-148.55 282.82,-142.49 301.5,-137.51"/>
<polygon fill="midnightblue" stroke="midnightblue" points="239.14,-150.5 230.38,-156.46 240.94,-157.26 239.14,-150.5"/>
</g>
<!-- Node9 -->
<g id="node9" class="node">
<title>Node9</title>
<g id="a_node9"><a xlink:href="../../d3/d5d/classcommon__pipeline.html" target="_top" xlink:title=" ">
<polygon fill="white" stroke="black" points="0.83,-98.5 0.83,-118.5 95.18,-118.5 95.18,-98.5 0.83,-98.5"/>
<text text-anchor="middle" x="48" y="-105.5" font-family="Helvetica,sans-Serif" font-size="10.00">common_pipeline</text>
</a>
</g>
</g>
<!-- Node9&#45;&gt;Node5 -->
<g id="edge8" class="edge">
<title>Node9&#45;&gt;Node5</title>
<path fill="none" stroke="midnightblue" d="M105.35,-112.19C163.13,-115.98 251.38,-121.76 301.28,-125.02"/>
<polygon fill="midnightblue" stroke="midnightblue" points="105.49,-108.69 95.29,-111.53 105.04,-115.68 105.49,-108.69"/>
</g>
<!-- Node10 -->
<g id="node10" class="node">
<title>Node10</title>
<g id="a_node10"><a xlink:href="../../d5/dc5/classcommon__pipeline__sl.html" target="_top" xlink:title=" ">
<polygon fill="white" stroke="black" points="132.01,-78.5 132.01,-98.5 251.35,-98.5 251.35,-78.5 132.01,-78.5"/>
<text text-anchor="middle" x="191.68" y="-85.5" font-family="Helvetica,sans-Serif" font-size="10.00">common_pipeline_sl(2)</text>
</a>
</g>
</g>
<!-- Node9&#45;&gt;Node10 -->
<g id="edge10" class="edge">
<title>Node9&#45;&gt;Node10</title>
<path fill="none" stroke="midnightblue" d="M105.4,-100.54C114.07,-99.31 123.05,-98.05 131.77,-96.82"/>
<polygon fill="midnightblue" stroke="midnightblue" points="104.81,-97.09 95.39,-101.95 105.78,-104.02 104.81,-97.09"/>
</g>
<!-- Node10&#45;&gt;Node5 -->
<g id="edge9" class="edge">
<title>Node10&#45;&gt;Node5</title>
<path fill="none" stroke="midnightblue" d="M240.17,-101.15C260.05,-106.45 282.82,-112.51 301.5,-117.49"/>
<polygon fill="midnightblue" stroke="midnightblue" points="240.94,-97.74 230.38,-98.54 239.14,-104.5 240.94,-97.74"/>
</g>
<!-- Node12 -->
<g id="node12" class="node">
<title>Node12</title>
<g id="a_node12"><a xlink:href="../../d1/d60/classrTwoWMul.html" target="_top" xlink:title=" ">
<polygon fill="white" stroke="black" points="308.19,-78.5 308.19,-98.5 371.96,-98.5 371.96,-78.5 308.19,-78.5"/>
<text text-anchor="middle" x="340.08" y="-85.5" font-family="Helvetica,sans-Serif" font-size="10.00">rTwoWMul</text>
</a>
</g>
</g>
<!-- Node10&#45;&gt;Node12 -->
<g id="edge14" class="edge">
<title>Node10&#45;&gt;Node12</title>
<path fill="none" stroke="midnightblue" d="M261.48,-88.5C277.82,-88.5 294.45,-88.5 308.1,-88.5"/>
<polygon fill="midnightblue" stroke="midnightblue" points="261.38,-85 251.38,-88.5 261.38,-92 261.38,-85"/>
</g>
<!-- Node11 -->
<g id="node11" class="node">
<title>Node11</title>
<g id="a_node11"><a xlink:href="../../d4/d46/classrTwoWeights.html" target="_top" xlink:title=" ">
<polygon fill="white" stroke="black" points="302.91,-39.5 302.91,-59.5 377.24,-59.5 377.24,-39.5 302.91,-39.5"/>
<text text-anchor="middle" x="340.08" y="-46.5" font-family="Helvetica,sans-Serif" font-size="10.00">rTwoWeights</text>
</a>
</g>
</g>
<!-- Node11&#45;&gt;Node3 -->
<g id="edge11" class="edge">
<title>Node11&#45;&gt;Node3</title>
<path fill="none" stroke="midnightblue" d="M384.09,-62.52C401.31,-67.72 420.82,-73.63 436.89,-78.49"/>
<polygon fill="midnightblue" stroke="midnightblue" points="384.85,-59.09 374.27,-59.54 382.83,-65.79 384.85,-59.09"/>
</g>
<!-- Node12&#45;&gt;Node3 -->
<g id="edge12" class="edge">
<title>Node12&#45;&gt;Node3</title>
<path fill="none" stroke="midnightblue" d="M382.57,-88.5C397.22,-88.5 413.68,-88.5 428.34,-88.5"/>
<polygon fill="midnightblue" stroke="midnightblue" points="382.28,-85 372.28,-88.5 382.28,-92 382.28,-85"/>
</g>
<!-- Node13 -->
<g id="node13" class="node">
<title>Node13</title>
<g id="a_node13"><a xlink:href="../../d3/d5d/classcommon__pipeline.html" target="_top" xlink:title=" ">
<polygon fill="white" stroke="black" points="138.4,-39.5 138.4,-59.5 244.96,-59.5 244.96,-39.5 138.4,-39.5"/>
<text text-anchor="middle" x="191.68" y="-46.5" font-family="Helvetica,sans-Serif" font-size="10.00">common_pipeline(2)</text>
</a>
</g>
</g>
<!-- Node13&#45;&gt;Node12 -->
<g id="edge13" class="edge">
<title>Node13&#45;&gt;Node12</title>
<path fill="none" stroke="midnightblue" d="M240.29,-62.18C262.48,-68.1 288.26,-74.96 307.92,-80.2"/>
<polygon fill="midnightblue" stroke="midnightblue" points="240.94,-58.74 230.38,-59.54 239.14,-65.5 240.94,-58.74"/>
</g>
<!-- Node14 -->
<g id="node14" class="node">
<title>Node14</title>
<g id="a_node14"><a xlink:href="../../de/d39/classrTwoOrder.html" target="_top" xlink:title=" ">
<polygon fill="white" stroke="black" points="439.09,-20.5 439.09,-40.5 502.86,-40.5 502.86,-20.5 439.09,-20.5"/>
<text text-anchor="middle" x="470.97" y="-27.5" font-family="Helvetica,sans-Serif" font-size="10.00">rTwoOrder</text>
</a>
</g>
</g>
<!-- Node14&#45;&gt;Node2 -->
<g id="edge15" class="edge">
<title>Node14&#45;&gt;Node2</title>
<path fill="none" stroke="midnightblue" d="M512.86,-37.88C524.94,-40.06 537.88,-42.39 548.97,-44.4"/>
<polygon fill="midnightblue" stroke="midnightblue" points="513.45,-34.43 502.99,-36.1 512.21,-41.32 513.45,-34.43"/>
</g>
<!-- Node15 -->
<g id="node15" class="node">
<title>Node15</title>
<g id="a_node15"><a xlink:href="../../d1/dc3/classcommon__counter.html" target="_top" xlink:title=" ">
<polygon fill="white" stroke="black" points="287.35,-0.5 287.35,-20.5 392.8,-20.5 392.8,-0.5 287.35,-0.5"/>
<text text-anchor="middle" x="340.08" y="-7.5" font-family="Helvetica,sans-Serif" font-size="10.00">common_counter(2)</text>
</a>
</g>
</g>
<!-- Node15&#45;&gt;Node14 -->
<g id="edge16" class="edge">
<title>Node15&#45;&gt;Node14</title>
<path fill="none" stroke="midnightblue" d="M403.04,-20.12C415.48,-22.05 428.04,-23.99 438.87,-25.67"/>
<polygon fill="midnightblue" stroke="midnightblue" points="403.55,-16.65 393.13,-18.58 402.48,-23.57 403.55,-16.65"/>
</g>
</g>
</svg>
        <g id="navigator" transform="translate(0 0)" fill="#404254">
                <rect fill="#f2f5e9" fill-opacity="0.5" stroke="#606060" stroke-width=".5" x="0" y="0" width="60" height="60"/>
                <use id="zoomplus" xlink:href="#zoomPlus" x="17" y="9" onmousedown="handleZoom(evt,'in')"/>
                <use id="zoomminus" xlink:href="#zoomMin" x="42" y="9" onmousedown="handleZoom(evt,'out')"/>
                <use id="reset" xlink:href="#resetDef" x="30" y="36" onmousedown="handleReset()"/>
                <g id="arrowUp" xlink:href="#dirArrow" transform="translate(30 24)" onmousedown="handlePan(0,-1)">
                  <use xlink:href="#rim" fill="#404040">
                        <set attributeName="fill" to="#808080" begin="arrowUp.mouseover" end="arrowUp.mouseout"/>
                  </use>
                  <path fill="none" stroke="white" stroke-width="1.5" d="M0,-3.0v7 M-2.5,-0.5L0,-3.0L2.5,-0.5"/>
                </g>
                <g id="arrowRight" xlink:href="#dirArrow" transform="rotate(90) translate(36 -43)" onmousedown="handlePan(1,0)">
                  <use xlink:href="#rim" fill="#404040">
                        <set attributeName="fill" to="#808080" begin="arrowRight.mouseover" end="arrowRight.mouseout"/>
                  </use>
                  <path fill="none" stroke="white" stroke-width="1.5" d="M0,-3.0v7 M-2.5,-0.5L0,-3.0L2.5,-0.5"/>
                </g>
                <g id="arrowDown" xlink:href="#dirArrow" transform="rotate(180) translate(-30 -48)" onmousedown="handlePan(0,1)">
                  <use xlink:href="#rim" fill="#404040">
                        <set attributeName="fill" to="#808080" begin="arrowDown.mouseover" end="arrowDown.mouseout"/>
                  </use>
                  <path fill="none" stroke="white" stroke-width="1.5" d="M0,-3.0v7 M-2.5,-0.5L0,-3.0L2.5,-0.5"/>
                </g>
                <g id="arrowLeft" xlink:href="#dirArrow" transform="rotate(270) translate(-36 17)" onmousedown="handlePan(-1,0)">
                  <use xlink:href="#rim" fill="#404040">
                        <set attributeName="fill" to="#808080" begin="arrowLeft.mouseover" end="arrowLeft.mouseout"/>
                  </use>
                  <path fill="none" stroke="white" stroke-width="1.5" d="M0,-3.0v7 M-2.5,-0.5L0,-3.0L2.5,-0.5"/>
                </g>
        </g>
        <svg viewBox="0 0 15 15" width="100%" height="30px" preserveAspectRatio="xMaxYMin meet">
         <g id="arrow_out" transform="scale(0.3 0.3)">
          <a xlink:href="classtb__rTwoSDF__inherit__graph_org.svg" target="_base">
           <rect id="button" ry="5" rx="5" y="6" x="6" height="38" width="38"
                fill="#f2f5e9" fill-opacity="0.5" stroke="#606060" stroke-width="1.0"/>
           <path id="arrow"
             d="M 11.500037,31.436501 C 11.940474,20.09759 22.043105,11.32322 32.158766,21.979434 L 37.068811,17.246167 C 37.068811,17.246167 37.088388,32 37.088388,32 L 22.160133,31.978069 C 22.160133,31.978069 26.997745,27.140456 26.997745,27.140456 C 18.528582,18.264221 13.291696,25.230495 11.500037,31.436501 z"
             style="fill:#404040;"/>
          </a>
         </g>
        </svg>
</svg>
