<?xml version="1.0" encoding="UTF-8" standalone="no"?>
<!DOCTYPE svg PUBLIC "-//W3C//DTD SVG 1.1//EN"
 "http://www.w3.org/Graphics/SVG/1.1/DTD/svg11.dtd">
<!-- Generated by graphviz version 2.44.0 (0)
 -->
<!-- Title: tb_rTwoOrder Pages: 1 -->
<svg width="113pt" height="143pt"
 viewBox="0.00 0.00 113.45 143.00" xmlns="http://www.w3.org/2000/svg" xmlns:xlink="http://www.w3.org/1999/xlink">
<g id="graph0" class="graph" transform="scale(1 1) rotate(0) translate(4 139)">
<title>tb_rTwoOrder</title>
<polygon fill="white" stroke="transparent" points="-4,4 -4,-139 109.45,-139 109.45,4 -4,4"/>
<!-- Node1 -->
<g id="node1" class="node">
<title>Node1</title>
<g id="a_node1"><a xlink:title=" ">
<polygon fill="#bfbfbf" stroke="black" points="13.89,-0.5 13.89,-20.5 91.56,-20.5 91.56,-0.5 13.89,-0.5"/>
<text text-anchor="middle" x="52.73" y="-7.5" font-family="Helvetica,sans-Serif" font-size="10.00">tb_rTwoOrder</text>
</a>
</g>
</g>
<!-- Node2 -->
<g id="node2" class="node">
<title>Node2</title>
<g id="a_node2"><a xlink:href="../../de/d39/classrTwoOrder.html" target="_top" xlink:title=" ">
<polygon fill="white" stroke="black" points="20.84,-57.5 20.84,-77.5 84.61,-77.5 84.61,-57.5 20.84,-57.5"/>
<text text-anchor="middle" x="52.73" y="-64.5" font-family="Helvetica,sans-Serif" font-size="10.00">rTwoOrder</text>
</a>
</g>
</g>
<!-- Node2&#45;&gt;Node1 -->
<g id="edge1" class="edge">
<title>Node2&#45;&gt;Node1</title>
<path fill="none" stroke="midnightblue" d="M52.73,-47.38C52.73,-38.37 52.73,-28.04 52.73,-20.78"/>
<polygon fill="midnightblue" stroke="midnightblue" points="49.23,-47.42 52.73,-57.42 56.23,-47.42 49.23,-47.42"/>
</g>
<!-- Node3 -->
<g id="node3" class="node">
<title>Node3</title>
<g id="a_node3"><a xlink:href="../../d1/dc3/classcommon__counter.html" target="_top" xlink:title=" ">
<polygon fill="white" stroke="black" points="0,-114.5 0,-134.5 105.46,-134.5 105.46,-114.5 0,-114.5"/>
<text text-anchor="middle" x="52.73" y="-121.5" font-family="Helvetica,sans-Serif" font-size="10.00">common_counter(2)</text>
</a>
</g>
</g>
<!-- Node3&#45;&gt;Node2 -->
<g id="edge2" class="edge">
<title>Node3&#45;&gt;Node2</title>
<path fill="none" stroke="midnightblue" d="M52.73,-104.38C52.73,-95.37 52.73,-85.04 52.73,-77.78"/>
<polygon fill="midnightblue" stroke="midnightblue" points="49.23,-104.42 52.73,-114.42 56.23,-104.42 49.23,-104.42"/>
</g>
</g>
</svg>
