<?xml version="1.0" encoding="UTF-8" standalone="no"?>
<!DOCTYPE svg PUBLIC "-//W3C//DTD SVG 1.1//EN"
 "http://www.w3.org/Graphics/SVG/1.1/DTD/svg11.dtd">
<!-- Generated by graphviz version 2.44.0 (0)
 -->
<!-- Title: rTwoBFStage Pages: 1 -->
<svg width="394pt" height="314pt"
 viewBox="0.00 0.00 393.67 314.00" xmlns="http://www.w3.org/2000/svg" xmlns:xlink="http://www.w3.org/1999/xlink">
<g id="graph0" class="graph" transform="scale(1 1) rotate(0) translate(4 310)">
<title>rTwoBFStage</title>
<polygon fill="white" stroke="transparent" points="-4,4 -4,-310 389.67,-310 389.67,4 -4,4"/>
<!-- Node1 -->
<g id="node1" class="node">
<title>Node1</title>
<g id="a_node1"><a xlink:title=" ">
<polygon fill="#bfbfbf" stroke="black" points="157.44,-171.5 157.44,-191.5 234.56,-191.5 234.56,-171.5 157.44,-171.5"/>
<text text-anchor="middle" x="196" y="-178.5" font-family="Helvetica,sans-Serif" font-size="10.00">rTwoBFStage</text>
</a>
</g>
</g>
<!-- Node7 -->
<g id="node7" class="node">
<title>Node7</title>
<g id="a_node7"><a xlink:href="../../d3/da3/classrTwoSDFStage.html" target="_top" xlink:title=" ">
<polygon fill="white" stroke="black" points="153.83,-114.5 153.83,-134.5 238.17,-134.5 238.17,-114.5 153.83,-114.5"/>
<text text-anchor="middle" x="196" y="-121.5" font-family="Helvetica,sans-Serif" font-size="10.00">rTwoSDFStage</text>
</a>
</g>
</g>
<!-- Node1&#45;&gt;Node7 -->
<g id="edge7" class="edge">
<title>Node1&#45;&gt;Node7</title>
<path fill="none" stroke="midnightblue" d="M196,-161.38C196,-152.37 196,-142.04 196,-134.78"/>
<polygon fill="midnightblue" stroke="midnightblue" points="192.5,-161.42 196,-171.42 199.5,-161.42 192.5,-161.42"/>
</g>
<!-- Node2 -->
<g id="node2" class="node">
<title>Node2</title>
<g id="a_node2"><a xlink:href="../../dc/d77/classrTwoBF.html" target="_top" xlink:title="digraph rTwoBF { 	rankdir=&quot;LR&quot;; &#160;node [shape=box, fontname=Helvetica, fontsize=12,...">
<polygon fill="white" stroke="black" points="16.4,-228.5 16.4,-248.5 79.61,-248.5 79.61,-228.5 16.4,-228.5"/>
<text text-anchor="middle" x="48" y="-235.5" font-family="Helvetica,sans-Serif" font-size="10.00">rTwoBF(2)</text>
</a>
</g>
</g>
<!-- Node2&#45;&gt;Node1 -->
<g id="edge1" class="edge">
<title>Node2&#45;&gt;Node1</title>
<path fill="none" stroke="midnightblue" d="M82,-224.87C109.34,-214.71 147.09,-200.68 171.53,-191.6"/>
<polygon fill="midnightblue" stroke="midnightblue" points="80.6,-221.65 72.44,-228.42 83.04,-228.22 80.6,-221.65"/>
</g>
<!-- Node3 -->
<g id="node3" class="node">
<title>Node3</title>
<g id="a_node3"><a xlink:href="../../d6/ddb/classcommon__delay.html" target="_top" xlink:title=" ">
<polygon fill="white" stroke="black" points="0,-285.5 0,-305.5 96.01,-305.5 96.01,-285.5 0,-285.5"/>
<text text-anchor="middle" x="48" y="-292.5" font-family="Helvetica,sans-Serif" font-size="10.00">common_delay(2)</text>
</a>
</g>
</g>
<!-- Node3&#45;&gt;Node2 -->
<g id="edge2" class="edge">
<title>Node3&#45;&gt;Node2</title>
<path fill="none" stroke="midnightblue" d="M48,-275.38C48,-266.37 48,-256.04 48,-248.78"/>
<polygon fill="midnightblue" stroke="midnightblue" points="44.5,-275.42 48,-285.42 51.5,-275.42 44.5,-275.42"/>
</g>
<!-- Node4 -->
<g id="node4" class="node">
<title>Node4</title>
<g id="a_node4"><a xlink:href="../../d5/dd7/classcommon__bit__delay.html" target="_top" xlink:title=" ">
<polygon fill="white" stroke="black" points="97.94,-228.5 97.94,-248.5 210.06,-248.5 210.06,-228.5 97.94,-228.5"/>
<text text-anchor="middle" x="154" y="-235.5" font-family="Helvetica,sans-Serif" font-size="10.00">common_bit_delay(2)</text>
</a>
</g>
</g>
<!-- Node4&#45;&gt;Node1 -->
<g id="edge3" class="edge">
<title>Node4&#45;&gt;Node1</title>
<path fill="none" stroke="midnightblue" d="M167.03,-220.44C174.25,-210.98 182.95,-199.6 188.92,-191.78"/>
<polygon fill="midnightblue" stroke="midnightblue" points="164.23,-218.35 160.94,-228.42 169.79,-222.59 164.23,-218.35"/>
</g>
<!-- Node5 -->
<g id="node5" class="node">
<title>Node5</title>
<g id="a_node5"><a xlink:href="../../d3/d5d/classcommon__pipeline.html" target="_top" xlink:title=" ">
<polygon fill="white" stroke="black" points="234.83,-285.5 234.83,-305.5 329.18,-305.5 329.18,-285.5 234.83,-285.5"/>
<text text-anchor="middle" x="282" y="-292.5" font-family="Helvetica,sans-Serif" font-size="10.00">common_pipeline</text>
</a>
</g>
</g>
<!-- Node5&#45;&gt;Node1 -->
<g id="edge4" class="edge">
<title>Node5&#45;&gt;Node1</title>
<path fill="none" stroke="midnightblue" d="M268.65,-277.11C250.19,-253.07 217.52,-210.52 203.14,-191.79"/>
<polygon fill="midnightblue" stroke="midnightblue" points="266.1,-279.53 274.97,-285.33 271.65,-275.27 266.1,-279.53"/>
</g>
<!-- Node6 -->
<g id="node6" class="node">
<title>Node6</title>
<g id="a_node6"><a xlink:href="../../d5/dc5/classcommon__pipeline__sl.html" target="_top" xlink:title=" ">
<polygon fill="white" stroke="black" points="266.33,-228.5 266.33,-248.5 385.67,-248.5 385.67,-228.5 266.33,-228.5"/>
<text text-anchor="middle" x="326" y="-235.5" font-family="Helvetica,sans-Serif" font-size="10.00">common_pipeline_sl(2)</text>
</a>
</g>
</g>
<!-- Node5&#45;&gt;Node6 -->
<g id="edge6" class="edge">
<title>Node5&#45;&gt;Node6</title>
<path fill="none" stroke="midnightblue" d="M295.65,-277.44C303.22,-267.98 312.33,-256.6 318.58,-248.78"/>
<polygon fill="midnightblue" stroke="midnightblue" points="292.78,-275.42 289.27,-285.42 298.25,-279.8 292.78,-275.42"/>
</g>
<!-- Node6&#45;&gt;Node1 -->
<g id="edge5" class="edge">
<title>Node6&#45;&gt;Node1</title>
<path fill="none" stroke="midnightblue" d="M295.19,-224.46C271.26,-214.34 238.68,-200.56 217.5,-191.6"/>
<polygon fill="midnightblue" stroke="midnightblue" points="293.96,-227.74 304.54,-228.42 296.69,-221.3 293.96,-227.74"/>
</g>
<!-- Node8 -->
<g id="node8" class="node">
<title>Node8</title>
<g id="a_node8"><a xlink:href="../../da/d05/classrTwoSDF.html" target="_top" xlink:title=" ">
<polygon fill="white" stroke="black" points="166.9,-57.5 166.9,-77.5 225.11,-77.5 225.11,-57.5 166.9,-57.5"/>
<text text-anchor="middle" x="196" y="-64.5" font-family="Helvetica,sans-Serif" font-size="10.00">rTwoSDF</text>
</a>
</g>
</g>
<!-- Node7&#45;&gt;Node8 -->
<g id="edge8" class="edge">
<title>Node7&#45;&gt;Node8</title>
<path fill="none" stroke="midnightblue" d="M196,-104.38C196,-95.37 196,-85.04 196,-77.78"/>
<polygon fill="midnightblue" stroke="midnightblue" points="192.5,-104.42 196,-114.42 199.5,-104.42 192.5,-104.42"/>
</g>
<!-- Node9 -->
<g id="node9" class="node">
<title>Node9</title>
<g id="a_node9"><a xlink:href="../../d0/d99/classtb__rTwoSDF.html" target="_top" xlink:title=" ">
<polygon fill="white" stroke="black" points="159.95,-0.5 159.95,-20.5 232.06,-20.5 232.06,-0.5 159.95,-0.5"/>
<text text-anchor="middle" x="196" y="-7.5" font-family="Helvetica,sans-Serif" font-size="10.00">tb_rTwoSDF</text>
</a>
</g>
</g>
<!-- Node8&#45;&gt;Node9 -->
<g id="edge9" class="edge">
<title>Node8&#45;&gt;Node9</title>
<path fill="none" stroke="midnightblue" d="M196,-47.38C196,-38.37 196,-28.04 196,-20.78"/>
<polygon fill="midnightblue" stroke="midnightblue" points="192.5,-47.42 196,-57.42 199.5,-47.42 192.5,-47.42"/>
</g>
</g>
</svg>
