<?xml version="1.0" encoding="UTF-8" standalone="no"?>
<!DOCTYPE svg PUBLIC "-//W3C//DTD SVG 1.1//EN"
 "http://www.w3.org/Graphics/SVG/1.1/DTD/svg11.dtd">
<!-- Generated by graphviz version 2.44.0 (0)
 -->
<!-- Title: common_add_sub_tb Pages: 1 -->
<svg width="152pt" height="143pt"
 viewBox="0.00 0.00 152.20 143.00" xmlns="http://www.w3.org/2000/svg" xmlns:xlink="http://www.w3.org/1999/xlink">
<g id="graph0" class="graph" transform="scale(1 1) rotate(0) translate(4 139)">
<title>common_add_sub_tb</title>
<polygon fill="white" stroke="transparent" points="-4,4 -4,-139 148.2,-139 148.2,4 -4,4"/>
<!-- Node1 -->
<g id="node1" class="node">
<title>Node1</title>
<g id="a_node1"><a xlink:title=" ">
<polygon fill="#bfbfbf" stroke="black" points="0,-0.5 0,-20.5 112.14,-20.5 112.14,-0.5 0,-0.5"/>
<text text-anchor="middle" x="56.07" y="-7.5" font-family="Helvetica,sans-Serif" font-size="10.00">common_add_sub_tb</text>
</a>
</g>
</g>
<!-- Node2 -->
<g id="node2" class="node">
<title>Node2</title>
<g id="a_node2"><a xlink:href="../../d3/d5d/classcommon__pipeline.html" target="_top" xlink:title=" ">
<polygon fill="white" stroke="black" points="8.9,-114.5 8.9,-134.5 103.25,-134.5 103.25,-114.5 8.9,-114.5"/>
<text text-anchor="middle" x="56.07" y="-121.5" font-family="Helvetica,sans-Serif" font-size="10.00">common_pipeline</text>
</a>
</g>
</g>
<!-- Node2&#45;&gt;Node1 -->
<g id="edge1" class="edge">
<title>Node2&#45;&gt;Node1</title>
<path fill="none" stroke="midnightblue" d="M46.5,-105.23C42.77,-97.12 38.94,-87.32 37.07,-78 35.24,-68.85 35.24,-66.15 37.07,-57 39.73,-43.74 46.34,-29.51 51.02,-20.57"/>
<polygon fill="midnightblue" stroke="midnightblue" points="43.47,-107 51.02,-114.43 49.75,-103.91 43.47,-107"/>
</g>
<!-- Node3 -->
<g id="node3" class="node">
<title>Node3</title>
<g id="a_node3"><a xlink:href="../../de/d7e/classcommon__add__sub.html" target="_top" xlink:title="digraph common_add_sub { 	rankdir=&quot;LR&quot;; &#160;node [shape=box, fontname=Helvetica, fontsize=12,...">
<polygon fill="white" stroke="black" points="45.95,-57.5 45.95,-77.5 144.2,-77.5 144.2,-57.5 45.95,-57.5"/>
<text text-anchor="middle" x="95.07" y="-64.5" font-family="Helvetica,sans-Serif" font-size="10.00">common_add_sub</text>
</a>
</g>
</g>
<!-- Node2&#45;&gt;Node3 -->
<g id="edge3" class="edge">
<title>Node2&#45;&gt;Node3</title>
<path fill="none" stroke="midnightblue" d="M68.38,-106.15C75.04,-96.75 83.01,-85.52 88.49,-77.78"/>
<polygon fill="midnightblue" stroke="midnightblue" points="65.44,-104.24 62.51,-114.42 71.15,-108.29 65.44,-104.24"/>
</g>
<!-- Node3&#45;&gt;Node1 -->
<g id="edge2" class="edge">
<title>Node3&#45;&gt;Node1</title>
<path fill="none" stroke="midnightblue" d="M82.77,-49.15C76.1,-39.75 68.14,-28.52 62.65,-20.78"/>
<polygon fill="midnightblue" stroke="midnightblue" points="79.99,-51.29 88.63,-57.42 85.7,-47.24 79.99,-51.29"/>
</g>
</g>
</svg>
